<?xml version="1.0" encoding="utf-8"?>
<!-- Generator: Adobe Illustrator 27.5.0, SVG Export Plug-In . SVG Version: 6.00 Build 0)  -->
<svg version="1.1" id="Camada_1" xmlns="http://www.w3.org/2000/svg" xmlns:xlink="http://www.w3.org/1999/xlink" x="0px" y="0px"
	 viewBox="0 0 498 106" style="enable-background:new 0 0 498 106;" xml:space="preserve">
<style type="text/css">
	.st0{fill:none;stroke:#000000;stroke-width:8;}
	.st1{fill:#FFFFFF;}
</style>
<path class="st0" d="M50,4h398c25.4,0,46,20.6,46,46v6c0,25.4-20.6,46-46,46H50C24.6,102,4,81.4,4,56v-6C4,24.6,24.6,4,50,4z"/>
<path d="M127.3,65.6c-2,0-3.9-0.3-5.7-1c-1.7-0.7-3.2-1.6-4.5-2.8c-1.3-1.2-2.3-2.7-3-4.4c-0.7-1.7-1.1-3.5-1.1-5.5
	c0-2,0.4-3.8,1.1-5.5c0.7-1.7,1.7-3.1,3-4.3c1.3-1.2,2.8-2.2,4.5-2.8c1.7-0.7,3.6-1,5.7-1c2.2,0,4.2,0.4,6,1.1
	c1.8,0.7,3.3,1.8,4.6,3.3l-3.2,3c-1-1-2-1.8-3.2-2.3c-1.2-0.5-2.5-0.8-3.9-0.8c-1.4,0-2.7,0.2-3.8,0.7c-1.1,0.5-2.1,1.1-3,1.9
	c-0.8,0.8-1.5,1.8-2,3c-0.5,1.1-0.7,2.4-0.7,3.8s0.2,2.6,0.7,3.8c0.5,1.1,1.1,2.1,2,3c0.9,0.8,1.9,1.5,3,1.9
	c1.2,0.5,2.4,0.7,3.8,0.7c1.4,0,2.7-0.3,3.9-0.8c1.2-0.5,2.3-1.3,3.2-2.4l3.2,3c-1.2,1.4-2.8,2.5-4.6,3.3
	C131.5,65.2,129.5,65.6,127.3,65.6z M142.6,65.2V38.6h4.9V61h13.9v4.2H142.6z M165.3,65.2V38.6h4.9v26.6H165.3z M189.9,65.6
	c-2.1,0-4-0.3-5.7-1c-1.7-0.7-3.3-1.6-4.6-2.8c-1.3-1.2-2.3-2.7-3-4.3c-0.7-1.7-1.1-3.5-1.1-5.5c0-2,0.4-3.8,1.1-5.4
	c0.7-1.7,1.7-3.1,3-4.3c1.3-1.2,2.8-2.2,4.6-2.9c1.7-0.7,3.6-1,5.7-1c2.1,0,4,0.3,5.7,1c1.7,0.7,3.3,1.6,4.6,2.8
	c1.3,1.2,2.3,2.7,3,4.3c0.7,1.7,1.1,3.5,1.1,5.5c0,2-0.4,3.8-1.1,5.5c-0.7,1.7-1.7,3.1-3,4.3c-1.3,1.2-2.8,2.2-4.6,2.8
	C193.9,65.2,192,65.6,189.9,65.6z M198.6,71c-0.9,0-1.8-0.1-2.7-0.3c-0.9-0.2-1.7-0.6-2.6-1.1c-0.8-0.5-1.7-1.1-2.6-1.9
	c-0.9-0.8-1.9-1.8-3-2.9l5.2-1.4c0.7,0.9,1.4,1.7,2,2.2c0.7,0.6,1.3,1,1.9,1.3c0.6,0.3,1.2,0.4,1.9,0.4c1.7,0,3.3-0.7,4.6-2.1
	l2.3,2.7C203.8,69.9,201.5,71,198.6,71z M189.9,61.2c1.3,0,2.6-0.2,3.7-0.7c1.1-0.5,2.1-1.1,3-1.9c0.8-0.9,1.5-1.9,1.9-3
	c0.5-1.1,0.7-2.4,0.7-3.7c0-1.4-0.2-2.6-0.7-3.7c-0.5-1.1-1.1-2.1-1.9-3c-0.8-0.9-1.8-1.5-3-2c-1.1-0.5-2.4-0.7-3.7-0.7
	c-1.3,0-2.6,0.2-3.7,0.7c-1.1,0.5-2.1,1.1-3,2c-0.8,0.8-1.5,1.8-2,3c-0.5,1.1-0.7,2.4-0.7,3.7c0,1.3,0.2,2.6,0.7,3.7
	c0.5,1.1,1.1,2.1,2,3c0.8,0.8,1.8,1.5,3,1.9C187.3,61,188.6,61.2,189.9,61.2z M220.9,65.6c-3.6,0-6.5-1-8.6-3.1
	c-2.1-2.1-3.1-5-3.1-8.9v-15h4.9v14.8c0,2.7,0.6,4.7,1.7,6c1.2,1.2,2.9,1.9,5,1.9s3.8-0.6,5-1.9c1.2-1.2,1.7-3.2,1.7-6V38.6h4.9v15
	c0,3.9-1,6.8-3.1,8.9C227.4,64.5,224.5,65.6,220.9,65.6z M244,49.6h13.2v4.1H244V49.6z M244.4,61h15v4.1h-19.9V38.6h19.4v4.1h-14.5
	V61z M280,49.6h13.2v4.1H280V49.6z M280.4,61h15v4.1h-19.9V38.6h19.4v4.1h-14.5V61z M307.6,65.2l12-26.6h4.9l12,26.6h-5.2l-10.3-24
	h2l-10.3,24H307.6z M313.1,59l1.3-3.9h14.4l1.3,3.9H313.1z M348.1,65.6c-2.1,0-4.1-0.3-6-0.9c-1.9-0.6-3.4-1.4-4.5-2.3l1.7-3.8
	c1.1,0.8,2.4,1.5,4,2.1c1.6,0.6,3.2,0.8,4.8,0.8c1.4,0,2.5-0.2,3.4-0.5c0.9-0.3,1.5-0.7,1.9-1.2c0.4-0.5,0.6-1.1,0.6-1.8
	c0-0.8-0.3-1.5-0.9-1.9c-0.6-0.5-1.3-0.9-2.3-1.2c-0.9-0.3-1.9-0.6-3.1-0.8c-1.1-0.3-2.2-0.5-3.4-0.9c-1.1-0.4-2.1-0.8-3.1-1.3
	c-0.9-0.6-1.7-1.3-2.2-2.2c-0.6-0.9-0.9-2.1-0.9-3.5c0-1.4,0.4-2.8,1.1-4c0.8-1.2,2-2.2,3.5-2.9c1.6-0.7,3.6-1.1,6-1.1
	c1.6,0,3.2,0.2,4.8,0.6c1.6,0.4,2.9,1,4.1,1.7l-1.6,3.8c-1.2-0.7-2.4-1.2-3.7-1.6c-1.3-0.4-2.5-0.5-3.6-0.5c-1.4,0-2.5,0.2-3.3,0.5
	c-0.8,0.3-1.5,0.8-1.9,1.3c-0.4,0.5-0.6,1.1-0.6,1.8c0,0.8,0.3,1.5,0.8,2c0.6,0.5,1.3,0.9,2.2,1.1c0.9,0.3,2,0.6,3.1,0.8
	c1.1,0.3,2.3,0.5,3.4,0.9c1.1,0.3,2.2,0.8,3.1,1.3c0.9,0.5,1.7,1.3,2.2,2.2c0.6,0.9,0.9,2.1,0.9,3.5c0,1.4-0.4,2.7-1.2,4
	c-0.8,1.2-1.9,2.2-3.5,2.9C352.5,65.2,350.5,65.6,348.1,65.6z M372,65.6c-2.1,0-4.1-0.3-6-0.9c-1.9-0.6-3.4-1.4-4.5-2.3l1.7-3.8
	c1.1,0.8,2.4,1.5,4,2.1c1.6,0.6,3.2,0.8,4.8,0.8c1.4,0,2.5-0.2,3.4-0.5c0.9-0.3,1.5-0.7,1.9-1.2c0.4-0.5,0.6-1.1,0.6-1.8
	c0-0.8-0.3-1.5-0.9-1.9c-0.6-0.5-1.3-0.9-2.3-1.2c-0.9-0.3-1.9-0.6-3.1-0.8c-1.1-0.3-2.2-0.5-3.4-0.9c-1.1-0.4-2.1-0.8-3.1-1.3
	c-0.9-0.6-1.7-1.3-2.2-2.2c-0.6-0.9-0.9-2.1-0.9-3.5c0-1.4,0.4-2.8,1.1-4c0.8-1.2,2-2.2,3.5-2.9c1.6-0.7,3.6-1.1,6-1.1
	c1.6,0,3.2,0.2,4.8,0.6c1.6,0.4,2.9,1,4.1,1.7l-1.6,3.8c-1.2-0.7-2.4-1.2-3.7-1.6c-1.3-0.4-2.5-0.5-3.6-0.5c-1.4,0-2.5,0.2-3.3,0.5
	c-0.8,0.3-1.5,0.8-1.9,1.3c-0.4,0.5-0.6,1.1-0.6,1.8c0,0.8,0.3,1.5,0.8,2c0.6,0.5,1.3,0.9,2.2,1.1c0.9,0.3,2,0.6,3.1,0.8
	c1.1,0.3,2.3,0.5,3.4,0.9c1.1,0.3,2.2,0.8,3.1,1.3c0.9,0.5,1.7,1.3,2.2,2.2c0.6,0.9,0.9,2.1,0.9,3.5c0,1.4-0.4,2.7-1.2,4
	c-0.8,1.2-1.9,2.2-3.5,2.9C376.4,65.2,374.4,65.6,372,65.6z M387.6,65.2V38.6h4.9v26.6H387.6z M408,65.6c-2.1,0-4.1-0.3-6-0.9
	c-1.9-0.6-3.4-1.4-4.5-2.3l1.7-3.8c1.1,0.8,2.4,1.5,4,2.1c1.6,0.6,3.2,0.8,4.8,0.8c1.4,0,2.5-0.2,3.4-0.5s1.5-0.7,1.9-1.2
	c0.4-0.5,0.6-1.1,0.6-1.8c0-0.8-0.3-1.5-0.9-1.9c-0.6-0.5-1.3-0.9-2.3-1.2c-0.9-0.3-1.9-0.6-3.1-0.8c-1.1-0.3-2.2-0.5-3.4-0.9
	c-1.1-0.4-2.1-0.8-3.1-1.3c-0.9-0.6-1.7-1.3-2.2-2.2s-0.9-2.1-0.9-3.5c0-1.4,0.4-2.8,1.1-4c0.8-1.2,2-2.2,3.5-2.9
	c1.6-0.7,3.6-1.1,6-1.1c1.6,0,3.2,0.2,4.8,0.6c1.6,0.4,2.9,1,4.1,1.7l-1.6,3.8c-1.2-0.7-2.4-1.2-3.7-1.6c-1.3-0.4-2.5-0.5-3.6-0.5
	c-1.4,0-2.5,0.2-3.3,0.5c-0.8,0.3-1.5,0.8-1.9,1.3c-0.4,0.5-0.6,1.1-0.6,1.8c0,0.8,0.3,1.5,0.8,2c0.6,0.5,1.3,0.9,2.2,1.1
	c0.9,0.3,2,0.6,3.1,0.8c1.1,0.3,2.3,0.5,3.4,0.9c1.1,0.3,2.2,0.8,3.1,1.3c0.9,0.5,1.7,1.3,2.2,2.2c0.6,0.9,0.9,2.1,0.9,3.5
	c0,1.4-0.4,2.7-1.2,4c-0.8,1.2-1.9,2.2-3.5,2.9C412.5,65.2,410.4,65.6,408,65.6z M428.7,65.2V42.8h-8.8v-4.2h22.6v4.2h-8.8v22.4
	H428.7z M441.1,65.2l12-26.6h4.9l12,26.6h-5.2l-10.3-24h2l-10.3,24H441.1z M446.6,59l1.3-3.9h14.4l1.3,3.9H446.6z"/>
<circle cx="53" cy="52.5" r="53"/>
<path class="st1" d="M82.1,53L38.7,78.3L38.5,28L82.1,53z"/>
</svg>
