<svg width="498" height="106" viewBox="0 0 498 106" fill="none" xmlns="http://www.w3.org/2000/svg">
<rect x="4" y="4" width="490" height="98" rx="46" stroke="#FF0909" stroke-width="8"/>
<path d="M132.238 68.38C130.212 68.38 128.324 68.0507 126.576 67.392C124.854 66.708 123.346 65.758 122.054 64.542C120.788 63.3007 119.8 61.844 119.09 60.172C118.381 58.5 118.026 56.676 118.026 54.7C118.026 52.724 118.381 50.9 119.09 49.228C119.8 47.556 120.8 46.112 122.092 44.896C123.384 43.6547 124.892 42.7047 126.614 42.046C128.337 41.362 130.224 41.02 132.276 41.02C134.455 41.02 136.444 41.4 138.242 42.16C140.041 42.8947 141.561 43.9967 142.802 45.466L139.61 48.468C138.648 47.4293 137.571 46.6567 136.38 46.15C135.19 45.618 133.898 45.352 132.504 45.352C131.111 45.352 129.832 45.58 128.666 46.036C127.526 46.492 126.526 47.138 125.664 47.974C124.828 48.81 124.17 49.798 123.688 50.938C123.232 52.078 123.004 53.332 123.004 54.7C123.004 56.068 123.232 57.322 123.688 58.462C124.17 59.602 124.828 60.59 125.664 61.426C126.526 62.262 127.526 62.908 128.666 63.364C129.832 63.82 131.111 64.048 132.504 64.048C133.898 64.048 135.19 63.7947 136.38 63.288C137.571 62.756 138.648 61.958 139.61 60.894L142.802 63.934C141.561 65.378 140.041 66.48 138.242 67.24C136.444 68 134.442 68.38 132.238 68.38ZM147.536 68V41.4H152.476V63.82H166.384V68H147.536ZM170.284 68V41.4H175.224V68H170.284ZM194.883 68.38C192.805 68.38 190.893 68.038 189.145 67.354C187.397 66.67 185.877 65.72 184.585 64.504C183.293 63.2627 182.292 61.8187 181.583 60.172C180.873 58.5 180.519 56.676 180.519 54.7C180.519 52.724 180.873 50.9127 181.583 49.266C182.292 47.594 183.293 46.15 184.585 44.934C185.877 43.6927 187.397 42.73 189.145 42.046C190.893 41.362 192.793 41.02 194.845 41.02C196.922 41.02 198.822 41.362 200.545 42.046C202.293 42.73 203.813 43.68 205.105 44.896C206.397 46.112 207.397 47.556 208.107 49.228C208.816 50.9 209.171 52.724 209.171 54.7C209.171 56.676 208.816 58.5 208.107 60.172C207.397 61.844 206.397 63.288 205.105 64.504C203.813 65.72 202.293 66.67 200.545 67.354C198.822 68.038 196.935 68.38 194.883 68.38ZM203.547 73.814C202.609 73.814 201.697 73.7 200.811 73.472C199.949 73.2693 199.088 72.9147 198.227 72.408C197.391 71.9267 196.517 71.2807 195.605 70.47C194.693 69.6847 193.692 68.7093 192.603 67.544L197.847 66.176C198.556 67.1133 199.227 67.8607 199.861 68.418C200.519 69.0007 201.153 69.4187 201.761 69.672C202.369 69.9253 203.002 70.052 203.661 70.052C205.409 70.052 206.929 69.3427 208.221 67.924L210.501 70.66C208.727 72.7627 206.409 73.814 203.547 73.814ZM194.845 64.048C196.187 64.048 197.429 63.82 198.569 63.364C199.709 62.908 200.697 62.262 201.533 61.426C202.369 60.5647 203.015 59.564 203.471 58.424C203.952 57.284 204.193 56.0427 204.193 54.7C204.193 53.332 203.952 52.0907 203.471 50.976C203.015 49.836 202.369 48.848 201.533 48.012C200.697 47.1507 199.709 46.492 198.569 46.036C197.429 45.58 196.187 45.352 194.845 45.352C193.502 45.352 192.261 45.58 191.121 46.036C189.981 46.492 188.993 47.1507 188.157 48.012C187.321 48.848 186.662 49.836 186.181 50.976C185.725 52.0907 185.497 53.332 185.497 54.7C185.497 56.0427 185.725 57.284 186.181 58.424C186.662 59.564 187.321 60.5647 188.157 61.426C188.993 62.262 189.981 62.908 191.121 63.364C192.261 63.82 193.502 64.048 194.845 64.048ZM225.845 68.38C222.197 68.38 219.334 67.354 217.257 65.302C215.205 63.25 214.179 60.286 214.179 56.41V41.4H219.119V56.22C219.119 58.956 219.702 60.9447 220.867 62.186C222.058 63.4273 223.73 64.048 225.883 64.048C228.036 64.048 229.696 63.4273 230.861 62.186C232.026 60.9447 232.609 58.956 232.609 56.22V41.4H237.473V56.41C237.473 60.286 236.434 63.25 234.357 65.302C232.305 67.354 229.468 68.38 225.845 68.38ZM248.951 52.458H262.175V56.524H248.951V52.458ZM249.331 63.858H264.341V68H244.391V41.4H263.809V45.542H249.331V63.858ZM284.91 52.458H298.134V56.524H284.91V52.458ZM285.29 63.858H300.3V68H280.35V41.4H299.768V45.542H285.29V63.858ZM312.547 68L324.517 41.4H329.381L341.389 68H336.221L325.923 44.022H327.899L317.639 68H312.547ZM318.057 61.844L319.387 57.968H333.751L335.081 61.844H318.057ZM353.018 68.38C350.941 68.38 348.952 68.0887 347.052 67.506C345.152 66.898 343.645 66.1253 342.53 65.188L344.24 61.35C345.304 62.186 346.622 62.8827 348.192 63.44C349.763 63.9973 351.372 64.276 353.018 64.276C354.412 64.276 355.539 64.124 356.4 63.82C357.262 63.516 357.895 63.1107 358.3 62.604C358.706 62.072 358.908 61.4767 358.908 60.818C358.908 60.0073 358.617 59.3613 358.034 58.88C357.452 58.3733 356.692 57.9807 355.754 57.702C354.842 57.398 353.816 57.1193 352.676 56.866C351.562 56.6127 350.434 56.3213 349.294 55.992C348.18 55.6373 347.154 55.194 346.216 54.662C345.304 54.1047 344.557 53.37 343.974 52.458C343.392 51.546 343.1 50.3807 343.1 48.962C343.1 47.518 343.48 46.2007 344.24 45.01C345.026 43.794 346.204 42.8313 347.774 42.122C349.37 41.3873 351.384 41.02 353.816 41.02C355.412 41.02 356.996 41.2227 358.566 41.628C360.137 42.0333 361.505 42.616 362.67 43.376L361.112 47.214C359.922 46.5047 358.693 45.9853 357.426 45.656C356.16 45.3013 354.944 45.124 353.778 45.124C352.41 45.124 351.296 45.2887 350.434 45.618C349.598 45.9473 348.978 46.378 348.572 46.91C348.192 47.442 348.002 48.05 348.002 48.734C348.002 49.5447 348.281 50.2033 348.838 50.71C349.421 51.1913 350.168 51.5713 351.08 51.85C352.018 52.1287 353.056 52.4073 354.196 52.686C355.336 52.9393 356.464 53.2307 357.578 53.56C358.718 53.8893 359.744 54.32 360.656 54.852C361.594 55.384 362.341 56.106 362.898 57.018C363.481 57.93 363.772 59.0827 363.772 60.476C363.772 61.8947 363.38 63.212 362.594 64.428C361.834 65.6187 360.656 66.5813 359.06 67.316C357.464 68.0253 355.45 68.38 353.018 68.38ZM376.917 68.38C374.839 68.38 372.851 68.0887 370.951 67.506C369.051 66.898 367.543 66.1253 366.429 65.188L368.139 61.35C369.203 62.186 370.52 62.8827 372.091 63.44C373.661 63.9973 375.27 64.276 376.917 64.276C378.31 64.276 379.437 64.124 380.299 63.82C381.16 63.516 381.793 63.1107 382.199 62.604C382.604 62.072 382.807 61.4767 382.807 60.818C382.807 60.0073 382.515 59.3613 381.933 58.88C381.35 58.3733 380.59 57.9807 379.653 57.702C378.741 57.398 377.715 57.1193 376.575 56.866C375.46 56.6127 374.333 56.3213 373.193 55.992C372.078 55.6373 371.052 55.194 370.115 54.662C369.203 54.1047 368.455 53.37 367.873 52.458C367.29 51.546 366.999 50.3807 366.999 48.962C366.999 47.518 367.379 46.2007 368.139 45.01C368.924 43.794 370.102 42.8313 371.673 42.122C373.269 41.3873 375.283 41.02 377.715 41.02C379.311 41.02 380.894 41.2227 382.465 41.628C384.035 42.0333 385.403 42.616 386.569 43.376L385.011 47.214C383.82 46.5047 382.591 45.9853 381.325 45.656C380.058 45.3013 378.842 45.124 377.677 45.124C376.309 45.124 375.194 45.2887 374.333 45.618C373.497 45.9473 372.876 46.378 372.471 46.91C372.091 47.442 371.901 48.05 371.901 48.734C371.901 49.5447 372.179 50.2033 372.737 50.71C373.319 51.1913 374.067 51.5713 374.979 51.85C375.916 52.1287 376.955 52.4073 378.095 52.686C379.235 52.9393 380.362 53.2307 381.477 53.56C382.617 53.8893 383.643 54.32 384.555 54.852C385.492 55.384 386.239 56.106 386.797 57.018C387.379 57.93 387.671 59.0827 387.671 60.476C387.671 61.8947 387.278 63.212 386.493 64.428C385.733 65.6187 384.555 66.5813 382.959 67.316C381.363 68.0253 379.349 68.38 376.917 68.38ZM392.569 68V41.4H397.509V68H392.569ZM412.95 68.38C410.873 68.38 408.884 68.0887 406.984 67.506C405.084 66.898 403.577 66.1253 402.462 65.188L404.172 61.35C405.236 62.186 406.553 62.8827 408.124 63.44C409.695 63.9973 411.303 64.276 412.95 64.276C414.343 64.276 415.471 64.124 416.332 63.82C417.193 63.516 417.827 63.1107 418.232 62.604C418.637 62.072 418.84 61.4767 418.84 60.818C418.84 60.0073 418.549 59.3613 417.966 58.88C417.383 58.3733 416.623 57.9807 415.686 57.702C414.774 57.398 413.748 57.1193 412.608 56.866C411.493 56.6127 410.366 56.3213 409.226 55.992C408.111 55.6373 407.085 55.194 406.148 54.662C405.236 54.1047 404.489 53.37 403.906 52.458C403.323 51.546 403.032 50.3807 403.032 48.962C403.032 47.518 403.412 46.2007 404.172 45.01C404.957 43.794 406.135 42.8313 407.706 42.122C409.302 41.3873 411.316 41.02 413.748 41.02C415.344 41.02 416.927 41.2227 418.498 41.628C420.069 42.0333 421.437 42.616 422.602 43.376L421.044 47.214C419.853 46.5047 418.625 45.9853 417.358 45.656C416.091 45.3013 414.875 45.124 413.71 45.124C412.342 45.124 411.227 45.2887 410.366 45.618C409.53 45.9473 408.909 46.378 408.504 46.91C408.124 47.442 407.934 48.05 407.934 48.734C407.934 49.5447 408.213 50.2033 408.77 50.71C409.353 51.1913 410.1 51.5713 411.012 51.85C411.949 52.1287 412.988 52.4073 414.128 52.686C415.268 52.9393 416.395 53.2307 417.51 53.56C418.65 53.8893 419.676 54.32 420.588 54.852C421.525 55.384 422.273 56.106 422.83 57.018C423.413 57.93 423.704 59.0827 423.704 60.476C423.704 61.8947 423.311 63.212 422.526 64.428C421.766 65.6187 420.588 66.5813 418.992 67.316C417.396 68.0253 415.382 68.38 412.95 68.38ZM433.627 68V45.58H424.811V41.4H447.383V45.58H438.567V68H433.627ZM445.993 68L457.963 41.4H462.827L474.835 68H469.667L459.369 44.022H461.345L451.085 68H445.993ZM451.503 61.844L452.833 57.968H467.197L468.527 61.844H451.503Z" fill="white"/>
<circle cx="53" cy="53" r="53" fill="#FF0909"/>
<path d="M82.1031 52.9998L38.693 78.2696L38.5138 28.0405L82.1031 52.9998Z" fill="white"/>
</svg>
