<?xml version="1.0" encoding="utf-8"?>
<!-- Generator: Adobe Illustrator 26.0.0, SVG Export Plug-In . SVG Version: 6.00 Build 0)  -->
<svg version="1.1" id="Camada_1" xmlns="http://www.w3.org/2000/svg" xmlns:xlink="http://www.w3.org/1999/xlink" x="0px" y="0px"
	 viewBox="0 0 76.29 16.99" style="enable-background:new 0 0 76.29 16.99;" xml:space="preserve">
<style type="text/css">
	.st0{fill:#E62B25;}
	.st1{fill:#FEFDFD;}
	.st2{fill:#FFFFFF;}
</style>
<g>
	<path class="st0" d="M76.54,7.8c-0.54-4.6-4.03-7.75-8.66-7.75c-19.62-0.01-39.25-0.01-58.87,0c-0.65,0-1.33,0.01-1.96,0.16
		c-4.2,0.98-7.15,4.96-6.71,9c0.5,4.6,3.99,7.81,8.6,7.82c9.83,0.02,19.67,0.01,29.5,0.01c9.69,0,19.39,0,29.08-0.01
		c0.79,0,1.59,0.04,2.38-0.16C74.11,15.8,77.02,11.85,76.54,7.8z M69.63,15.45c-0.49,0.12-1.02,0.15-1.53,0.15
		c-17.83,0.01-35.66,0.01-53.5,0c-0.18,0-0.36-0.02-0.79-0.04c4.1-3.09,5.44-9.37,0.11-14.1c0.44,0,0.75,0,1.06,0
		c17.64,0,35.29-0.01,52.93,0c3.86,0,6.78,2.65,7.23,6.48C75.52,11.26,73.1,14.58,69.63,15.45z"/>
	<path class="st1" d="M6.25,8.5c0-0.75,0.02-1.5-0.01-2.25C6.22,5.43,6.58,5.19,7.27,5.59c1.33,0.78,2.64,1.59,3.95,2.42
		c0.56,0.36,0.46,0.76-0.06,1.08c-1.27,0.79-2.54,1.58-3.83,2.35c-0.77,0.46-1.12,0.2-1.08-0.69C6.28,10.01,6.25,9.25,6.25,8.5z"/>
	<g>
		<path class="st2" d="M24.42,10.42c-0.18,0.09-0.54,0.18-0.99,0.18c-1.06,0-1.86-0.67-1.86-1.9c0-1.18,0.8-1.98,1.97-1.98
			c0.47,0,0.76,0.1,0.89,0.17l-0.12,0.4c-0.18-0.09-0.45-0.16-0.76-0.16c-0.88,0-1.47,0.56-1.47,1.55c0,0.92,0.53,1.51,1.45,1.51
			c0.3,0,0.6-0.06,0.79-0.16L24.42,10.42z"/>
		<path class="st2" d="M25.31,6.78h0.49v3.36h1.61v0.41h-2.09V6.78z"/>
		<path class="st2" d="M28.71,6.78v3.76h-0.49V6.78H28.71z"/>
		<path class="st2" d="M32.94,11.1c-0.51-0.13-1.01-0.28-1.44-0.44c-0.08-0.03-0.16-0.06-0.23-0.06c-0.89-0.03-1.66-0.69-1.66-1.9
			c0-1.21,0.74-1.98,1.75-1.98c1.02,0,1.69,0.79,1.69,1.9c0,0.97-0.45,1.59-1.07,1.8v0.02c0.37,0.09,0.78,0.18,1.1,0.24L32.94,11.1z
			 M32.54,8.65c0-0.75-0.39-1.53-1.19-1.53c-0.82,0-1.22,0.76-1.22,1.57c-0.01,0.8,0.44,1.52,1.19,1.52
			C32.1,10.21,32.54,9.51,32.54,8.65z"/>
		<path class="st2" d="M34.45,6.78v2.23c0,0.84,0.37,1.2,0.88,1.2c0.56,0,0.92-0.37,0.92-1.2V6.78h0.49v2.19
			c0,1.16-0.61,1.63-1.42,1.63c-0.77,0-1.35-0.44-1.35-1.61V6.78H34.45z"/>
		<path class="st2" d="M39.8,8.78h-1.46v1.36h1.63v0.41h-2.12V6.78h2.03v0.41h-1.55v1.19h1.46V8.78z"/>
		<path class="st2" d="M44.29,8.78h-1.46v1.36h1.63v0.41h-2.12V6.78h2.03v0.41h-1.55v1.19h1.46V8.78z"/>
		<path class="st2" d="M47.44,9.36l-0.39,1.18h-0.5l1.28-3.76h0.59l1.28,3.76h-0.52l-0.4-1.18H47.44z M48.67,8.98L48.3,7.9
			c-0.08-0.25-0.14-0.47-0.2-0.69h-0.01c-0.06,0.22-0.12,0.45-0.19,0.68l-0.37,1.09H48.67z"/>
		<path class="st2" d="M50.46,9.95c0.22,0.13,0.54,0.25,0.87,0.25c0.5,0,0.79-0.26,0.79-0.64c0-0.35-0.2-0.55-0.71-0.75
			c-0.61-0.22-0.99-0.54-0.99-1.07c0-0.59,0.49-1.02,1.22-1.02c0.39,0,0.66,0.09,0.83,0.18l-0.13,0.4
			c-0.12-0.07-0.37-0.18-0.71-0.18c-0.51,0-0.71,0.31-0.71,0.56c0,0.35,0.23,0.52,0.75,0.73c0.64,0.25,0.96,0.55,0.96,1.11
			c0,0.58-0.43,1.08-1.32,1.08c-0.36,0-0.76-0.11-0.96-0.24L50.46,9.95z"/>
		<path class="st2" d="M53.49,9.95c0.22,0.13,0.54,0.25,0.87,0.25c0.5,0,0.79-0.26,0.79-0.64c0-0.35-0.2-0.55-0.71-0.75
			c-0.61-0.22-0.99-0.54-0.99-1.07c0-0.59,0.49-1.02,1.22-1.02c0.39,0,0.66,0.09,0.83,0.18l-0.13,0.4
			c-0.12-0.07-0.37-0.18-0.71-0.18c-0.51,0-0.71,0.31-0.71,0.56c0,0.35,0.23,0.52,0.75,0.73c0.64,0.25,0.96,0.55,0.96,1.11
			c0,0.58-0.43,1.08-1.32,1.08c-0.36,0-0.76-0.11-0.96-0.24L53.49,9.95z"/>
		<path class="st2" d="M57.07,6.78v3.76h-0.49V6.78H57.07z"/>
		<path class="st2" d="M58.13,9.95c0.22,0.13,0.54,0.25,0.87,0.25c0.5,0,0.79-0.26,0.79-0.64c0-0.35-0.2-0.55-0.71-0.75
			c-0.61-0.22-0.99-0.54-0.99-1.07c0-0.59,0.49-1.02,1.22-1.02c0.39,0,0.66,0.09,0.83,0.18L60,7.3c-0.12-0.07-0.37-0.18-0.71-0.18
			c-0.51,0-0.71,0.31-0.71,0.56c0,0.35,0.23,0.52,0.75,0.73c0.64,0.25,0.96,0.55,0.96,1.11c0,0.58-0.43,1.08-1.32,1.08
			c-0.36,0-0.76-0.11-0.96-0.24L58.13,9.95z"/>
		<path class="st2" d="M61.94,7.2H60.8V6.78h2.79V7.2h-1.15v3.35h-0.49V7.2z"/>
		<path class="st2" d="M64.47,9.36l-0.39,1.18h-0.5l1.28-3.76h0.59l1.28,3.76h-0.52l-0.4-1.18H64.47z M65.7,8.98L65.34,7.9
			c-0.08-0.25-0.14-0.47-0.2-0.69h-0.01c-0.06,0.22-0.12,0.45-0.19,0.68l-0.37,1.09H65.7z"/>
	</g>
</g>
</svg>
