<?xml version="1.0" encoding="utf-8"?>
<!-- Generator: Adobe Illustrator 27.5.0, SVG Export Plug-In . SVG Version: 6.00 Build 0)  -->
<svg version="1.1" id="Camada_1" xmlns="http://www.w3.org/2000/svg" xmlns:xlink="http://www.w3.org/1999/xlink" x="0px" y="0px"
	 viewBox="0 0 231.7 94.9" style="enable-background:new 0 0 231.7 94.9;" xml:space="preserve">
<style type="text/css">
	.st0{fill:#FFFFFF;}
	.st1{fill:#FF0000;}
</style>
<path class="st0" d="M192.7,10.2c-0.1,0.5,0.1,0.8,0.5,1c2.2,1.1,2.6,3.1,2.6,5.2c0.1,2,0,2,1.8,2.6c2.2,0.7,3.1,2.3,3.8,4.3
	c0.6,2.1,0,3.9-1.2,5.5c-1,1.3-2.6,1.9-4.2,2.3c-0.3,0.1-0.6-0.2-0.8,0.3c-0.4,1.4-1.7,2-2.7,2.7s-4.1,0.4-5.3-0.6
	c-0.5-0.5-1.3-0.9-1.5-1.5c-0.4-1-1.1-1-1.9-0.9c-4.9,0.2-9.8,0.5-14.6,1.4c-5.2,0.9-10.2,2.6-15.1,4.6c-0.4,0.2-0.9,0.4-0.9,0.8
	c-0.1,0.5,0.5,0.6,0.9,0.9c1.9,1.5,3.9,3.1,5.4,5c1.6,2,3.2,4,4.6,6.1c2.4,3.4,4.2,7.1,5.9,10.9c1.8,4.1,2.9,8.5,3.8,12.9
	c0.6,2.9,0.9,5.9,1.1,8.8c0.1,2.2,0.3,4.4,0.3,6.7c0,2.3-1.3,4-3.6,4.8c-2.6,0.9-5.6-1.5-5.6-3.8c0-2.4-0.1-4.8-0.3-7.1
	c-0.5-6.7-1.8-13.2-4.4-19.4c-1.8-4.1-4-8-6.8-11.5c-2.5-3.2-5.8-5.8-8.9-8.4c-2.4-2-4.3-1.1-6.5-0.1c-2.9,1.3-6,2-9.2,2.6
	c-2.1,0.4-4.3,0.6-6.5,0.9c-5,0-9.9,0-14.9,0c-3.4-0.2-6.8-0.8-10.1-1.6c-3-0.7-5.8-2-8.6-3.2c-1.3-0.6-1.9,0.2-2.7,0.7
	c-1.3,0.8-2.6,1.5-3.6,2.6c-1.1,1.3-2.8,1.9-3.7,3.5c-0.6,1.1-1.6,1.7-2.4,2.7c-1.3,1.7-2.7,3.5-3.8,5.4c-1.9,3.3-3.6,6.7-4.7,10.3
	c-0.9,2.8-1.5,5.6-2,8.5c-0.7,4.4-0.8,8.8-1,13.3c-0.1,3.9-3.8,5.6-6.8,4c-1.4-0.7-2.4-2-2.3-3.7c0.1-2.6-0.2-5.2,0.1-7.8
	c0.5-5,1.1-9.9,2.6-14.7c1.2-3.9,2.6-7.7,4.5-11.3c2-3.8,4.3-7.4,7.1-10.6c2.2-2.5,4.6-4.9,7.2-7c0.9-0.7-0.1-0.8-0.3-0.9
	c-3.6-1.5-7.3-2.9-11.1-3.9c-4.1-1-8.3-1.7-12.5-2c-2.4-0.2-4.8-0.4-7.2-0.5c-0.6,0-0.9,0.2-1.1,0.7c-1.5,3-6.1,3.7-8.5,1.1
	c-0.9-1-1.7-1.6-3-2.1c-4.1-1.4-5.6-6.1-3.4-9.4c1-1.4,2.2-2.6,4-2.8c0.5,0,0.8-0.3,0.8-0.9c0-1-0.1-2,0-3c0.2-1.5,1.2-2.6,2.4-3.5
	c0.3-0.2,0.5-0.4,0.5-0.7c1.6-0.5,3.3-0.1,5-0.2c-0.2,0.5,0.2,0.8,0.5,0.9c2.3,1.4,2.7,3.6,2.6,5.9c0,1.1,0.3,1.3,1.3,1.3
	c5.2-0.1,10.4,0.1,15.6-0.1c3.9-0.2,7.9-0.2,11.8-0.9c2.3-0.4,4.6-0.4,6.9-0.8c3-0.5,6-0.9,9-1.3c3.1-0.5,6.2-1,9.3-1.3
	c2.9-0.3,5.7-1,8.6-1.1c2.7-0.1,5.3-0.6,8-0.1c1.6,0.3,3.3,0.1,5,0.3c1.8,0.2,3.6,0.5,5.3,0.6c1,0.1,2.1,0.1,3.1,0.2
	c1.1,0.1,2.2,0.5,3.4,0.7c2.5,0.3,5.1,0.7,7.6,1.1c2,0.3,3.9,0.7,5.9,0.9c1.4,0.2,2.9,0.4,4.3,0.6c3,0.3,5.9,0.7,8.9,0.9
	c1.4,0.1,2.8,0.2,4.1,0.2c6.2,0.1,12.4,0,18.6,0c0.9,0,1.3-0.1,1.2-1.1c-0.3-2.7,0.4-4.9,2.8-6.4c0.2-0.1,0.3-0.3,0.3-0.6
	C189.5,10.2,191.1,10.2,192.7,10.2z"/>
<path class="st1" d="M108.4,47.1c5,0,9.9,0,14.9,0c0,1.1,0.1,2.2,0,3.2c-0.1,0.8,0.2,1.1,1,1.1c2.6-0.1,5.1,0,7.7,0
	c2.4-0.1,4.9,2,5,4.9c0.1,7.6,0,15.3,0,22.9c0,2.4-2.6,4.8-5.1,4.8c-10.6,0-21.3,0-31.9,0c-2.7,0-5.2-2.4-5.2-5.2
	c0-7.5-0.1-15,0-22.5c0-2.6,2.3-4.9,5-4.9c2.6,0,5.1,0,7.7,0c0.9,0,1.1-0.2,1-1.1C108.4,49.3,108.4,48.2,108.4,47.1z M115.9,81.9
	c8.5,0.1,14.6-6.7,14.5-14.5c-0.1-8-6.1-14.4-14.7-14.4c-7.9,0-13.8,6.4-14.3,13.3C100.7,75.5,108.6,82.3,115.9,81.9z"/>
<path class="st1" d="M43.9,10.2c-1.7,0.1-3.4-0.3-5,0.2c0.1-0.9-0.3-1-1.1-1c-11.6,0-23.1,0-34.7,0.1C1.2,9.5,0,8.3,0,7
	c-0.1-1.2,0.9-2.8,3.1-2.8c1.2,0,2.4,0,3.6,0c10.4,0,20.7,0,31.1,0c0.8,0,1.1-0.2,1.3-0.9c0.3-1.2,1.2-1.8,2.4-1.8
	c1.3,0,2.1,0.6,2.4,1.8c0.2,0.7,0.6,0.9,1.4,0.9c11.4,0,22.8,0,34.2,0c1.8,0,2.9,0.6,3.3,2c0.6,1.7-0.6,3.3-2.3,3.3
	c-4.9,0-9.8,0-14.8,0c-6.8,0-13.7,0-20.5,0C44.5,9.4,44.1,9.5,43.9,10.2z"/>
<path class="st1" d="M192.7,10.2c-1.6,0-3.2,0-4.8,0c-0.1-0.7-0.6-0.8-1.3-0.8c-11.6,0-23.1,0-34.7,0c-1.9,0-3.2-1-3.2-2.5
	s1.5-2.7,3.2-2.7c2.4,0,4.7,0,7.1,0c9.2,0,18.3,0,27.5,0c0.8,0,1.1-0.2,1.3-0.9c0.4-1.3,1.2-1.8,2.5-1.8c1,0,2.3,0.8,2.4,1.9
	c0.1,1,0.7,0.8,1.2,0.8c11.4,0,22.8,0,34.2,0c1.1,0,2.2,0.2,3,1.2c0.8,0.9,0.7,1.8,0.3,2.7c-0.5,0.9-1.2,1.4-2.4,1.4
	c-11.7,0-23.3,0-35,0C193.4,9.4,192.9,9.4,192.7,10.2z"/>
<path class="st1" d="M127.9,67.5c0.5,6-5.6,12.4-12.6,12c-5.6-0.3-11.9-5.5-11.4-12.8c0.4-6.3,5.2-11.3,12-11.4
	C122.2,55.2,128.1,60.3,127.9,67.5z M125.7,67.5c0.1-5.6-4.5-9.6-9.2-9.9c-6.3-0.4-10.3,4.6-10.5,9.5c-0.2,5.8,4.5,10.2,9.8,10.2
	C121.2,77.3,125.8,73,125.7,67.5z"/>
<path class="st1" d="M109.5,66.7c2,1.3,3.9,1.3,5.1,0c1.5-1.6,1.4-3.4-0.3-5.3c2.9-0.7,5.7,0.3,7.1,2.7c1.7,2.9,1.3,5.4-0.8,8
	c-1.6,2-5,2.5-7.4,1.2C110.8,72.1,109.2,69.7,109.5,66.7z"/>
</svg>
