<?xml version="1.0" encoding="utf-8"?>
<!-- Generator: Adobe Illustrator 27.5.0, SVG Export Plug-In . SVG Version: 6.00 Build 0)  -->
<svg version="1.1" id="Camada_1" xmlns="http://www.w3.org/2000/svg" xmlns:xlink="http://www.w3.org/1999/xlink" x="0px" y="0px"
	 viewBox="0 0 304 208" style="enable-background:new 0 0 304 208;" xml:space="preserve">
<style type="text/css">
	.st0{fill:#FFFFFF;}
	.st1{fill:#ED1C24;}
</style>
<path class="st0" d="M110.8,203.2c-2.4-0.9-3.4-2.6-3.3-5.3c0.2-5.3-0.1-10.6,0.1-15.9c0.7-18.3,9.5-31.3,25.8-39.4
	c1.5-0.7,1.6-1,0.2-2c-10.2-7.5-14.8-20.3-11.6-32.8c3.1-12,13.5-21.2,25.9-22.8c17.2-2.3,33.3,10.4,34.9,27.6
	c1.1,11.6-3.3,20.9-12.4,28c-1.3,1-1.3,1.2,0.2,2c16.3,8.1,25.1,21.2,25.8,39.4c0.2,5.3-0.1,10.6,0.1,15.9c0.1,2.6-0.9,4.3-3.3,5.3
	C165.7,203.2,138.2,203.2,110.8,203.2z M151.9,194.9c11.2,0,22.4,0,33.6,0c0.5,0,1,0,1.6,0c0.9,0,1.3-0.4,1.3-1.3
	c-0.1-5.5,0.4-11-0.5-16.4c-3-19-20.8-32.9-41-30.2c-14.2,1.9-26.8,13.2-30.1,27.2c-1.4,6.1-1,12.3-1.1,18.5
	c-0.1,1.9,0.6,2.3,2.3,2.3C129.2,194.9,140.6,194.9,151.9,194.9z M151.8,138.3c12.8,0,22.9-10,22.9-22.6
	c0.1-12.6-10.2-22.9-22.8-22.9c-12.6,0-22.8,10.2-22.8,22.8C129.2,128.3,139.3,138.3,151.8,138.3z"/>
<path class="st1" d="M52.6,129.5c1.1-6.2,3-12.1,6.3-17.5c4.7-7.5,11-13.1,18.9-17c2.1-1,2.2-1,0.3-2.5C70.2,86.4,66,78.2,65.9,68.3
	C65.7,51.6,78,39.2,93,37.2c15.8-2.1,31.8,8.7,34.5,25.8c1.9,12-2.3,21.8-11.7,29.5c-1.9,1.6-2,1.5,0.2,2.6c0.9,0.4,1.8,0.8,2.6,1.3
	c2.1,1.2,2.8,3.5,1.7,5.5c-1,2-3.4,2.7-5.5,1.7c-3.9-2-7.9-3.5-12.2-4.2c-19.1-3.2-37.9,9.9-41.3,28.9c-1,5.7-0.7,11.4-0.8,17.2
	c0,1,0.4,1.6,1.5,1.6c0.6,0,1.1,0,1.8,0c14.3,0,28.7,0,43.1,0c1.1,0,2.3,0.1,3.5,0.3c2,0.4,3.3,2.2,3.3,4c-0.1,2-1.7,3.7-3.7,3.9
	c-0.5,0.1-1,0.1-1.6,0.1c-16.9,0-33.9,0-50.8,0.1c-2.2,0-3.8-0.6-4.9-2.5C52.6,145.1,52.6,137.3,52.6,129.5z M96.9,45.2
	c-12.7,0-22.8,10.1-22.9,22.7c0,12.6,10.2,22.8,22.8,22.8c12.7,0,22.9-10.2,22.8-22.9C119.6,55.3,109.4,45.2,96.9,45.2z"/>
<path class="st1" d="M251.4,152.8c-1,1.6-2.3,2.5-4.3,2.5c-17.3-0.1-34.7,0-52-0.1c-3.4,0-5.4-2.7-4.3-5.5c0.5-1.3,1.5-2.3,3-2.5
	c1.1-0.2,2.3-0.3,3.5-0.3c14.5,0,29.1,0,43.7,0c2.6,0,2.6,0,2.6-2.6c0-6,0.2-12-1.1-17.9c-3.5-15.5-18.2-27.3-34.1-27.6
	c-6.7-0.1-12.9,1.3-18.8,4.4c-2,1-3.8,0.7-5.1-0.7c-1.2-1.2-1.4-3.4-0.5-4.9c0.7-1.1,1.8-1.6,2.9-2.2c3.3-1.7,3.3-1.7,0.5-4
	c-9.4-7.8-13.4-20.8-9.8-32.6c3.5-11.9,13.8-20.5,26.1-21.9c17.4-2,33,10.5,34.5,27.8c1,11.3-3.2,20.4-12,27.5
	c-1.9,1.5-1.9,1.4,0.3,2.5c13.8,6.9,22.1,18,24.9,33.1c0.1,0.5,0.2,1,0.4,1.5C251.4,137.3,251.4,145.1,251.4,152.8z M184.3,67.9
	c0,12.6,10.2,22.7,22.8,22.7c12.6,0,22.8-10.2,22.8-22.8c0-12.6-10.2-22.7-22.9-22.7C194.3,45.2,184.3,55.3,184.3,67.9z"/>
<path class="st0" d="M151.9,66.9c-17-0.1-31.2-14.1-31-31c0.2-17.3,13.7-30.9,31.2-31c17-0.1,31,14.1,31,31.1
	C183.1,52.8,168.8,66.9,151.9,66.9z M151.9,58.6c12.7,0,22.8-10.1,22.8-22.7c0-12.6-10.2-22.8-22.8-22.8
	c-12.6,0-22.8,10.1-22.8,22.7C129.2,48.4,139.3,58.5,151.9,58.6z"/>
</svg>
