<?xml version="1.0" encoding="utf-8"?>
<!-- Generator: Adobe Illustrator 27.5.0, SVG Export Plug-In . SVG Version: 6.00 Build 0)  -->
<svg version="1.1" id="Camada_1" xmlns="http://www.w3.org/2000/svg" xmlns:xlink="http://www.w3.org/1999/xlink" x="0px" y="0px"
	 viewBox="0 0 304 208" style="enable-background:new 0 0 304 208;" xml:space="preserve">
<style type="text/css">
	.st0{fill:#FFFFFF;}
	.st1{fill:#FF0000;}
</style>
<path class="st0" d="M163.9,166.8c-17.2,0-34.4-0.1-51.5,0.1c-3.1,0-4-0.9-4-4c0.1-21.9,0.1-43.8,0-65.7c0-3.1,0.9-4.1,4-4.1
	c34.4,0.1,68.7,0.1,103.1,0c2.9,0,3.9,0.9,3.9,3.9c-0.1,22-0.1,44,0,66c0,3-0.9,3.9-3.9,3.9C198.3,166.7,181.1,166.8,163.9,166.8z
	 M183.2,137c0-7.9-0.1-15.8,0-23.7c0-2.3-0.5-3.3-3.1-3.3c-10.6,0.1-21.2,0.1-31.8,0c-2.2,0-3.1,0.6-3.1,2.9
	c0.1,15.8,0.1,31.7,0,47.5c0,2.4,0.9,3.2,3.2,3.2c10.5-0.1,21-0.1,31.5,0c2.7,0,3.3-1.1,3.3-3.5C183.1,152.4,183.2,144.7,183.2,137z
	 M212.8,128.7c0-5.2-0.1-10.5,0-15.7c0-2-0.5-3-2.8-3c-5.9,0.1-11.7,0.1-17.6,0c-2.2,0-2.8,0.8-2.8,2.9c0.1,10.5,0.1,21,0,31.5
	c0,2.3,0.9,3,3.1,3c5.7-0.1,11.3-0.1,17,0c2.5,0.1,3.2-0.9,3.1-3.3C212.7,139,212.8,133.8,212.8,128.7z M138.3,128.4L138.3,128.4
	c0-5.4,0-10.7,0-16.1c0-1.7-0.4-2.4-2.2-2.4c-6,0.1-11.9,0.1-17.9,0c-2,0-2.7,0.8-2.7,2.7c0,10.6,0.1,21.2,0,31.8
	c0,2.1,0.8,2.9,2.9,2.9c5.6-0.1,11.1-0.1,16.7,0c2.4,0.1,3.3-0.8,3.3-3.2C138.2,138.9,138.3,133.7,138.3,128.4z"/>
<path class="st0" d="M163.9,61.5c17.1,0,34.1,0,51.2,0c4.1,0,4.1,0.1,4.2,4.1c0,2.9-0.1,5.8,0,8.6c0.1,2.6-1,3.6-3.5,3.4
	c-0.6,0-1.2,0-1.9,0c-33.5,0-67.1,0-100.6,0c-5,0-5,0-5-5.1c0-2.7,0.1-5.4,0-8c-0.1-2.3,0.9-3.1,3.1-3.1c7.3,0.1,14.6,0,21.9,0
	C143.6,61.5,153.8,61.5,163.9,61.5z"/>
<path class="st1" d="M163.3,92.1c-18.6,0-37.3,0-55.9,0c-3.8,0-3.8,0-2.6-3.6c0.9-2.6,2-5.2,2.8-7.9c0.6-2.1,1.8-2.6,3.9-2.6
	c9.4,0.1,18.7,0,28.1,0c25.3,0,50.6,0,76-0.1c2.7,0,4.2,0.7,4.8,3.5c0.5,2.5,1.3,5,2.3,7.3c1.1,2.7,0.2,3.3-2.5,3.3
	C201.2,92.1,182.2,92.1,163.3,92.1z"/>
</svg>
