<?xml version="1.0" encoding="utf-8"?>
<!-- Generator: Adobe Illustrator 27.5.0, SVG Export Plug-In . SVG Version: 6.00 Build 0)  -->
<svg version="1.1" id="Camada_1" xmlns="http://www.w3.org/2000/svg" xmlns:xlink="http://www.w3.org/1999/xlink" x="0px" y="0px"
	 viewBox="0 0 304 208" style="enable-background:new 0 0 304 208;" xml:space="preserve">
<style type="text/css">
	.st0{fill:#FFFFFF;}
	.st1{fill:#FF0000;}
</style>
<path class="st0" d="M124.3,108.9c35.5-1.5,68.7-11,99.1-29.5C253.8,61,277.9,36.4,296,5.8c0.5,0.5,0.3,1,0.3,1.4
	c0.3,15.5-1.7,30.8-5.1,45.9c-3.1,13.9-7.5,27.4-13.4,40.3c-4.8,10.6-10.7,20.5-17.3,30.1c-6.5,9.5-14,18.1-22.3,26.1
	c-11,10.5-23.1,19.5-36.3,27c-11.5,6.6-23.6,11.8-36.2,15.8c-8.6,2.7-17.3,4.9-26.2,6.4c-1.2,0.2-2.4,0.7-3.7,0.6
	c20.5-10.3,30.9-26.7,28.1-49.6C161.2,126.8,146.4,114,124.3,108.9z"/>
<path class="st1" d="M45.9,163.2c2.9-1.2,4.4-3.4,4.4-6.2c0.1-2.8-1.4-4.9-3.9-6.3c0.4-0.5,0.9-0.4,1.3-0.4c15,0.4,30.1,0,45.1,0.3
	c12.9,0.3,25.8,0.1,38.7,0.2c2.7,0,5.2,0.5,7,2.9c2.7,3.6,0.7,9.1-3.8,10c-0.9,0.2-1.9,0.3-2.9,0.3c-17.7-0.1-35.4-0.2-53.1-0.4
	c-10.3-0.1-20.7,0-31-0.1C47.3,163.4,46.7,163.5,45.9,163.2z"/>
<path class="st0" d="M86,192.1c12.3,7.9,25.4,9.2,39.1,4.3c9.1-3.2,16-9.3,21.1-17.4c9.5-15.1,8.9-36.4-4.1-51
	c-7-8-15.8-12.9-26.3-14.3c-10.4-1.3-20.3,0.5-29.2,6.4c12.6-10.5,37.2-15.6,56.8,0.5c20,16.5,23.2,45.1,6.1,65.1
	C131.8,206.7,103.7,206.2,86,192.1z"/>
<path class="st1" d="M57.9,183.6c2.5-1.6,4-3.6,3.9-6.7c-0.1-3-1.7-4.9-4.6-6.2c1-0.4,1.7-0.1,2.4-0.1c14.6,0.3,29.2,0.2,43.9,0.3
	c0.7,0,1.5,0.1,2.2,0.2c3.9,0.5,6.3,3.1,6.2,6.8c-0.1,3.3-3,6-6.7,6.1c-3.7,0.1-7.4,0.1-11.1,0c-11.8-0.2-23.6-0.4-35.4-0.3
	C58.3,183.6,58.1,183.6,57.9,183.6z"/>
<path class="st1" d="M68,142.2c2.9-1.1,4.3-3.3,4.4-6.1c0.1-2.8-1.3-5-3.9-6.2c0.1-0.4,0.3-0.4,0.5-0.4c7.8,0,15.7,0,23.5,0.1
	c7.7,0.2,15.3,0.1,23,0.2c3.7,0,6.4,2.2,6.9,5.5c0.6,4.2-2.3,7.6-6.8,7.6c-6.9-0.1-13.8-0.3-20.7-0.2c-4.5,0-9,0-13.5,0
	c-4.2-0.1-8.3-0.3-12.5,0C68.6,142.6,68.3,142.7,68,142.2z"/>
<path class="st0" d="M34.5,158.7c-3.2,0-6.3,0-9.5,0c-1.1,0-1.8,0.3-2.3,1.4c-1.6,3.5-5.5,5.3-9,4.3c-3.7-1.1-6-4.7-5.5-8.6
	c0.4-3,3.2-5.7,6.4-6.4c2.7-0.5,6.4,1.1,7.7,3.9c0.8,1.8,1.9,2.1,3.7,2.1c5.9-0.1,11.9,0,17.9,0c0.4,0,0.8,0,1.2,0
	c1.1,0.1,1.5,0.8,1.6,1.8c0.1,1-0.5,1.6-1.5,1.6c-2.3,0-4.7,0-7,0C36.9,158.6,35.7,158.6,34.5,158.7
	C34.5,158.6,34.5,158.7,34.5,158.7z M20,157c0-2.5-1.7-4.1-4.2-4.1c-2.3,0-4.2,1.9-4.2,4.2c0,2.2,2,4.1,4.2,4.2
	C18,161.3,20,159.3,20,157z"/>
<path class="st0" d="M58.7,137.9c-2.3,0-4.7,0-7,0c-1,0-1.5,0.3-1.9,1.2c-1.8,3.7-5.1,5.3-8.8,4.4c-2.9-0.7-5.4-3.4-5.8-6.4
	c-0.4-3.1,1.1-6.1,3.9-7.6c2.7-1.5,6-1.3,8.4,0.7c1,0.8,1.9,1.7,2.2,2.9c0.3,1,0.9,1.1,1.8,1.1c4.5,0,8.9,0,13.4,0
	c0.7,0,1.5,0.1,2.2,0.2c0.8,0.1,1.3,0.7,1.3,1.6c0,0.9-0.4,1.5-1.4,1.7c-1.6,0.3-3.2,0.1-4.9,0.1C61.1,137.9,59.9,137.9,58.7,137.9z
	 M47,136.2c0-2.4-1.8-4.2-4.3-4.3c-2.3,0-4.1,1.9-4.2,4.2c0,2.2,1.9,4.2,4.1,4.2C45.1,140.4,47,138.6,47,136.2z"/>
<path class="st0" d="M52.1,178.9c-1.1,0-2.2,0.1-3.2,0c-1.1-0.1-1.6,0.3-2.1,1.3c-2.6,5.6-9.6,6.3-13.3,1.3
	c-2.7-3.7-1.1-9.5,3.2-11.3c4.1-1.7,8.2-0.2,10.2,3.9c0.5,1,1.1,1.4,2.2,1.4c2.2-0.1,4.4,0,6.6,0c0.8,0,1.5,0.1,2,0.8
	c0.7,1,0.1,2.5-1.2,2.6C55,179,53.6,178.9,52.1,178.9C52.1,178.9,52.1,178.9,52.1,178.9z M39.8,181.3c2.5,0,4.2-1.7,4.2-4.1
	c0-2.3-1.7-4-4-4c-2.4,0-4.4,1.9-4.4,4.2C35.6,179.4,37.6,181.3,39.8,181.3z"/>
</svg>
