<?xml version="1.0" encoding="utf-8"?>
<!-- Generator: Adobe Illustrator 27.5.0, SVG Export Plug-In . SVG Version: 6.00 Build 0)  -->
<svg version="1.1" id="Camada_1" xmlns="http://www.w3.org/2000/svg" xmlns:xlink="http://www.w3.org/1999/xlink" x="0px" y="0px"
	 viewBox="0 0 158 124.9" style="enable-background:new 0 0 158 124.9;" xml:space="preserve">
<style type="text/css">
	.st0{fill:#FFFFFF;}
	.st1{fill:#FF0000;}
</style>
<path class="st0" d="M59.2,117.3c-13.5,0-27.1,0-40.6,0c-3.7,0-6.8-1.4-9.5-3.9c-1.6-1.5-2.9-3.3-3.7-5.2c-0.6-1.4-0.9-3.1-0.9-4.7
	c0-20,0-40,0-60c0-4.4,2-7.9,5.5-10.7c1.6-1.3,3.5-2.2,5.5-2.7c0.9-0.2,1.9-0.5,2.9-0.5c27.2,0,54.3,0,81.5,0c3.4,0,6.5,1.3,9.2,3.5
	c2.1,1.8,3.5,4,4.5,6.5c0.7,1.8,0.8,3.7,0.8,5.6c0.1,4,0,8,0,11.9c0,2.5,0,5.1,0,7.6c0,4.9,0.1,9.9,0,14.8c-0.1,2.7,0,5.5-0.1,8.2
	c-0.1,2.2,0,4.4,0.1,6.7c0.1,2.5,0,4.9,0,7.4c-0.1,5.3-2,9.8-6.4,13c-2.3,1.6-5,2.6-7.8,2.6C86.5,117.3,72.9,117.3,59.2,117.3z
	 M40.6,73.6L40.6,73.6c6.2,0,12.4,0,18.6,0c2.4,0,3.9-1.6,3.9-3.9c0-7.2-0.1-14.4,0-21.6c0-2.3-1.9-4.1-4.1-4.1c-12,0-24,0-36.1,0
	c-0.4,0-0.7,0-1.1,0c-1.3,0.2-2.9,1.7-2.9,2.8c0,7.9,0,15.8,0,23.7c0,1,1.8,2.9,2.7,2.9C28,73.6,34.3,73.6,40.6,73.6z"/>
<path class="st1" d="M151,73.3c0,11.6,0,23.2,0,34.9c0,0.3,0.1,0.7,0,1c-0.1,0.5-0.4,0.8-1,0.5c-4.3-2.2-8.6-4.4-13-6.5
	c-4.2-2-8.2-4.4-12.5-6.2c-0.7-0.3-1.3-0.8-2-1c-0.4-0.1-0.7-0.6-0.7-1.2c0-14.1,0-28.2,0-42.3c0-0.7,0.2-1,0.9-1.3
	c6.1-3,12.2-6.1,18.2-9.2c3.1-1.6,6.3-3.1,9.4-4.7c0.6-0.3,0.7,0,0.8,0.4c0,0.3,0,0.6,0,1C151,50.1,151,61.7,151,73.3z"/>
<path class="st1" d="M36.1,22c1-1.4,2.1-2.7,3-4.1c1.4-2.1,2.9-4.2,4.4-6.2c2-2.5,3.5-5.5,6-7.6c2.8-2.3,6-3.9,9.8-3.9
	c3,0,6,0.1,9,0c2.9-0.1,5.8,0,8.7-0.1c2.9,0,5.9-0.2,8.8,0.1c4.8,0.6,8.7,2.6,11.3,6.8c1.5,2.4,2.1,4.8,2.3,7.5
	c0.2,2.2,0,4.4,0.2,6.5c0,0.7-0.2,1-0.9,1c-4.3,0-8.5,0-12.8,0c-0.7,0-0.9-0.2-0.9-1c0.1-1.8,0-3.6,0-5.4c0-0.8-0.2-1.1-1-1.1
	c-7.7,0-15.5,0-23.2,0c-0.7,0-1.1,0.3-1.5,0.9c-1.5,2-3,3.9-4.6,5.8c-0.3,0.4-0.7,0.7-1.3,0.7c-5.6,0-11.3,0-16.9,0
	C36.5,22.1,36.4,22.1,36.1,22z"/>
<path class="st0" d="M127.8,0.3c3.6,0,7.2,0,10.8,0c1.9,0,3.9,0.2,5.6,1c3.2,1.5,5.5,3.8,6.2,7.4c0.2,1,0.6,1.8,0.5,2.9
	c-0.4,3.7-2,6.6-5.2,8.7c-1.8,1.2-3.9,1.8-6,1.8c-8,0.1-16.1,0-24.1,0c-0.9,0-1.2-0.2-1.2-1.2c0-6.5,0-13,0-19.5
	c0-0.9,0.3-1.1,1.1-1.1C119.6,0.3,123.7,0.3,127.8,0.3z"/>
</svg>
