<?xml version="1.0" encoding="UTF-8"?>
<svg id="Camada_1" data-name="Camada 1" xmlns="http://www.w3.org/2000/svg" viewBox="0 0 452.28 74.49">
  <defs>
    <style>
      .cls-1 {
        fill: #e52421;
      }
    </style>
  </defs>
  <path class="cls-1" d="m0,0h11.72v74.49H0V0Z"/>
  <path class="cls-1" d="m32.82,0l8.31,28.45V0h11.51v74.49h-11.51l-8.31-32.82v15.35h-11.51V0h11.51Z"/>
  <path class="cls-1" d="m96.45,17.9v9.7h-11.51v-9.7c0-.92-.02-1.77-.05-2.56-.04-.78-.21-1.46-.53-2.02-.32-.57-.85-1.01-1.6-1.33s-1.87-.48-3.36-.48-2.61.16-3.36.48c-.75.32-1.28.76-1.6,1.32-.32.57-.5,1.24-.53,2.01-.04.78-.05,1.62-.05,2.54v6.04c0,.99.02,1.86.05,2.6.04.74.23,1.38.59,1.91.35.53.94.94,1.76,1.22.82.28,2.04.42,3.68.42v.11c2.27.07,4.4.37,6.39.91,1.99.53,3.73,1.46,5.22,2.78,1.49,1.32,2.68,3.12,3.57,5.4.89,2.28,1.33,5.16,1.33,8.65v8.76c0,3.49-.44,6.38-1.33,8.65-.89,2.28-2.08,4.08-3.57,5.4-1.49,1.32-3.23,2.26-5.22,2.83-1.99.57-4.12.89-6.39.96h-1.07c-2.27-.07-4.41-.39-6.39-.96-1.99-.57-3.73-1.51-5.22-2.82-1.49-1.31-2.68-3.11-3.57-5.38-.89-2.27-1.33-5.15-1.33-8.63v-9.8h11.51v9.8c0,.92.02,1.76.05,2.5.04.75.21,1.39.53,1.92.32.53.85.96,1.6,1.28.75.32,1.86.52,3.36.59,1.49-.07,2.61-.27,3.36-.59s1.28-.75,1.6-1.28c.32-.53.5-1.17.53-1.92.04-.75.05-1.58.05-2.5v-8.74c0-.92-.02-1.77-.05-2.56-.04-.78-.23-1.46-.59-2.02-.36-.57-.94-.99-1.76-1.28-.82-.28-2.04-.43-3.68-.43-2.27-.07-4.41-.37-6.39-.91-1.99-.53-3.73-1.46-5.22-2.77-1.49-1.31-2.68-3.11-3.57-5.38-.89-2.27-1.33-5.15-1.33-8.63v-6.07c0-3.48.44-6.38,1.33-8.69.89-2.31,2.08-4.12,3.57-5.44,1.49-1.31,3.23-2.25,5.22-2.82,1.99-.57,4.12-.89,6.39-.96h1.07c2.27.07,4.4.39,6.39.96,1.99.57,3.73,1.51,5.22,2.82,1.49,1.32,2.68,3.13,3.57,5.44.89,2.31,1.33,5.21,1.33,8.69Z"/>
  <path class="cls-1" d="m141.1,56.7c0,3.62-.48,6.59-1.44,8.9-.96,2.31-2.25,4.12-3.88,5.44-1.63,1.32-3.51,2.22-5.63,2.72-2.12.5-4.36.75-6.69.75s-4.57-.25-6.69-.75c-2.12-.5-3.98-1.4-5.58-2.72-1.59-1.31-2.85-3.13-3.77-5.44-.92-2.31-1.38-5.28-1.38-8.9V17.9c0-3.69.46-6.7,1.38-9,.92-2.31,2.18-4.12,3.77-5.44,1.59-1.31,3.45-2.22,5.58-2.72,2.12-.5,4.36-.75,6.69-.75s4.57.25,6.69.75c2.12.5,4,1.4,5.63,2.72,1.63,1.32,2.92,3.13,3.88,5.44.96,2.31,1.44,5.31,1.44,9v10.02h-11.51v-10.02c0-.99-.02-1.88-.05-2.66-.04-.78-.23-1.46-.59-2.02-.36-.57-.94-.99-1.76-1.28-.82-.28-2.04-.43-3.68-.43s-2.86.14-3.68.43c-.82.28-1.39.71-1.71,1.28-.32.57-.5,1.24-.53,2.02-.04.78-.05,1.67-.05,2.66v38.79c0,1,.02,1.87.05,2.61.04.75.21,1.4.53,1.97.32.57.89,1,1.71,1.28.82.28,2.04.43,3.68.43s2.86-.14,3.68-.43c.82-.28,1.4-.71,1.76-1.28.35-.57.55-1.23.59-1.97.04-.75.05-1.62.05-2.61v-10.12h11.51v10.12Z"/>
  <path class="cls-1" d="m170.51,47.96c0-.92-.02-1.77-.05-2.56-.04-.78-.23-1.46-.59-2.02-.36-.57-.94-.99-1.76-1.28-.82-.28-2.04-.43-3.68-.43h-2.13v32.82h-11.51V0h12.68c2.41,0,4.69.25,6.82.75,2.13.5,4,1.4,5.59,2.72,1.6,1.32,2.88,3.13,3.84,5.44.96,2.31,1.44,5.31,1.44,9v6.07c0,2.49-.23,4.65-.69,6.5-.46,1.85-1.08,3.45-1.86,4.8,1.07,1.42,1.92,3.14,2.56,5.17.64,2.02.96,4.53.96,7.51v17.74c0,.82.04,1.6.11,2.34.07.75.21,1.6.43,2.56.21.96.53,2.26.96,3.89h-11.62c-.57-1.35-.96-2.41-1.17-3.2-.21-.78-.36-1.53-.43-2.24-.07-.71-.07-1.55,0-2.5.07-.96.11-2.33.11-4.1v-14.49Zm-7.03-17.8c1.56,0,2.77-.14,3.62-.43.85-.28,1.44-.69,1.76-1.23s.5-1.17.53-1.92c.04-.75.05-1.62.05-2.61v-6.07c0-.99-.02-1.88-.05-2.66-.04-.78-.21-1.46-.53-2.02-.32-.57-.91-.99-1.76-1.28-.85-.28-2.06-.43-3.62-.43h-1.17v18.65h1.17Z"/>
  <path class="cls-1" d="m221.56,0v11.51h-16.84v18.65h10.66v11.51h-10.66v15.35h-11.51V0h28.35Zm2.13,62.98v11.51h-30.48v-11.51h30.48Z"/>
  <path class="cls-1" d="m251.4,74.49L233.28,0h11.94l12.04,49.88L269.41,0h11.83l-18.01,74.49h-11.83Z"/>
  <path class="cls-1" d="m310.12,0l18.01,74.49h-11.94l-11.94-49.77-12.15,49.77h-11.94L298.18,0h11.94Z"/>
  <path class="cls-1" d="m337.72,43.69v-8.74h30.8v8.74h-30.8Z"/>
  <path class="cls-1" d="m412.21,17.9v9.7h-11.51v-9.7c0-.92-.02-1.77-.05-2.56-.04-.78-.21-1.46-.53-2.02-.32-.57-.85-1.01-1.6-1.33s-1.87-.48-3.36-.48-2.61.16-3.36.48c-.75.32-1.28.76-1.6,1.32-.32.57-.5,1.24-.53,2.01-.04.78-.05,1.62-.05,2.54v6.04c0,.99.02,1.86.05,2.6.04.74.23,1.38.59,1.91.35.53.94.94,1.76,1.22.82.28,2.04.42,3.68.42v.11c2.27.07,4.4.37,6.39.91,1.99.53,3.73,1.46,5.22,2.78,1.49,1.32,2.68,3.12,3.57,5.4.89,2.28,1.33,5.16,1.33,8.65v8.76c0,3.49-.44,6.38-1.33,8.65-.89,2.28-2.08,4.08-3.57,5.4-1.49,1.32-3.23,2.26-5.22,2.83-1.99.57-4.12.89-6.39.96h-1.07c-2.27-.07-4.41-.39-6.39-.96-1.99-.57-3.73-1.51-5.22-2.82-1.49-1.31-2.68-3.11-3.57-5.38-.89-2.27-1.33-5.15-1.33-8.63v-9.8h11.51v9.8c0,.92.02,1.76.05,2.5.04.75.21,1.39.53,1.92.32.53.85.96,1.6,1.28.75.32,1.86.52,3.36.59,1.49-.07,2.61-.27,3.36-.59s1.28-.75,1.6-1.28c.32-.53.5-1.17.53-1.92.04-.75.05-1.58.05-2.5v-8.74c0-.92-.02-1.77-.05-2.56-.04-.78-.23-1.46-.59-2.02-.36-.57-.94-.99-1.76-1.28-.82-.28-2.04-.43-3.68-.43-2.27-.07-4.41-.37-6.39-.91-1.99-.53-3.73-1.46-5.22-2.77-1.49-1.31-2.68-3.11-3.57-5.38-.89-2.27-1.33-5.15-1.33-8.63v-6.07c0-3.48.44-6.38,1.33-8.69.89-2.31,2.08-4.12,3.57-5.44,1.49-1.31,3.23-2.25,5.22-2.82,1.99-.57,4.12-.89,6.39-.96h1.07c2.27.07,4.4.39,6.39.96,1.99.57,3.73,1.51,5.22,2.82,1.49,1.32,2.68,3.13,3.57,5.44.89,2.31,1.33,5.21,1.33,8.69Z"/>
  <path class="cls-1" d="m450.15,0v11.51h-16.84v18.65h10.66v11.51h-10.66v15.35h-11.51V0h28.35Zm2.13,62.98v11.51h-30.48v-11.51h30.48Z"/>
</svg>