<?xml version="1.0" encoding="utf-8"?>
<!-- Generator: Adobe Illustrator 26.0.0, SVG Export Plug-In . SVG Version: 6.00 Build 0)  -->
<svg version="1.1" id="Camada_1" xmlns="http://www.w3.org/2000/svg" xmlns:xlink="http://www.w3.org/1999/xlink" x="0px" y="0px"
	 viewBox="0 0 604.5 226.75" style="enable-background:new 0 0 604.5 226.75;" xml:space="preserve">
<style type="text/css">
	.st0{fill:#010202;}
	.st1{fill:#070707;stroke:#E52421;stroke-miterlimit:10;}
	.st2{fill:#E30613;}
	.st3{fill:#FFFFFF;}
	.st4{fill:#E52421;}
</style>
<rect x="262.79" y="112.12" width="0.26" height="0.26"/>
<polygon class="st0" points="604.5,228.42 0,227.87 0,7.05 604.5,37.7 "/>
<path class="st1" d="M339.21,126.9l-55.94-0.23c-2.96-0.01-4.41-2.44-3.24-5.43l1.43-3.65c1.17-2.99,4.52-5.4,7.47-5.38l55.94,0.23
	c2.96,0.01,4.41,2.44,3.24,5.43l-1.43,3.65C345.52,124.51,342.17,126.92,339.21,126.9z"/>
<path class="st1" d="M412.29,126.81l-48.28-0.23c-2.55-0.01-3.8-2.44-2.79-5.43l1.23-3.65c1.01-2.99,3.9-5.4,6.45-5.38l48.28,0.23
	c2.55,0.01,3.8,2.44,2.79,5.43l-1.23,3.65C417.73,124.41,414.84,126.82,412.29,126.81z"/>
<g>
	<path class="st2" d="M383.73,121.35c-0.32,0.17-0.64,0.23-1.03,0.23c-0.95,0-1.76-0.69-1.76-1.81c0-1.19,0.83-2.23,2.12-2.23
		c1.01,0,1.69,0.71,1.69,1.67c0,0.87-0.49,1.38-1.03,1.38c-0.23,0-0.45-0.15-0.43-0.51h-0.02c-0.21,0.34-0.47,0.51-0.82,0.51
		c-0.34,0-0.62-0.27-0.62-0.73c0-0.72,0.57-1.38,1.37-1.38c0.25,0,0.47,0.05,0.62,0.12l-0.2,1.05c-0.09,0.44-0.02,0.65,0.17,0.65
		c0.3,0.01,0.63-0.39,0.63-1.06c0-0.84-0.51-1.45-1.41-1.45c-0.95,0-1.74,0.75-1.74,1.93c0,0.97,0.63,1.57,1.49,1.57
		c0.33,0,0.64-0.07,0.88-0.21L383.73,121.35z M383.41,118.84c-0.06-0.02-0.16-0.05-0.29-0.05c-0.51,0-0.93,0.48-0.93,1.05
		c0,0.26,0.13,0.44,0.38,0.44c0.34,0,0.64-0.43,0.71-0.79L383.41,118.84z"/>
	<path class="st2" d="M384.71,121.79c0.24-0.02,0.44-0.08,0.56-0.22c0.14-0.16,0.2-0.38,0.2-1.05v-2.35h0.51v2.54
		c0,0.55-0.09,0.9-0.34,1.16c-0.22,0.23-0.6,0.32-0.87,0.32L384.71,121.79z M386.03,117.38c0,0.17-0.12,0.32-0.32,0.32
		c-0.19,0-0.31-0.15-0.31-0.32c0-0.18,0.13-0.32,0.32-0.32C385.9,117.06,386.03,117.2,386.03,117.38z"/>
	<path class="st2" d="M386.8,119.04c0-0.33-0.01-0.61-0.02-0.87h0.45l0.02,0.55h0.02c0.13-0.38,0.44-0.61,0.78-0.61
		c0.06,0,0.1,0,0.14,0.01v0.48c-0.05-0.01-0.1-0.01-0.17-0.01c-0.36,0-0.61,0.27-0.68,0.65c-0.01,0.07-0.02,0.16-0.02,0.24v1.5
		h-0.51V119.04z"/>
	<path class="st2" d="M388.72,119.08c0-0.36-0.01-0.65-0.02-0.91h0.46l0.03,0.48h0.01c0.2-0.34,0.54-0.54,1-0.54
		c0.68,0,1.19,0.57,1.19,1.42c0,1.01-0.62,1.51-1.28,1.51c-0.38,0-0.7-0.16-0.86-0.44h-0.01v1.53h-0.51V119.08z M389.23,119.83
		c0,0.07,0.01,0.14,0.02,0.21c0.09,0.36,0.4,0.6,0.76,0.6c0.54,0,0.85-0.44,0.85-1.09c0-0.56-0.29-1.04-0.83-1.04
		c-0.35,0-0.67,0.25-0.77,0.63c-0.02,0.07-0.03,0.14-0.03,0.21V119.83z"/>
	<path class="st2" d="M392.03,119.04c0-0.33-0.01-0.61-0.02-0.87h0.45l0.02,0.55h0.02c0.13-0.38,0.44-0.61,0.78-0.61
		c0.06,0,0.1,0,0.14,0.01v0.48c-0.05-0.01-0.1-0.01-0.17-0.01c-0.36,0-0.61,0.27-0.68,0.65c-0.01,0.07-0.02,0.16-0.02,0.24v1.5
		h-0.51V119.04z"/>
	<path class="st2" d="M396.41,119.55c0,1.04-0.72,1.49-1.4,1.49c-0.76,0-1.35-0.55-1.35-1.45c0-0.94,0.62-1.49,1.39-1.49
		C395.86,118.11,396.41,118.69,396.41,119.55z M394.18,119.58c0,0.62,0.35,1.08,0.85,1.08c0.49,0,0.85-0.46,0.85-1.09
		c0-0.47-0.24-1.07-0.85-1.07C394.44,118.49,394.18,119.05,394.18,119.58z"/>
	<path class="st2" d="M399.48,116.86v3.4c0,0.25,0.01,0.53,0.02,0.72h-0.45l-0.03-0.49h-0.01c-0.16,0.31-0.49,0.55-0.95,0.55
		c-0.68,0-1.2-0.57-1.2-1.43c0-0.94,0.58-1.51,1.26-1.51c0.43,0,0.72,0.2,0.85,0.43h0.01v-1.68H399.48z M398.97,119.31
		c0-0.07-0.01-0.15-0.02-0.22c-0.08-0.32-0.35-0.59-0.74-0.59c-0.53,0-0.84,0.46-0.84,1.08c0,0.57,0.28,1.04,0.83,1.04
		c0.34,0,0.65-0.23,0.75-0.61c0.02-0.07,0.03-0.14,0.03-0.22V119.31z"/>
	<path class="st2" d="M402.68,120.21c0,0.29,0.01,0.55,0.02,0.77h-0.45l-0.03-0.46h-0.01c-0.13,0.23-0.43,0.52-0.93,0.52
		c-0.44,0-0.97-0.25-0.97-1.23v-1.64h0.51v1.55c0,0.53,0.17,0.9,0.63,0.9c0.34,0,0.58-0.24,0.67-0.47c0.03-0.07,0.05-0.16,0.05-0.26
		v-1.72h0.51V120.21z"/>
	<path class="st2" d="M404.14,117.36v0.81h0.73v0.39h-0.73v1.51c0,0.35,0.1,0.55,0.39,0.55c0.13,0,0.23-0.02,0.3-0.04l0.02,0.39
		c-0.1,0.04-0.26,0.07-0.46,0.07c-0.23,0-0.43-0.08-0.55-0.22c-0.14-0.15-0.2-0.4-0.2-0.73v-1.53h-0.43v-0.39h0.43v-0.68
		L404.14,117.36z"/>
	<path class="st2" d="M407.96,119.55c0,1.04-0.72,1.49-1.4,1.49c-0.76,0-1.35-0.55-1.35-1.45c0-0.94,0.62-1.49,1.39-1.49
		C407.41,118.11,407.96,118.69,407.96,119.55z M405.73,119.58c0,0.62,0.35,1.08,0.85,1.08c0.49,0,0.85-0.46,0.85-1.09
		c0-0.47-0.24-1.07-0.85-1.07C405.99,118.49,405.73,119.05,405.73,119.58z"/>
	<path class="st2" d="M408.6,119.04c0-0.33-0.01-0.61-0.02-0.87h0.45l0.02,0.55h0.02c0.13-0.38,0.44-0.61,0.78-0.61
		c0.06,0,0.1,0,0.14,0.01v0.48c-0.05-0.01-0.1-0.01-0.17-0.01c-0.36,0-0.61,0.27-0.68,0.65c-0.01,0.07-0.02,0.16-0.02,0.24v1.5
		h-0.51V119.04z"/>
	<path class="st2" d="M412.03,120.98l-0.05-0.35h-0.02c-0.15,0.22-0.46,0.42-0.86,0.42c-0.57,0-0.86-0.4-0.86-0.8
		c0-0.68,0.6-1.05,1.69-1.05v-0.06c0-0.23-0.06-0.65-0.64-0.65c-0.26,0-0.53,0.08-0.73,0.21l-0.12-0.34
		c0.23-0.15,0.57-0.25,0.93-0.25c0.86,0,1.07,0.59,1.07,1.15v1.05c0,0.24,0.01,0.48,0.04,0.67H412.03z M411.95,119.54
		c-0.55-0.01-1.18,0.09-1.18,0.63c0,0.33,0.22,0.49,0.48,0.49c0.37,0,0.6-0.23,0.68-0.47c0.02-0.05,0.02-0.11,0.02-0.16V119.54z"/>
</g>
<g>
	<path class="st2" d="M299.79,121.35c-0.32,0.17-0.64,0.23-1.03,0.23c-0.95,0-1.76-0.69-1.76-1.81c0-1.19,0.83-2.23,2.12-2.23
		c1.01,0,1.69,0.71,1.69,1.67c0,0.87-0.49,1.38-1.03,1.38c-0.23,0-0.45-0.15-0.43-0.51h-0.02c-0.21,0.34-0.47,0.51-0.82,0.51
		c-0.34,0-0.62-0.27-0.62-0.73c0-0.72,0.57-1.38,1.37-1.38c0.25,0,0.47,0.05,0.62,0.12l-0.2,1.05c-0.09,0.44-0.02,0.65,0.17,0.65
		c0.3,0.01,0.63-0.39,0.63-1.06c0-0.84-0.51-1.45-1.41-1.45c-0.95,0-1.74,0.75-1.74,1.93c0,0.97,0.63,1.57,1.49,1.57
		c0.33,0,0.64-0.07,0.88-0.21L299.79,121.35z M299.48,118.84c-0.06-0.02-0.16-0.05-0.29-0.05c-0.51,0-0.93,0.48-0.93,1.05
		c0,0.26,0.13,0.44,0.38,0.44c0.34,0,0.64-0.43,0.71-0.79L299.48,118.84z"/>
	<path class="st2" d="M300.77,121.79c0.24-0.02,0.44-0.08,0.56-0.22c0.14-0.16,0.2-0.38,0.2-1.05v-2.35h0.51v2.54
		c0,0.55-0.09,0.9-0.34,1.16c-0.22,0.23-0.6,0.32-0.87,0.32L300.77,121.79z M302.09,117.38c0,0.17-0.12,0.32-0.32,0.32
		c-0.19,0-0.31-0.15-0.31-0.32c0-0.18,0.13-0.32,0.32-0.32C301.97,117.06,302.09,117.2,302.09,117.38z"/>
	<path class="st2" d="M302.87,119.04c0-0.33-0.01-0.61-0.02-0.87h0.45l0.02,0.55h0.02c0.13-0.38,0.44-0.61,0.78-0.61
		c0.06,0,0.1,0,0.14,0.01v0.48c-0.05-0.01-0.1-0.01-0.17-0.01c-0.36,0-0.61,0.27-0.68,0.65c-0.01,0.07-0.02,0.16-0.02,0.24v1.5
		h-0.51V119.04z"/>
	<path class="st2" d="M304.79,119.08c0-0.36-0.01-0.65-0.02-0.91h0.46l0.03,0.48h0.01c0.2-0.34,0.54-0.54,1-0.54
		c0.68,0,1.19,0.57,1.19,1.42c0,1.01-0.62,1.51-1.28,1.51c-0.38,0-0.7-0.16-0.86-0.44h-0.01v1.53h-0.51V119.08z M305.3,119.83
		c0,0.07,0.01,0.14,0.02,0.21c0.09,0.36,0.4,0.6,0.76,0.6c0.54,0,0.85-0.44,0.85-1.09c0-0.56-0.29-1.04-0.83-1.04
		c-0.35,0-0.67,0.25-0.77,0.63c-0.02,0.07-0.03,0.14-0.03,0.21V119.83z"/>
	<path class="st2" d="M308.09,119.04c0-0.33-0.01-0.61-0.02-0.87h0.45l0.02,0.55h0.02c0.13-0.38,0.44-0.61,0.78-0.61
		c0.06,0,0.1,0,0.14,0.01v0.48c-0.05-0.01-0.1-0.01-0.17-0.01c-0.36,0-0.61,0.27-0.68,0.65c-0.01,0.07-0.02,0.16-0.02,0.24v1.5
		h-0.51V119.04z"/>
	<path class="st2" d="M312.47,119.55c0,1.04-0.72,1.49-1.4,1.49c-0.76,0-1.35-0.55-1.35-1.45c0-0.94,0.62-1.49,1.39-1.49
		C311.93,118.11,312.47,118.69,312.47,119.55z M310.25,119.58c0,0.62,0.35,1.08,0.85,1.08c0.49,0,0.85-0.46,0.85-1.09
		c0-0.47-0.24-1.07-0.85-1.07C310.51,118.49,310.25,119.05,310.25,119.58z"/>
	<path class="st2" d="M315.55,116.86v3.4c0,0.25,0.01,0.53,0.02,0.72h-0.45l-0.03-0.49h-0.01c-0.16,0.31-0.49,0.55-0.95,0.55
		c-0.68,0-1.2-0.57-1.2-1.43c0-0.94,0.58-1.51,1.26-1.51c0.43,0,0.72,0.2,0.85,0.43h0.01v-1.68H315.55z M315.04,119.31
		c0-0.07-0.01-0.15-0.02-0.22c-0.08-0.32-0.35-0.59-0.74-0.59c-0.53,0-0.84,0.46-0.84,1.08c0,0.57,0.28,1.04,0.83,1.04
		c0.34,0,0.65-0.23,0.75-0.61c0.02-0.07,0.03-0.14,0.03-0.22V119.31z"/>
	<path class="st2" d="M318.74,120.21c0,0.29,0.01,0.55,0.02,0.77h-0.45l-0.03-0.46h-0.01c-0.13,0.23-0.43,0.52-0.93,0.52
		c-0.44,0-0.97-0.25-0.97-1.23v-1.64h0.51v1.55c0,0.53,0.17,0.9,0.63,0.9c0.34,0,0.58-0.24,0.67-0.47c0.03-0.07,0.05-0.16,0.05-0.26
		v-1.72h0.51V120.21z"/>
	<path class="st2" d="M320.21,117.36v0.81h0.73v0.39h-0.73v1.51c0,0.35,0.1,0.55,0.39,0.55c0.13,0,0.23-0.02,0.3-0.04l0.02,0.39
		c-0.1,0.04-0.26,0.07-0.46,0.07c-0.23,0-0.43-0.08-0.55-0.22c-0.14-0.15-0.2-0.4-0.2-0.73v-1.53h-0.43v-0.39h0.43v-0.68
		L320.21,117.36z"/>
	<path class="st2" d="M324.02,119.55c0,1.04-0.72,1.49-1.4,1.49c-0.76,0-1.35-0.55-1.35-1.45c0-0.94,0.62-1.49,1.39-1.49
		C323.48,118.11,324.02,118.69,324.02,119.55z M321.8,119.58c0,0.62,0.35,1.08,0.85,1.08c0.49,0,0.85-0.46,0.85-1.09
		c0-0.47-0.24-1.07-0.85-1.07C322.06,118.49,321.8,119.05,321.8,119.58z"/>
	<path class="st2" d="M324.67,119.04c0-0.33-0.01-0.61-0.02-0.87h0.45l0.02,0.55h0.02c0.13-0.38,0.44-0.61,0.78-0.61
		c0.06,0,0.1,0,0.14,0.01v0.48c-0.05-0.01-0.1-0.01-0.17-0.01c-0.36,0-0.61,0.27-0.68,0.65c-0.01,0.07-0.02,0.16-0.02,0.24v1.5
		h-0.51V119.04z"/>
	<path class="st2" d="M328.09,120.98l-0.05-0.35h-0.02c-0.15,0.22-0.46,0.42-0.86,0.42c-0.57,0-0.86-0.4-0.86-0.8
		c0-0.68,0.6-1.05,1.69-1.05v-0.06c0-0.23-0.06-0.65-0.64-0.65c-0.26,0-0.53,0.08-0.73,0.21l-0.12-0.34
		c0.23-0.15,0.57-0.25,0.93-0.25c0.86,0,1.07,0.59,1.07,1.15v1.05c0,0.24,0.01,0.48,0.04,0.67H328.09z M328.01,119.54
		c-0.55-0.01-1.18,0.09-1.18,0.63c0,0.33,0.22,0.49,0.48,0.49c0.37,0,0.6-0.23,0.68-0.47c0.02-0.05,0.02-0.11,0.02-0.16V119.54z"/>
	<path class="st2" d="M331.88,119.55c0,1.04-0.72,1.49-1.4,1.49c-0.76,0-1.35-0.55-1.35-1.45c0-0.94,0.62-1.49,1.39-1.49
		C331.33,118.11,331.88,118.69,331.88,119.55z M329.65,119.58c0,0.62,0.35,1.08,0.85,1.08c0.49,0,0.85-0.46,0.85-1.09
		c0-0.47-0.24-1.07-0.85-1.07C329.91,118.49,329.65,119.05,329.65,119.58z"/>
	<path class="st2" d="M332.57,120.98v-2.42h-0.39v-0.39h0.39v-0.16c0-0.74,0.44-1.22,1.23-1.22c0.26,0,0.57,0.08,0.71,0.19
		l-0.14,0.39c-0.13-0.08-0.34-0.16-0.59-0.16c-0.54,0-0.7,0.38-0.7,0.83v0.14h1.63v2.81h-0.51v-2.42h-1.12v2.42H332.57z"/>
	<path class="st2" d="M337.56,120.87c-0.13,0.07-0.43,0.16-0.8,0.16c-0.85,0-1.4-0.58-1.4-1.43c0-0.86,0.59-1.5,1.51-1.5
		c0.3,0,0.57,0.08,0.71,0.15l-0.11,0.39c-0.13-0.07-0.32-0.13-0.6-0.13c-0.64,0-0.99,0.48-0.99,1.06c0,0.65,0.42,1.05,0.98,1.05
		c0.29,0,0.48-0.07,0.62-0.14L337.56,120.87z"/>
	<path class="st2" d="M338.73,117.38c0,0.17-0.12,0.32-0.32,0.32c-0.18,0-0.31-0.14-0.31-0.32c0-0.18,0.13-0.32,0.32-0.32
		C338.6,117.06,338.73,117.2,338.73,117.38z M338.16,120.98v-2.81h0.51v2.81H338.16z"/>
	<path class="st2" d="M341.07,120.98l-0.05-0.35h-0.02c-0.15,0.22-0.46,0.42-0.86,0.42c-0.57,0-0.86-0.4-0.86-0.8
		c0-0.68,0.6-1.05,1.69-1.05v-0.06c0-0.23-0.06-0.65-0.64-0.65c-0.26,0-0.53,0.08-0.73,0.21l-0.12-0.34
		c0.23-0.15,0.57-0.25,0.93-0.25c0.86,0,1.07,0.59,1.07,1.15v1.05c0,0.24,0.01,0.48,0.04,0.67H341.07z M340.99,119.54
		c-0.55-0.01-1.18,0.09-1.18,0.63c0,0.33,0.22,0.49,0.48,0.49c0.37,0,0.6-0.23,0.68-0.47c0.02-0.05,0.02-0.11,0.02-0.16V119.54z"/>
	<path class="st2" d="M342.31,116.86h0.51v4.12h-0.51V116.86z"/>
</g>
<g>
	<path class="st3" d="M373.45,115.62c0.51,0,1.02,0.01,1.54,0.03c0.29,0.01,0.57,0.03,0.86,0.06c0.13,0.02,0.27,0.03,0.4,0.08
		c0.28,0.11,0.46,0.31,0.54,0.6c0.06,0.21,0.08,0.43,0.1,0.64c0.03,0.35,0.05,0.7,0.04,1.05c0,0.42-0.02,0.83-0.07,1.25
		c-0.02,0.15-0.04,0.31-0.09,0.45c-0.12,0.31-0.34,0.5-0.66,0.57c-0.25,0.05-0.5,0.06-0.75,0.08c-0.46,0.03-0.93,0.04-1.39,0.05
		c-0.64,0.01-1.29,0-1.93-0.02c-0.33-0.01-0.66-0.03-0.98-0.07c-0.13-0.01-0.25-0.03-0.37-0.07c-0.31-0.12-0.5-0.34-0.57-0.66
		c-0.05-0.24-0.08-0.49-0.1-0.74c-0.03-0.35-0.04-0.71-0.03-1.07c0.01-0.35,0.02-0.7,0.07-1.05c0.02-0.16,0.04-0.33,0.09-0.48
		c0.12-0.33,0.36-0.52,0.7-0.58c0.25-0.04,0.5-0.06,0.75-0.07c0.49-0.03,0.97-0.04,1.46-0.05
		C373.18,115.62,373.31,115.62,373.45,115.62z M374.55,118.05c-0.01-0.01-0.02-0.01-0.03-0.02c-0.58-0.34-1.16-0.67-1.74-1.01
		c-0.03-0.02-0.03-0.02-0.03,0.02c0,0.67,0,1.34,0,2.01c0,0.01,0,0.02,0,0.04C373.35,118.75,373.95,118.4,374.55,118.05z"/>
	<path class="st3" d="M375.06,122.09c0.06-0.08,0.12-0.13,0.22-0.15c0.13-0.03,0.24,0.03,0.28,0.16c0.03,0.07,0.04,0.15,0.04,0.23
		c0.01,0.2,0.01,0.41,0,0.61c-0.01,0.07-0.02,0.14-0.05,0.21c-0.04,0.09-0.1,0.15-0.2,0.16c-0.11,0.01-0.21-0.02-0.28-0.12
		c-0.01-0.01-0.01-0.02-0.02-0.02c0,0,0,0-0.01,0c-0.01,0.03-0.02,0.07-0.02,0.1c0,0.02-0.01,0.03-0.03,0.02c-0.07,0-0.13,0-0.2,0
		c-0.02,0-0.02-0.01-0.02-0.03c0-0.61,0-1.22,0-1.84c0-0.02,0.01-0.03,0.03-0.03c0.08,0,0.16,0,0.23,0c0.02,0,0.03,0.01,0.03,0.03
		c0,0.21,0,0.42,0,0.63C375.06,122.07,375.06,122.08,375.06,122.09z M375.06,122.64c0,0.12,0,0.24,0,0.35c0,0.01,0,0.03,0,0.04
		c0.03,0.04,0.07,0.06,0.12,0.06c0.05,0,0.07-0.03,0.09-0.07c0.01-0.03,0.02-0.07,0.02-0.1c0.02-0.19,0.01-0.39,0-0.58
		c0-0.05-0.01-0.1-0.03-0.14c-0.02-0.05-0.06-0.07-0.11-0.05c-0.05,0.02-0.1,0.08-0.1,0.14
		C375.06,122.4,375.06,122.52,375.06,122.64z"/>
	<path class="st3" d="M374.33,123.12c-0.02,0.03-0.03,0.05-0.05,0.07c-0.08,0.1-0.21,0.14-0.33,0.1c-0.08-0.03-0.12-0.08-0.14-0.16
		c-0.02-0.06-0.02-0.12-0.02-0.19c0-0.32,0-0.64,0-0.97c0-0.02,0-0.03,0.03-0.03c0.08,0,0.16,0,0.24,0c0.03,0,0.03,0.01,0.03,0.03
		c0,0.32,0,0.63,0,0.95c0,0.03,0,0.06,0.01,0.09c0.01,0.06,0.06,0.09,0.12,0.06c0.06-0.02,0.09-0.06,0.09-0.12c0-0.32,0-0.65,0-0.97
		c0-0.03,0.01-0.04,0.04-0.04c0.08,0,0.16,0,0.23,0c0.02,0,0.03,0,0.03,0.03c0,0.43,0,0.85,0,1.28c0,0.02,0,0.03-0.02,0.03
		c-0.06,0-0.12,0-0.18,0c-0.02,0-0.03-0.01-0.03-0.03C374.35,123.21,374.34,123.17,374.33,123.12z"/>
	<path class="st3" d="M372.79,123.12c-0.02,0.03-0.03,0.05-0.05,0.07c-0.08,0.1-0.21,0.14-0.33,0.1c-0.08-0.03-0.12-0.08-0.14-0.16
		c-0.02-0.05-0.02-0.11-0.02-0.17c0-0.33,0-0.65,0-0.98c0-0.02,0.01-0.03,0.03-0.03c0.08,0,0.16,0,0.24,0
		c0.03,0,0.03,0.01,0.03,0.03c0,0.31,0,0.62,0,0.93c0,0.04,0,0.07,0.01,0.11c0.01,0.05,0.05,0.07,0.1,0.06
		c0.06-0.01,0.1-0.06,0.1-0.13c0-0.33,0-0.65,0-0.98c0-0.02,0-0.03,0.03-0.03c0.08,0,0.16,0,0.25,0c0.02,0,0.02,0.01,0.02,0.02
		c0,0.43,0,0.85,0,1.28c0,0.02,0,0.03-0.02,0.03c-0.06,0-0.13,0-0.19,0c-0.02,0-0.02-0.01-0.03-0.02
		C372.81,123.22,372.8,123.17,372.79,123.12z"/>
	<path class="st3" d="M372.09,122.62c0,0.13,0,0.26-0.03,0.39c-0.01,0.03-0.01,0.05-0.02,0.08c-0.04,0.11-0.13,0.18-0.25,0.21
		c-0.08,0.02-0.17,0.01-0.25,0c-0.15-0.03-0.22-0.13-0.25-0.27c-0.01-0.06-0.02-0.12-0.02-0.18c0-0.16-0.01-0.33,0-0.49
		c0.01-0.07,0.02-0.13,0.04-0.19c0.05-0.12,0.13-0.19,0.26-0.22c0.07-0.01,0.15-0.01,0.22,0c0.14,0.03,0.22,0.11,0.26,0.25
		c0.03,0.1,0.04,0.21,0.04,0.32C372.09,122.54,372.09,122.58,372.09,122.62z M371.56,122.6c0,0.09,0,0.17,0,0.24
		c0,0.06,0,0.12,0.02,0.18c0.01,0.05,0.05,0.08,0.09,0.08c0.04,0,0.08-0.03,0.09-0.08c0.01-0.04,0.02-0.08,0.02-0.11
		c0-0.19,0-0.39,0-0.58c0-0.04-0.01-0.09-0.02-0.13c-0.02-0.04-0.05-0.07-0.09-0.07c-0.04,0-0.07,0.02-0.09,0.07
		c-0.01,0.03-0.02,0.06-0.02,0.1C371.56,122.4,371.57,122.51,371.56,122.6z"/>
	<path class="st3" d="M370.85,122.37c0.02-0.1,0.04-0.19,0.06-0.29c0.04-0.2,0.09-0.4,0.13-0.59c0-0.02,0.01-0.02,0.03-0.02
		c0.08,0,0.16,0,0.24,0c0.03,0,0.03,0.01,0.02,0.03c-0.11,0.39-0.22,0.78-0.33,1.17c-0.01,0.02-0.01,0.04-0.01,0.06
		c0,0.18,0,0.35,0,0.53c0,0.02,0,0.03-0.03,0.03c-0.08,0-0.16,0-0.24,0c-0.02,0-0.03-0.01-0.03-0.03c0-0.18,0-0.35,0-0.53
		c0-0.04-0.01-0.08-0.02-0.11c-0.1-0.37-0.21-0.75-0.31-1.12c-0.01-0.04-0.01-0.04,0.03-0.04c0.08,0,0.16,0,0.24,0
		c0.02,0,0.03,0,0.03,0.02c0.05,0.26,0.11,0.52,0.16,0.78C370.83,122.3,370.83,122.33,370.85,122.37
		C370.84,122.37,370.84,122.37,370.85,122.37z"/>
	<path class="st3" d="M375.74,122.62c0-0.13,0-0.25,0.02-0.38c0-0.02,0.01-0.04,0.02-0.06c0.05-0.16,0.15-0.24,0.32-0.25
		c0.07-0.01,0.13,0,0.2,0.01c0.12,0.03,0.18,0.11,0.21,0.22c0.03,0.1,0.03,0.21,0.03,0.32c0,0.07,0,0.14,0,0.21
		c0,0.02-0.01,0.03-0.03,0.03c-0.15,0-0.3,0-0.44,0c-0.02,0-0.03,0-0.03,0.03c0,0.09,0,0.18,0.01,0.26c0.01,0.07,0.05,0.1,0.12,0.09
		c0.04,0,0.07-0.03,0.08-0.06c0.02-0.04,0.02-0.09,0.02-0.14c0-0.02,0.01-0.02,0.03-0.02c0.07,0.01,0.15,0.01,0.22,0.01
		c0.01,0,0.02,0,0.02,0.01c0.02,0.11-0.04,0.27-0.13,0.33c-0.09,0.06-0.19,0.07-0.3,0.07c-0.03,0-0.07-0.01-0.1-0.01
		c-0.1-0.03-0.17-0.09-0.21-0.19c-0.04-0.1-0.05-0.21-0.05-0.32C375.74,122.73,375.74,122.67,375.74,122.62z M376.03,122.4
		c0,0.04,0,0.08,0,0.12c0,0.02,0,0.02,0.02,0.02c0.06,0,0.12,0,0.17,0c0.02,0,0.02-0.01,0.02-0.02c0-0.07,0-0.14,0-0.21
		c0-0.04-0.01-0.08-0.02-0.11c-0.01-0.04-0.04-0.06-0.08-0.06c-0.06,0-0.09,0.02-0.1,0.08C376.03,122.28,376.03,122.34,376.03,122.4
		z"/>
	<path class="st3" d="M373.57,122.5c0,0.25,0,0.51,0,0.76c0,0.02-0.01,0.03-0.03,0.03c-0.08,0-0.15,0-0.23,0
		c-0.03,0-0.03-0.01-0.03-0.03c0-0.5,0-1,0-1.5c0-0.05,0-0.05-0.05-0.05c-0.07,0-0.15,0-0.22,0c-0.02,0-0.03-0.01-0.03-0.03
		c0-0.06,0-0.13,0-0.19c0-0.02,0-0.03,0.02-0.03c0.28,0,0.56,0,0.84,0c0.02,0,0.03,0.01,0.02,0.03c0,0.06,0,0.13,0,0.19
		c0,0.02-0.01,0.03-0.03,0.03c-0.08,0-0.16,0-0.24,0c-0.03,0-0.03,0.01-0.03,0.03C373.57,121.99,373.57,122.24,373.57,122.5z"/>
	<path class="st4" d="M374.55,118.07c-0.6,0.35-1.2,0.69-1.8,1.04c0-0.02,0-0.03,0-0.04c0-0.67,0-1.34,0-2.01
		c0-0.04,0-0.04,0.03-0.02c0.58,0.34,1.16,0.67,1.74,1.01C374.53,118.06,374.54,118.06,374.55,118.07z"/>
</g>
<path class="st3" d="M290.22,115.48c0.47,0,0.95,0,1.42,0c1.03,0,1.97,0.77,2.17,1.79c0.03,0.15,0.05,0.3,0.05,0.46
	c0,0.94,0,1.88,0,2.82c0,1.09-0.85,2.05-1.93,2.19c-0.1,0.01-0.2,0.02-0.3,0.02c-0.92,0-1.85-0.01-2.77,0
	c-1.1,0.01-2.1-0.82-2.24-1.95c-0.01-0.08-0.02-0.16-0.02-0.24c0-0.96,0-1.93,0-2.89c0-1.07,0.86-2.04,1.93-2.17
	c0.33-0.04,0.66-0.01,0.99-0.02C289.75,115.47,289.98,115.48,290.22,115.48z M290.23,116.31c-0.47,0-0.94,0-1.4,0
	c-0.78,0-1.4,0.62-1.4,1.4c0,0.93,0,1.86,0,2.79c0,0.78,0.62,1.4,1.4,1.4c0.93,0,1.86,0,2.79,0c0.78,0,1.4-0.62,1.41-1.41
	c0-0.93,0-1.86,0-2.78c0-0.79-0.62-1.4-1.41-1.41C291.16,116.31,290.69,116.31,290.23,116.31z"/>
<path class="st3" d="M290.23,120.97c-1.01,0.02-1.88-0.84-1.87-1.87c0.01-1.03,0.83-1.85,1.87-1.86c1.03-0.01,1.87,0.87,1.86,1.88
	C292.08,120.15,291.26,120.97,290.23,120.97z M290.23,118c-0.61,0-1.11,0.5-1.12,1.1c0,0.62,0.49,1.12,1.1,1.12
	c0.62,0,1.12-0.49,1.12-1.11C291.34,118.5,290.84,118,290.23,118z"/>
<path class="st2" d="M292.49,117.15c0,0.18-0.14,0.32-0.33,0.32c-0.18,0-0.33-0.15-0.32-0.33c0-0.18,0.15-0.32,0.32-0.32
	C292.35,116.83,292.49,116.97,292.49,117.15z"/>
<g>
	<path class="st4" d="M174.8,112.16h2.19v13.9h-2.19V112.16z"/>
	<path class="st4" d="M180.92,112.16l1.55,5.31v-5.31h2.15v13.9h-2.15l-1.55-6.13v2.86h-2.15v-10.64H180.92z"/>
	<path class="st4" d="M192.79,115.5v1.81h-2.15v-1.81c0-0.17,0-0.33-0.01-0.48c-0.01-0.15-0.04-0.27-0.1-0.38
		c-0.06-0.11-0.16-0.19-0.3-0.25c-0.14-0.06-0.35-0.09-0.63-0.09s-0.49,0.03-0.63,0.09c-0.14,0.06-0.24,0.14-0.3,0.25
		c-0.06,0.11-0.09,0.23-0.1,0.38c-0.01,0.15-0.01,0.3-0.01,0.47v1.13c0,0.18,0,0.35,0.01,0.48c0.01,0.14,0.04,0.26,0.11,0.36
		s0.18,0.17,0.33,0.23c0.15,0.05,0.38,0.08,0.69,0.08v0.02c0.42,0.01,0.82,0.07,1.19,0.17c0.37,0.1,0.7,0.27,0.97,0.52
		c0.28,0.25,0.5,0.58,0.67,1.01c0.17,0.43,0.25,0.96,0.25,1.61v1.63c0,0.65-0.08,1.19-0.25,1.61c-0.17,0.43-0.39,0.76-0.67,1.01
		c-0.28,0.25-0.6,0.42-0.97,0.53c-0.37,0.11-0.77,0.17-1.19,0.18h-0.2c-0.42-0.01-0.82-0.07-1.19-0.18
		c-0.37-0.11-0.7-0.28-0.97-0.53c-0.28-0.25-0.5-0.58-0.67-1c-0.17-0.42-0.25-0.96-0.25-1.61v-1.83h2.15v1.83
		c0,0.17,0,0.33,0.01,0.47c0.01,0.14,0.04,0.26,0.1,0.36c0.06,0.1,0.16,0.18,0.3,0.24c0.14,0.06,0.35,0.1,0.63,0.11
		c0.28-0.01,0.49-0.05,0.63-0.11c0.14-0.06,0.24-0.14,0.3-0.24c0.06-0.1,0.09-0.22,0.1-0.36c0.01-0.14,0.01-0.29,0.01-0.47v-1.63
		c0-0.17,0-0.33-0.01-0.48c-0.01-0.15-0.04-0.27-0.11-0.38c-0.07-0.11-0.18-0.19-0.33-0.24c-0.15-0.05-0.38-0.08-0.69-0.08
		c-0.42-0.01-0.82-0.07-1.19-0.17c-0.37-0.1-0.7-0.27-0.97-0.52c-0.28-0.25-0.5-0.58-0.67-1c-0.17-0.42-0.25-0.96-0.25-1.61v-1.13
		c0-0.65,0.08-1.19,0.25-1.62c0.17-0.43,0.39-0.77,0.67-1.01c0.28-0.25,0.6-0.42,0.97-0.53c0.37-0.11,0.77-0.17,1.19-0.18h0.2
		c0.42,0.01,0.82,0.07,1.19,0.18c0.37,0.11,0.7,0.28,0.97,0.53c0.28,0.25,0.5,0.58,0.67,1.01
		C192.71,114.31,192.79,114.85,192.79,115.5z"/>
	<path class="st4" d="M201.13,122.74c0,0.68-0.09,1.23-0.27,1.66c-0.18,0.43-0.42,0.77-0.72,1.01c-0.3,0.25-0.65,0.41-1.05,0.51
		c-0.4,0.09-0.81,0.14-1.25,0.14c-0.44,0-0.85-0.05-1.25-0.14c-0.4-0.09-0.74-0.26-1.04-0.51c-0.3-0.25-0.53-0.58-0.7-1.01
		c-0.17-0.43-0.26-0.98-0.26-1.66v-7.24c0-0.69,0.09-1.25,0.26-1.68c0.17-0.43,0.41-0.77,0.7-1.01c0.3-0.25,0.64-0.41,1.04-0.51
		c0.4-0.09,0.81-0.14,1.25-0.14c0.44,0,0.85,0.05,1.25,0.14c0.4,0.09,0.75,0.26,1.05,0.51c0.3,0.25,0.55,0.58,0.72,1.01
		c0.18,0.43,0.27,0.99,0.27,1.68v1.87h-2.15v-1.87c0-0.19,0-0.35-0.01-0.5c-0.01-0.15-0.04-0.27-0.11-0.38
		c-0.07-0.11-0.18-0.19-0.33-0.24c-0.15-0.05-0.38-0.08-0.69-0.08c-0.31,0-0.53,0.03-0.69,0.08c-0.15,0.05-0.26,0.13-0.32,0.24
		c-0.06,0.11-0.09,0.23-0.1,0.38c-0.01,0.15-0.01,0.31-0.01,0.5v7.24c0,0.19,0,0.35,0.01,0.49c0.01,0.14,0.04,0.26,0.1,0.37
		c0.06,0.11,0.17,0.19,0.32,0.24c0.15,0.05,0.38,0.08,0.69,0.08c0.3,0,0.53-0.03,0.69-0.08c0.15-0.05,0.26-0.13,0.33-0.24
		c0.07-0.11,0.1-0.23,0.11-0.37c0.01-0.14,0.01-0.3,0.01-0.49v-1.89h2.15V122.74z"/>
	<path class="st4" d="M206.62,121.11c0-0.17,0-0.33-0.01-0.48c-0.01-0.15-0.04-0.27-0.11-0.38c-0.07-0.11-0.18-0.19-0.33-0.24
		c-0.15-0.05-0.38-0.08-0.69-0.08h-0.4v6.13h-2.15v-13.9h2.37c0.45,0,0.88,0.05,1.27,0.14c0.4,0.09,0.75,0.26,1.04,0.51
		c0.3,0.25,0.54,0.58,0.72,1.01c0.18,0.43,0.27,0.99,0.27,1.68v1.13c0,0.46-0.04,0.87-0.13,1.21c-0.09,0.34-0.2,0.64-0.35,0.9
		c0.2,0.26,0.36,0.59,0.48,0.96c0.12,0.38,0.18,0.85,0.18,1.4v2.7c0,0.25,0,0.45,0,0.61c0,0.15,0.01,0.3,0.02,0.44
		c0.01,0.14,0.04,0.3,0.08,0.48s0.1,0.42,0.18,0.73h-2.17c-0.11-0.25-0.18-0.45-0.22-0.6c-0.04-0.15-0.07-0.28-0.08-0.42
		c-0.01-0.13-0.01-0.29,0-0.47c0.01-0.18,0.02-0.43,0.02-0.77V121.11z M205.3,117.79c0.29,0,0.52-0.03,0.68-0.08
		c0.16-0.05,0.27-0.13,0.33-0.23c0.06-0.1,0.09-0.22,0.1-0.36c0.01-0.14,0.01-0.3,0.01-0.49v-1.13c0-0.19,0-0.35-0.01-0.5
		c-0.01-0.15-0.04-0.27-0.1-0.38c-0.06-0.11-0.17-0.19-0.33-0.24c-0.16-0.05-0.38-0.08-0.68-0.08h-0.22v3.48H205.3z"/>
	<path class="st4" d="M216.14,112.16v2.15H213v3.48h1.99v2.15H213v2.86h-2.15v-10.64H216.14z M216.54,123.91v2.15h-5.69v-2.15
		H216.54z"/>
	<path class="st4" d="M221.71,126.06l-3.38-13.9h2.23l2.25,9.31l2.27-9.31h2.21l-3.36,13.9H221.71z"/>
	<path class="st4" d="M232.67,112.16l3.36,13.9h-2.23l-2.23-9.29l-2.27,9.29h-2.23l3.36-13.9H232.67z"/>
	<path class="st4" d="M237.82,120.31v-1.63h5.75v1.63H237.82z"/>
	<path class="st4" d="M251.72,115.5v1.81h-2.15v-1.81c0-0.17,0-0.33-0.01-0.48c-0.01-0.15-0.04-0.27-0.1-0.38
		c-0.06-0.11-0.16-0.19-0.3-0.25c-0.14-0.06-0.35-0.09-0.63-0.09c-0.28,0-0.49,0.03-0.63,0.09c-0.14,0.06-0.24,0.14-0.3,0.25
		c-0.06,0.11-0.09,0.23-0.1,0.38c-0.01,0.15-0.01,0.3-0.01,0.47v1.13c0,0.18,0,0.35,0.01,0.48c0.01,0.14,0.04,0.26,0.11,0.36
		s0.18,0.17,0.33,0.23c0.15,0.05,0.38,0.08,0.69,0.08v0.02c0.42,0.01,0.82,0.07,1.19,0.17c0.37,0.1,0.7,0.27,0.97,0.52
		c0.28,0.25,0.5,0.58,0.67,1.01c0.17,0.43,0.25,0.96,0.25,1.61v1.63c0,0.65-0.08,1.19-0.25,1.61c-0.17,0.43-0.39,0.76-0.67,1.01
		c-0.28,0.25-0.6,0.42-0.97,0.53c-0.37,0.11-0.77,0.17-1.19,0.18h-0.2c-0.42-0.01-0.82-0.07-1.19-0.18
		c-0.37-0.11-0.7-0.28-0.97-0.53c-0.28-0.25-0.5-0.58-0.67-1c-0.17-0.42-0.25-0.96-0.25-1.61v-1.83h2.15v1.83
		c0,0.17,0,0.33,0.01,0.47c0.01,0.14,0.04,0.26,0.1,0.36c0.06,0.1,0.16,0.18,0.3,0.24c0.14,0.06,0.35,0.1,0.63,0.11
		c0.28-0.01,0.49-0.05,0.63-0.11c0.14-0.06,0.24-0.14,0.3-0.24c0.06-0.1,0.09-0.22,0.1-0.36c0.01-0.14,0.01-0.29,0.01-0.47v-1.63
		c0-0.17,0-0.33-0.01-0.48c-0.01-0.15-0.04-0.27-0.11-0.38c-0.07-0.11-0.18-0.19-0.33-0.24c-0.15-0.05-0.38-0.08-0.69-0.08
		c-0.42-0.01-0.82-0.07-1.19-0.17c-0.37-0.1-0.7-0.27-0.97-0.52c-0.28-0.25-0.5-0.58-0.67-1c-0.17-0.42-0.25-0.96-0.25-1.61v-1.13
		c0-0.65,0.08-1.19,0.25-1.62c0.17-0.43,0.39-0.77,0.67-1.01c0.28-0.25,0.6-0.42,0.97-0.53c0.37-0.11,0.77-0.17,1.19-0.18h0.2
		c0.42,0.01,0.82,0.07,1.19,0.18c0.37,0.11,0.7,0.28,0.97,0.53c0.28,0.25,0.5,0.58,0.67,1.01
		C251.64,114.31,251.72,114.85,251.72,115.5z"/>
	<path class="st4" d="M258.8,112.16v2.15h-3.14v3.48h1.99v2.15h-1.99v2.86h-2.15v-10.64H258.8z M259.2,123.91v2.15h-5.69v-2.15
		H259.2z"/>
</g>
</svg>
