<?xml version="1.0" encoding="UTF-8"?>
<svg id="Camada_1" data-name="Camada 1" xmlns="http://www.w3.org/2000/svg" viewBox="0 0 643.76 104.74">
  <defs>
    <style>
      .cls-1 {
        fill: #fff;
      }

      .cls-2 {
        fill: #1f201f;
      }

      .cls-3 {
        fill: #e52323;
      }

      .cls-4 {
        fill: #e42122;
      }
    </style>
  </defs>
  <path class="cls-4" d="m31.63,104.74c-.29-.32-.71-.39-1.19-.4-1.29-.03-2.63.19-3.83-.4-1.13.18-2.13-.26-3.12-.51-.9-.22-1.9-.3-2.71-.76-.65-.38-1.51-.4-2.25-.64-2.32-.74-4.48-1.76-6.36-2.99-2.31-1.51-4.56-3.12-6.28-5.12-.57-.66-.99-1.42-1.8-1.96-.62-.41-.6-1.07-.9-1.59-.6-1.02-1.28-2-1.64-3.15-.38-1.24-.68-2.49-1.06-3.72-.95-3.1-.19-6.2-.46-9.29-.02-.24.02-.52.17-.72.36-.49.39-1.01.38-1.54,0-.56.22-1.1.36-1.63.2-.79.77-1.5.72-2.32-.04-.55.43-.98.63-1.46.46-1.07.75-2.2,1.39-3.23.35-.57.14-1.24.46-1.85.45-.86.84-1.74,1.12-2.64.21-.68.73-1.28.76-1.99.02-.5.42-.91.62-1.35.58-1.26.82-2.58,1.41-3.84.51-1.09.91-2.24,1.34-3.37.24-.63.18-1.4.87-1.93.11-.08.11-.27.11-.4-.02-.95.66-1.75.94-2.62.21-.64.55-1.23.74-1.88.32-1.11.87-2.18,1.33-3.27.07-.17.22-.32.24-.49.33-2.06,1.52-3.88,2.56-5.74.36-.64.48-1.33.92-1.96,1.42-2.01,2.75-4.07,4.49-5.92,1.43-1.52,2.48-3.3,4.45-4.5,1.69-2.23,4.29-3.81,6.62-5.56,2.1-1.58,4.26-3.15,6.85-4.28.82-.36,1.48-.9,2.26-1.31,2.99-1.6,6.18-2.87,9.42-4.1,1.52-.58,3.03-1.23,4.63-1.6.78-.18,1.54-.55,2.4-.53.74.01,1.41-.31,2.02-.5.91-.29,1.99-.14,2.78-.7.16-.11.52-.06.79-.07.58-.02,1.19.07,1.66-.32.08-.07.25-.1.38-.09C67.93.63,69.9,0,72,0c63.48.04,126.96.03,190.44.03,116.49,0,232.98,0,349.46,0,1.04,0,2.08-.06,3.07.33.3.12.71.08,1.07.1.61.03,1.28-.13,1.76.34.05.05.17.06.25.06,1.34,0,2.47.57,3.69.81,1.56.31,2.99.84,4.41,1.36,1.45.53,2.77,1.3,4.13,1.98,1.66.82,2.92,1.96,4.37,2.93.92.61,1.71,1.37,2.43,2.14.93,1,1.9,2.02,2.53,3.13.67,1.19,1.8,2.24,1.96,3.6.68.44.29,1.23.92,1.7.24.18.14.47.14.72,0,.28-.02.57.26.8.09.07.22.18.21.26-.15,1.12.59,2.13.61,3.22.03,1.99,0,3.97,0,5.96,0,.18.06.38-.02.53-.53.89-.26,1.92-.62,2.77-.35.82-.43,1.67-.81,2.49-.3.66-.59,1.38-.78,2.09-.18.64-.38,1.33-.84,1.92-.09.12-.17.26-.17.39,0,1.36-.89,2.53-1.37,3.78-.24.63-.37,1.28-.72,1.91-.47.83-.65,1.76-1.12,2.62-.3.55.13,1.28-.6,1.77.24.68-.41,1.21-.65,1.78-.46,1.12-.9,2.27-1.33,3.4-.3.77-.87,1.51-.79,2.39.05.52-.39,1.01-.62,1.46-.54,1.04-.96,2.14-1.35,3.19-.46,1.23-1.28,2.4-1.33,3.74-.02.58-.47,1.12-.67,1.7-.35.98-.8,1.94-1.31,2.87-.74,1.34-1.31,2.74-2.18,4.04-.74,1.11-1.51,2.22-2.18,3.36-.44.75-1.05,1.39-1.63,2.07-.71.82-1.54,1.57-2.13,2.47-.37.57-.93,1.12-1.49,1.63-1.51,1.36-2.82,2.85-4.52,4.08-1.5,1.08-2.77,2.38-4.39,3.33-1.62.95-3.03,2.08-4.71,2.98-1.59.85-3.21,1.67-4.71,2.64-.87.56-2.03.82-2.99,1.33-1.79.96-3.82,1.55-5.76,2.28-1.61.61-3.32,1.06-4.96,1.61-.73.24-1.66.27-2.4.56-1.04.42-2.31.18-3.28.78-.15.09-.44.04-.66.05-.51.04-1.1-.15-1.45.34-.03.05-.16.08-.24.07-1.68-.15-3.21.7-4.92.45-.73-.11-1.44.06-2.07.38H31.63Zm270.11-2.1c86.92,0,173.84,0,260.75-.03,4.05,0,8.12.41,12.16-.36,1.32-.25,2.73-.15,4.12-.38,1.88-.31,3.7-.78,5.52-1.2,1.82-.42,3.6-.97,5.37-1.52,1.25-.39,2.42-.89,3.64-1.31.8-.28,1.67-.53,2.39-.92,1.58-.86,3.27-1.58,4.9-2.37.79-.38,1.5-.83,2.21-1.3,1.54-1.01,3.38-1.72,4.76-2.9.63-.54,1.31-1.03,2.16-1.39.6-.26,1.17-.66,1.44-1.23.11-.22.33-.48.59-.56.99-.31,1.42-1.03,2.05-1.61,1.23-1.12,2.57-2.18,3.66-3.4,1.06-1.18,2.37-2.24,3.24-3.5.89-1.29,1.98-2.49,2.8-3.82,1.19-1.92,2.27-3.88,3.08-5.91.34-.84.8-1.66,1.04-2.55.35-1.27,1-2.51,1.49-3.77.21-.55.37-1.15.71-1.65.47-.69.51-1.45.8-2.16.29-.71.6-1.44.78-2.2.22-.9.8-1.75,1.03-2.69.09-.36.08-.8.34-1.09,1.1-1.24,1.05-2.76,1.75-4.09.33-.62.43-1.28.72-1.89.56-1.19.93-2.42,1.46-3.61.3-.67.35-1.4.66-2.02.76-1.52,1.38-3.08,1.95-4.63.56-1.53,1.38-3.06,1.19-4.72-.01-.1,0-.23.08-.31.56-.63.44-1.35.45-2.06.01-.89.09-1.78.02-2.66-.15-1.86.4-3.76-.53-5.58-.06-.12-.05-.28-.02-.42.14-.95-.33-1.86-.73-2.67-.93-1.89-1.81-3.82-3.38-5.49-1.08-1.16-2-2.41-3.36-3.41-1.18-.86-2.33-1.71-3.74-2.4-1.34-.66-2.55-1.48-4.07-1.91-.29-.08-.61-.07-.87-.27-1.29-.99-3.13-1.04-4.67-1.62-1.59-.59-3.48-.72-5.22-.84-2.24-.15-4.49-.39-6.76-.38-7.12.03-14.24,0-21.36,0-43.48,0-86.96,0-130.44,0-43.57,0-87.14,0-130.72,0-41.99,0-83.97,0-125.96,0-23.62,0-47.24-.07-70.87.02-19.22.07-38.44-.36-57.65.23-2,.06-3.93.39-5.89.57-1.77.16-3.57.63-5.29,1.13-1.94.56-4.01.92-5.86,1.62-2.83,1.07-5.75,2.03-8.36,3.45-1.8.98-3.82,1.73-5.52,2.81-1.46.93-2.96,1.84-4.36,2.85-1.39,1-2.71,2.04-4.07,3.06-.23.17-.5.31-.77.44-.24.12-.49.24-.55.45-.17.61-.74.98-1.29,1.34-1.42.91-2.38,2.14-3.46,3.25-1.07,1.1-2,2.31-2.95,3.5-1.71,2.13-2.98,4.43-4.37,6.68-.97,1.56-1.38,3.27-2.1,4.89-.59,1.32-1.13,2.67-1.62,4.02-.65,1.78-1.34,3.56-2.01,5.33-.55,1.45-1.41,2.86-1.75,4.34-.31,1.36-1.02,2.6-1.47,3.91-.68,1.99-1.72,3.91-2.34,5.92-.4,1.27-.97,2.48-1.46,3.72-.78,1.97-1.5,3.95-1.92,5.99-.04.21-.1.43-.24.6-.29.35-.33.74-.28,1.12.07.65-.1,1.28-.33,1.88-.16.42-.22.83-.22,1.25,0,1.28,0,2.55,0,3.83,0,.32-.06.68.11.94.73,1.17.35,2.49.92,3.7.38.8.57,1.69.88,2.53.48,1.33,1.41,2.51,2.19,3.74.96,1.5,2.33,2.77,3.72,4.01,1.1.98,2.35,1.83,3.72,2.61,1.65.94,3.3,1.84,5.16,2.49,3.25,1.14,6.54,2.2,10.2,2.17.22,0,.46.05.65.14.67.28,1.39.27,2.11.27,89.96,0,179.91,0,269.87,0Z"/>
  <path class="cls-2" d="m301.49,102.43c-89.96,0-179.91,0-269.87,0-.73,0-1.44,0-2.11-.27-.19-.08-.43-.14-.65-.14-3.66.03-6.94-1.03-10.2-2.17-1.86-.65-3.51-1.55-5.16-2.49-1.37-.78-2.62-1.63-3.72-2.61-1.39-1.24-2.76-2.51-3.72-4.01-.78-1.23-1.71-2.41-2.19-3.74-.3-.84-.5-1.73-.88-2.53-.57-1.21-.2-2.53-.92-3.7-.16-.27-.1-.63-.11-.94-.01-1.28,0-2.55,0-3.83,0-.42.06-.83.22-1.25.23-.6.4-1.23.33-1.88-.04-.39,0-.77.28-1.12.14-.17.2-.4.24-.6.41-2.04,1.14-4.02,1.92-5.99.49-1.24,1.06-2.45,1.46-3.72.63-2,1.66-3.92,2.34-5.92.45-1.31,1.16-2.55,1.47-3.91.34-1.48,1.2-2.88,1.75-4.34.67-1.78,1.36-3.55,2.01-5.33.49-1.35,1.03-2.69,1.62-4.02.73-1.63,1.14-3.34,2.1-4.89,1.4-2.25,2.66-4.55,4.37-6.68.95-1.18,1.88-2.4,2.95-3.5,1.08-1.11,2.04-2.34,3.46-3.25.55-.35,1.12-.73,1.29-1.34.06-.21.31-.33.55-.45.27-.13.54-.27.77-.44,1.36-1.01,2.68-2.06,4.07-3.06,1.4-1.01,2.9-1.92,4.36-2.85,1.69-1.08,3.71-1.83,5.52-2.81,2.61-1.42,5.53-2.37,8.36-3.45,1.85-.7,3.91-1.06,5.86-1.62,1.73-.5,3.52-.97,5.29-1.13,1.96-.17,3.89-.51,5.89-.57,19.21-.59,38.43-.16,57.65-.23,23.62-.09,47.24-.02,70.87-.02,41.99,0,83.97,0,125.96,0,43.57,0,87.14,0,130.72,0,43.48,0,86.96,0,130.44,0,7.12,0,14.24.02,21.36,0,2.27,0,4.52.23,6.76.38,1.74.12,3.64.24,5.22.84,1.54.58,3.39.63,4.67,1.62.25.19.58.18.87.27,1.52.43,2.73,1.26,4.07,1.91,1.41.69,2.56,1.53,3.74,2.4,1.36.99,2.27,2.25,3.36,3.41,1.56,1.67,2.45,3.6,3.38,5.49.4.81.87,1.71.73,2.67-.02.14-.04.3.02.42.93,1.82.38,3.72.53,5.58.07.88,0,1.77-.02,2.66,0,.7.12,1.43-.45,2.06-.07.08-.09.21-.08.31.18,1.66-.63,3.19-1.19,4.72-.57,1.55-1.19,3.11-1.95,4.63-.31.62-.36,1.36-.66,2.02-.53,1.19-.9,2.42-1.46,3.61-.29.61-.39,1.27-.72,1.89-.7,1.33-.65,2.85-1.75,4.09-.26.29-.25.73-.34,1.09-.23.93-.82,1.79-1.03,2.69-.18.76-.49,1.49-.78,2.2-.29.71-.32,1.47-.8,2.16-.34.5-.5,1.09-.71,1.65-.48,1.26-1.13,2.5-1.49,3.77-.25.89-.71,1.71-1.04,2.55-.81,2.02-1.89,3.99-3.08,5.91-.82,1.33-1.91,2.52-2.8,3.82-.87,1.26-2.18,2.32-3.24,3.5-1.09,1.22-2.43,2.27-3.66,3.4-.63.58-1.06,1.3-2.05,1.61-.26.08-.49.34-.59.56-.28.57-.84.97-1.44,1.23-.85.36-1.53.86-2.16,1.39-1.38,1.18-3.21,1.89-4.76,2.9-.71.46-1.42.91-2.21,1.3-1.63.79-3.32,1.51-4.9,2.37-.72.39-1.59.65-2.39.92-1.22.42-2.39.93-3.64,1.31-1.77.55-3.55,1.1-5.37,1.52-1.83.42-3.64.89-5.52,1.2-1.39.23-2.8.13-4.12.38-4.04.77-8.11.36-12.16.36-86.92.03-173.84.03-260.75.03Z"/>
  <path class="cls-3" d="m183.55,56.67c-.15,2.23.3,4.79-.39,7.31-.86,3.11-2.37,4.4-5.55,4.81-2.14.27-4.12-.03-5.89-1.33-.12-.09-.25-.18-.35-.29-.4-.44-.79-.88-1.18-1.33-.4.45-.8.9-1.21,1.34-.99,1.07-2.35,1.28-3.68,1.6-1.88.45-3.72.09-5.44-.53-1.44-.52-2.64-1.56-3.37-3.03-.95-1.94-1.41-3.99-1.48-6.13-.11-3.36-.39-6.74.56-10.05.92-3.23,2.88-5.27,6.3-6,2.79-.59,5.46-.48,7.97.74,3.04,1.49,4.14,4.29,4.53,7.47.43,3.45.14,6.92.22,10.37.02.99.28,1.86,1.02,2.55.74.7,1.29.54,2.06-.12,1.15-.98,1.28-2.21,1.28-3.55,0-2.1-.05-4.2.01-6.29.07-2.67-.11-5.37-.8-7.87-.71-2.57-2.17-4.9-4.58-6.49-2.43-1.6-5.08-2.16-7.91-2.23-2.71-.07-5.36.12-7.92,1.13-1.59.62-3.14,1.61-3.99,2.83-1.4,2.01-2.44,4.35-2.79,6.91-.63,4.58-.1,9.16-.18,13.74-.04,2.19.73,4.26,1.8,6.11,1.02,1.77,2.73,2.96,4.59,3.81,2.48,1.14,5.1,1.53,7.83,1.42,2.1-.08,4.2,0,6.3-.03.71-.01,1.05.14,1,.94-.06.87-.04,1.75,0,2.63.02.58-.15.81-.77.81-2.41-.03-4.82.13-7.22-.05-2.93-.21-5.91-.33-8.69-1.44-3.29-1.32-5.87-3.46-7.49-6.72-1.65-3.32-2.05-6.86-2.14-10.47-.05-1.94-.14-3.9,0-5.83.12-1.75.28-3.51.56-5.26.3-1.89.77-3.66,1.4-5.44.97-2.72,2.72-4.82,5.04-6.43,2.36-1.64,5.05-2.51,7.92-2.82,3.95-.43,7.85-.35,11.67.91,6.16,2.03,9.14,6.53,10.35,12.68.61,3.1.58,6.19.63,9.6Zm-13.73-.88c-.13-1.57.09-3.11-.22-4.67-.44-2.18-2.01-3.73-4.11-3.86-2.96-.19-4.64.73-5.28,3.21-.88,3.42-.72,6.91-.09,10.37.48,2.62,2.67,3.66,4.81,3.58,2.66-.11,4.15-1.52,4.67-4.09.31-1.52.07-3.03.21-4.52Z"/>
  <path class="cls-1" d="m85.25,86.16c-4.89,0-9.78,0-14.67,0-2.6,0-4.98-.88-7.18-2.11-2.24-1.25-4.26-3-5.69-5.06-1.64-2.35-3-4.89-3.26-8-.78-9.35-.12-18.71-.34-28.06-.06-2.7.32-5.34,1.55-7.83,2.02-4.09,4.96-7.18,9.13-9.15,2.39-1.13,4.83-1.63,7.47-1.61,8.82.06,17.64.04,26.47,0,3.07-.01,5.77,1.07,8.42,2.46,1.45.75,2.66,1.77,3.76,2.92,2.46,2.57,4.21,5.53,4.85,9.11.4,2.22.39,4.44.39,6.67,0,7.82.04,15.64-.02,23.46-.03,3.57-1.37,6.73-3.37,9.67-1.81,2.65-4.2,4.58-7.03,5.9-1.99.93-4.08,1.69-6.38,1.66-4.7-.07-9.39-.02-14.09-.02Zm1.28-3.43c3.97-.37,9.29.58,14.58-.42,2.76-.52,5.14-1.78,7.01-3.66,3.01-3.04,4.68-6.8,4.6-11.23-.16-8.83.26-17.66-.22-26.48-.17-3.17-1.63-5.86-3.63-8.21-1.03-1.21-2.33-2.19-3.81-2.98-2.17-1.15-4.48-1.89-6.82-1.93-8.7-.16-17.41-.1-26.11-.04-1.9.01-3.76.52-5.5,1.3-2.77,1.25-5.09,3.09-6.73,5.68-1.24,1.97-2.15,4.12-2.18,6.46-.1,7.17-.08,14.33-.11,21.5,0,1.64.13,3.29-.04,4.91-.2,1.9.31,3.65.93,5.35.76,2.07,2,3.9,3.6,5.47,2.61,2.56,5.64,4.23,9.37,4.27,4.58.05,9.16.01,15.06.01Z"/>
  <path class="cls-3" d="m316.02,65.79c-1.36,1.02-2.15,2.32-3.7,2.79-3.22.96-7.45.25-9.67-3-.87-1.28-1.37-2.8-1.54-4.35-.4-3.6-.48-7.23.02-10.82.67-4.78,3.26-7.8,8.54-7.71,2.01.04,3.78.86,5.26,2.23.3.28.6.55,1.08.98,0-2.02,0-3.83,0-5.63,0-2.17.02-4.35-.01-6.52-.01-.67.15-.97.89-.93,1.18.06,2.37.05,3.55,0,.66-.02.85.21.84.85-.04,1.79-.01,3.59-.01,5.38,0,9.42-.02,18.85.03,28.27,0,1.03-.27,1.33-1.27,1.24-.99-.09-1.99-.06-2.98,0-.77.05-1.14-.16-1.04-1,.06-.52.01-1.05.01-1.76Zm.07-9.95s-.05,0-.07,0c0-1.3-.07-2.6.02-3.89.13-1.88-.71-3.2-2.26-4.07-2.84-1.59-7.72-.64-7.84,4.62-.05,2.17-.02,4.34,0,6.52.02,3.84,3.12,6.19,6.8,5.16,1.7-.48,3.38-2.43,3.37-3.9,0-1.48,0-2.96,0-4.44Z"/>
  <path class="cls-3" d="m230.98,65.43v11.49c0,1.96,0,1.99-2.01,1.95-.98-.02-2.22.43-2.85-.22-.58-.6-.17-1.82-.17-2.76-.01-10.53,0-21.05-.03-31.58,0-.95.24-1.27,1.2-1.2,1.02.08,2.06.05,3.09,0,.61-.02.81.19.78.79-.04.72,0,1.44,0,2.29,1.23-1.13,2.24-2.3,3.77-2.93,3.89-1.6,9.54.18,10.81,5.26.95,3.8.8,7.6.6,11.43-.06,1.18-.31,2.31-.7,3.43-1,2.91-2.94,4.73-5.98,5.29-3.33.62-6.24-.03-8.51-3.26Zm0-9.75c0,1.18,0,2.37,0,3.55,0,2.94,1.44,4.66,4.31,5.17,1.91.34,5.28-1.38,5.62-3.59.49-3.22.63-6.44.09-9.63-.51-3.02-4.08-4.9-7.03-3.89-1.46.5-2.95,2.65-2.98,4.39-.03,1.33,0,2.67,0,4.01Z"/>
  <path class="cls-3" d="m436.14,67.01c-.75.12-1.06.68-1.58.91-.27.12-.5.43-.81.37-1.11-.22-1.99.58-3.08.58-2.98,0-5.88-.09-8.2-2.36-1.62-1.59-2-3.58-1.98-5.73.02-2.43.85-4.52,2.86-5.92,1.55-1.08,3.43-1.37,5.3-1.42,2.17-.06,4.35-.04,6.53,0,.77.02.92-.26.96-.98.14-2.98-1.64-4.86-3.54-5.15-2.2-.33-4.44-.16-6.37,1.14-.65.43-1.04.37-1.59-.07-.68-.55-1.39-1.06-2.13-1.52-.65-.4-.57-.69-.08-1.17,1.7-1.67,3.83-2.36,6.1-2.8,2.59-.5,5.11-.19,7.49.77,2.55,1.03,4.03,3.12,4.64,5.8.18.78.25,1.57.25,2.37-.02,5.11-.06,10.22.02,15.32.02,1.21-.36,1.54-1.47,1.39-.53-.07-1.07-.04-1.6,0-1.09.07-2.18.18-1.72-1.54Zm-.03-6.61c0-.61-.04-1.22.01-1.83.07-.77-.16-1.08-1-1.06-2.17.06-4.35,0-6.53.04-1.83.03-2.67.71-3.18,2.48-.58,2.02.61,4.32,2.41,4.61,1.85.3,3.71.33,5.56,0,2.08-.37,2.71-1.12,2.71-3.21,0-.34,0-.69,0-1.03Z"/>
  <path class="cls-3" d="m557.07,66.91c-1.69,1.56-3.69,1.66-5.61,2.04-2.73.53-7.23-1.15-8.8-3.41-1.82-2.63-1.82-8.49,1.65-10.68,1.64-1.03,3.51-1.37,5.42-1.42,2.14-.06,4.28-.05,6.41,0,.76.02.95-.24.95-.97.01-2.69-.98-4.59-3.18-5.02-2.39-.47-4.87-.58-6.97,1.14-.38.31-.66.26-1.01,0-.88-.65-1.75-1.34-2.68-1.92-.7-.44-.17-.68.08-.91,1.15-1.06,2.42-1.93,3.96-2.35,2.98-.81,5.89-.98,8.91.02,2.53.84,4.04,2.48,4.98,4.81.51,1.27.7,2.61.7,3.98,0,5.07-.02,10.14.01,15.22,0,.82-.15,1.2-1.05,1.1-.72-.08-1.45-.07-2.17,0-1.13.11-1.96-.03-1.61-1.64Zm.04-6.59c0-.57-.05-1.15.01-1.72.09-.85-.2-1.13-1.08-1.1-2.1.07-4.2,0-6.3.04-2.11.03-3.18.95-3.43,2.88-.26,1.95.66,3.42,2.51,4.03,2.02.66,4.06.53,6.06,0,1.96-.52,2.22-.96,2.22-2.98,0-.38,0-.76,0-1.14Z"/>
  <path class="cls-3" d="m294.49,55.74c-.1,2.05.09,4.05-.43,6.05-.9,3.47-2.98,5.68-6.44,6.64-2.71.75-5.42.7-8.02-.23-3.18-1.14-5.13-3.6-5.66-6.86-.62-3.82-.76-7.73.12-11.55.95-4.09,3.8-6.35,7.98-6.92,1.94-.27,3.75-.08,5.62.4,3.85.98,5.79,3.57,6.56,7.29.36,1.74.15,3.49.25,5.19Zm-5.01.05c-.1-1.47.16-3.04-.3-4.56-.54-1.76-1.61-3.06-3.46-3.51-2.13-.52-4.1-.31-5.7,1.43-.93,1.02-1.25,2.29-1.34,3.56-.13,1.93-.07,3.88-.04,5.82.06,3.28,1.71,5.14,4.92,5.63,1.96.3,4.28-.96,5.19-2.71.94-1.79.62-3.7.73-5.66Z"/>
  <path class="cls-3" d="m468.83,55.86c.15,2.95-.04,5.91-1.6,8.56-1.13,1.92-2.76,3.28-4.96,3.89-2.56.71-5.09.76-7.7.08-2.2-.58-3.76-1.87-5.02-3.64-1.11-1.56-1.57-3.34-1.67-5.23-.17-3.3-.44-6.64.38-9.87.75-2.91,2.53-5.17,5.5-6.19,3.14-1.08,6.36-1.11,9.4.2,2.67,1.15,4.4,3.18,5.06,6.2.44,1.99.68,3.94.6,5.99Zm-16.02-.48c0,1.12-.07,2.08.02,3.03.13,1.43.29,2.92,1.33,4,1.6,1.67,3.56,2.09,5.81,1.42,2.19-.65,3.11-2.33,3.6-4.29.54-2.2.36-4.48.18-6.7-.22-2.77-1.34-4.64-4.38-5.28-2.59-.55-5.36.85-6.13,3.27-.51,1.58-.36,3.15-.43,4.56Z"/>
  <path class="cls-3" d="m372.14,55.28c-.1-2.34.1-5.11,1.4-7.72.82-1.64,2.03-2.98,3.61-3.66,4.16-1.78,8.4-1.92,12.25.77,2.17,1.52,3.34,3.8,3.63,6.55.25,2.36.2,4.72.16,7.07-.02,1.7-.17,3.41-.92,5-.43.91-1.29,1.51-1.76,2.27-.65,1.06-1.49,1.6-2.47,2.1-2.75,1.42-5.63,1.5-8.59.85-4.26-.93-6.46-4.3-7.09-8.2-.25-1.52-.21-3.03-.22-5.04Zm5.04.31c0,.99-.06,1.84.01,2.67.31,3.48,1.54,5.41,4.98,5.87,1.9.25,4.84-.9,5.47-3.17.82-2.93.62-5.87.34-8.82-.15-1.59-.79-2.95-2.25-3.84-2.67-1.62-7.39-1.09-8.33,3.35-.29,1.36-.17,2.73-.22,3.94Z"/>
  <path class="cls-3" d="m343.98,65.77c-.93,1.04-1.88,2.06-3.11,2.45-3.47,1.1-7.76,1.16-10.42-2.77-1-1.48-1.54-3.17-1.58-4.91-.11-5.5-.07-11.01-.12-16.52,0-.7.22-.94.92-.91,1.07.05,2.14.04,3.21,0,.65-.03.86.21.85.85-.03,4.99,0,9.99-.06,14.98-.03,2.46,2.01,5.1,4.42,5.17,1.66.05,3.43-.1,4.77-1.38.94-.91,1.11-2.14,1.12-3.34.04-4.99.05-9.99,0-14.98-.01-1.05.27-1.43,1.32-1.31,1.2.14,2.77-.5,3.52.26.69.7.19,2.25.19,3.42.01,6.82-.02,13.65.04,20.47,0,1.09-.33,1.37-1.34,1.29-.95-.08-1.91-.05-2.86,0-.64.03-.9-.19-.85-.84.04-.64,0-1.29,0-1.94Z"/>
  <path class="cls-3" d="m504.37,55.72c-.05-2.28.04-4.53.82-6.73,1.08-3.05,3.19-4.91,6.24-5.74,3.85-1.05,7.54-.62,10.97,1.49.7.43,1.29,1.03,1.94,1.54.33.26.39.49.04.8-.97.86-1.92,1.74-2.89,2.6-.41.37-.69.13-1.04-.18-2-1.8-4.31-2.41-6.95-1.78-2.3.55-3.61,2.18-3.97,4.3-.39,2.27-.32,4.65-.04,6.96.61,5.05,5.54,6.11,9.06,4.42.8-.38,1.51-.89,2.08-1.57.34-.4.58-.37.92-.02.9.92,1.8,1.84,2.75,2.71.44.4.32.63-.04.98-1.73,1.7-3.75,2.73-6.17,3.17-2.69.49-5.32.32-7.79-.66-3.43-1.36-5.13-4.17-5.73-7.73-.25-1.52-.19-3.04-.21-4.55Z"/>
  <path class="cls-3" d="m481.68,58.02c0,3.2-.02,6.41.01,9.61,0,.67-.14.97-.88.93-1.03-.06-2.07-.09-3.09,0-.98.09-1.1-.35-1.1-1.18.03-6.18-.01-12.36.04-18.53,0-1.07-.21-1.58-1.35-1.37-1.12.21-1.65-.19-1.43-1.39.05-.26,0-.53,0-.8,0-2.02,0-2.06,2.02-2.14.65-.03.72-.3.74-.84.06-1.67-.16-3.34.2-5.01.57-2.59,2.52-4.35,5.17-4.46,1.3-.05,2.6.01,3.89-.02.59-.01.81.18.79.78-.04,1.1-.03,2.21,0,3.32.01.55-.2.74-.74.72-.88-.03-1.76-.04-2.63,0-1.13.05-1.64.6-1.66,1.73-.02.99.02,1.98-.01,2.97-.02.59.17.81.78.79,1.11-.04,2.21.02,3.32-.02.65-.02.93.12.95.86.09,3.33.11,3.33-3.2,3.33q-1.85,0-1.85,1.9c0,2.94,0,5.87,0,8.81Z"/>
  <path class="cls-3" d="m357.25,39.27c0-.99.02-1.98,0-2.98-.02-.55.19-.74.73-.72,1.18.03,2.37.04,3.55,0,.65-.02.87.21.86.85-.03,1.87.02,3.74-.03,5.61-.02.8.14,1.14,1.05,1.13,2.78-.03,2.78.02,2.78,2.76q0,1.75-1.76,1.75-2.06,0-2.06,2.05c0,3.82,0,7.63,0,11.45,0,.49.09.98.12,1.48.06,1,.63,1.33,1.59,1.34,2.11,0,2.11.03,2.11,2.18,0,2.43,0,2.44-2.46,2.41-1.62-.02-3.29.12-4.57-1.21-1.15-1.19-1.64-2.57-1.75-4.25-.32-4.87-.06-9.74-.13-14.6-.01-.84-.44-.79-1.01-.8-1.58,0-1.58-.02-1.58-1.59,0-.31,0-.61,0-.92,0-1.9,0-1.93,1.9-2.05.6-.04.68-.3.67-.79-.02-1.03,0-2.06,0-3.09Z"/>
  <path class="cls-3" d="m192.03,57.8c0-4.54.02-9.08-.02-13.62,0-.86.23-1.14,1.09-1.07,1.03.07,2.06.05,3.09,0,.63-.02.87.16.87.83-.02,9.12.07,18.23-.08,27.35-.03,2.02-.15,4.2-1.73,5.92-.77.85-1.68,1.38-2.71,1.52-1.43.19-2.89.1-4.34.13-.5.01-.53-.31-.53-.68,0-1.14.02-2.29,0-3.43-.01-.53.16-.78.71-.73.38.03.76,0,1.15,0,2.15.06,2.39-.04,2.46-2.5.14-4.57.04-9.15.04-13.73Z"/>
  <path class="cls-3" d="m569.45,48.27c0-4.77.02-9.53-.02-14.3,0-.85.15-1.26,1.11-1.16,1.28.14,2.95-.52,3.74.27.74.74.2,2.39.2,3.64.02,8.31,0,16.62,0,24.93,0,1.73.58,2.29,2.32,2.31,1.81.02,1.55-.26,1.58,1.57,0,.19,0,.38,0,.57q0,2.47-2.53,2.46c-4.14-.02-6.4-2.3-6.41-6.46,0-4.61,0-9.23,0-13.84Z"/>
  <path class="cls-3" d="m258.25,46.14c1.53-1.88,3.38-3.01,5.69-3.38,2.12-.34,4.05.28,5.87,1.3.57.32.74.69.18,1.32-.89,1-1.68,2.11-2.41,3.24-.37.57-.55.39-.91.06-1.98-1.77-5.36-1.64-7.2.25-.91.93-1.2,2.08-1.21,3.33-.01,5.03-.03,10.06.02,15.09,0,.95-.23,1.28-1.2,1.2-.98-.09-1.98-.06-2.97,0-.7.04-.92-.19-.91-.9.04-2.02.02-4.04.02-6.06,0-5.79.02-11.59-.02-17.38,0-.82.16-1.18,1.06-1.1.99.08,1.99.06,2.97,0,.78-.05,1.12.16,1.04,1-.07.67-.01,1.35-.01,2.03Z"/>
  <path class="cls-3" d="m405.37,46.16c.4.02.51-.22.62-.39,1.74-2.81,6.37-3.97,9.44-2.32.03.02.06.05.1.06,2.4.8,2.6,1.11.51,2.92-.58.5-.86,1.36-1.25,2.08-.31.57-.54.61-1.06.14-1.97-1.77-5.48-1.56-7.23.39-.83.92-1.11,2.05-1.11,3.26,0,5-.02,9.99.02,14.99,0,.95-.16,1.41-1.23,1.28-1.24-.16-2.86.52-3.63-.26-.71-.72-.2-2.32-.2-3.53-.02-6.79.02-13.57-.04-20.36,0-1.09.34-1.37,1.34-1.28.87.08,1.76.08,2.63,0,.96-.1,1.19.31,1.11,1.16-.06.62-.01,1.26-.01,1.89Z"/>
  <path class="cls-3" d="m204.55,55.81c0-3.89.02-7.78-.02-11.67,0-.8.24-1.07,1.04-1.03,1.07.06,2.14.04,3.21,0,.55-.01.75.2.73.74-.03.57-.02,1.14,0,1.72.01.24-.17.58.15.71.4.16.52-.27.65-.49,1.06-1.76,2.69-2.57,4.63-2.95,2.34-.45,4.43.18,6.4,1.38.44.27.57.53.15.98-.94,1.02-1.74,2.16-2.48,3.33-.32.51-.56.46-1.04.09-2.47-1.93-6.59-1.61-8.06,1.6-.31.68-.44,1.4-.44,2.18.03,5.07,0,10.15.03,15.22,0,.67-.16.99-.89.93-1.32-.12-3.01.54-3.86-.28-.74-.72-.19-2.39-.2-3.65-.03-2.94,0-5.87,0-8.81Z"/>
  <path class="cls-3" d="m497.5,55.89c0,3.85-.02,7.7.02,11.56,0,.81-.14,1.19-1.05,1.11-.99-.08-1.99-.08-2.97,0-.92.08-1.05-.31-1.05-1.11.03-7.36.02-14.72.02-22.08q0-2.23,2.18-2.23,2.86,0,2.86,2.81v9.95Z"/>
  <path class="cls-3" d="m535.14,55.95c0,3.81-.02,7.62.02,11.43,0,.85-.16,1.26-1.12,1.17-.91-.08-1.84-.08-2.74,0-.95.09-1.12-.32-1.12-1.17.03-7.7.03-15.4,0-23.1,0-.85.17-1.26,1.12-1.17.91.08,1.84.08,2.74,0,.96-.09,1.13.33,1.12,1.17-.04,3.89-.02,7.78-.02,11.66Z"/>
  <path class="cls-3" d="m194.49,32.83q2.58,0,2.58,2.63,0,2.44-2.43,2.44-2.77,0-2.77-2.69,0-2.37,2.62-2.37Z"/>
  <path class="cls-3" d="m497.5,35.38q0,2.52-2.57,2.52t-2.47-2.5,2.62-2.57,2.42,2.55Z"/>
  <path class="cls-3" d="m535.14,35.44q0,2.46-2.44,2.46t-2.51-2.5,2.56-2.56q2.39,0,2.39,2.61Z"/>
  <path class="cls-1" d="m84.91,40.61c8.72-.73,15.27,7.05,15.22,14.61-.06,8.55-6.81,14.17-13.25,14.94-9.82,1.18-16.76-7.41-16.79-14.84-.03-7.78,7.19-15.59,14.82-14.72Zm12.27,14.98c.15-7.1-5.12-12.19-11.84-12.36-6.78-.18-11.86,5.11-12.22,10.83-.54,8.43,5.23,13.35,11.91,13.43,6.26.07,12.29-4.72,12.14-11.89Z"/>
  <path class="cls-3" d="m98.97,38.13c-.03-2.05,1.53-3.59,3.55-3.71,2.33-.14,3.94,1.46,4.01,3.67.06,1.95-1.85,3.79-3.9,3.87-1.75.07-3.64-1.91-3.67-3.83Z"/>
</svg>