<?xml version="1.0" encoding="utf-8"?>
<!-- Generator: Adobe Illustrator 26.0.0, SVG Export Plug-In . SVG Version: 6.00 Build 0)  -->
<svg version="1.1" id="Camada_1" xmlns="http://www.w3.org/2000/svg" xmlns:xlink="http://www.w3.org/1999/xlink" x="0px" y="0px"
	 viewBox="0 0 604.5 226.75" style="enable-background:new 0 0 604.5 226.75;" xml:space="preserve">
<style type="text/css">
	.st0{fill:#65140F;}
	.st1{fill:#E52521;}
	.st2{fill:#FFFFFF;}
</style>
<path class="st0" d="M11.87,140.61c-1.27-0.68-1.95-1.95-1.95-3.42V76.93c0-3.13,3.32-4.88,5.86-3.42l52.64,29.4
	c0,0,0.2,47.96,0,67.29c0,0-1.76,0-2.15,0c-1.17,0-2.34-0.2-3.13-0.68L11.87,140.61z"/>
<path class="st1" d="M125.07,140.61c1.27-0.68,1.95-1.95,1.95-3.42V76.93c0-3.13-3.32-4.88-5.86-3.42l-52.64,29.3
	c0,0-0.2,47.96,0,67.29c0,0,1.76,0,2.15,0c1.17,0,2.34-0.2,3.13-0.68L125.07,140.61z"/>
<g>
	<path class="st2" d="M23.88,97.44l-5.27-3.32c-0.49-0.2-0.78-0.68-0.78-1.17l-0.29-4.88c0-0.98,0.98-1.76,1.95-1.47l4.88,3.13
		c0.49,0.2,0.98,0.68,0.98,1.27l0.29,5.37C25.84,97.53,24.86,97.92,23.88,97.44z"/>
	<path class="st2" d="M36.87,104.17l-5.27-3.32c-0.49-0.2-0.78-0.68-0.78-1.17l-0.29-4.88c0-0.98,0.98-1.76,1.95-1.47l4.88,3.13
		c0.49,0.2,0.98,0.68,0.98,1.27l0.29,5.37C38.92,104.27,37.95,104.66,36.87,104.17z"/>
	<path class="st2" d="M49.67,110.82l-5.27-3.32c-0.49-0.2-0.78-0.68-0.78-1.17l-0.29-4.88c0-0.98,0.98-1.76,1.95-1.47l4.88,3.13
		c0.49,0.2,0.98,0.68,0.98,1.27l0.29,5.37C51.62,111.01,50.64,111.3,49.67,110.82z"/>
	<path class="st2" d="M62.95,117.75l-5.27-3.32c-0.49-0.2-0.78-0.68-0.78-1.17l-0.29-4.88c0-0.98,0.98-1.76,1.95-1.47l4.88,3.13
		c0.49,0.2,0.98,0.68,0.98,1.27l0.29,5.37C64.9,117.95,63.93,118.24,62.95,117.75z"/>
	<path class="st0" d="M82.78,59.34l-5.08-3.61c-0.49-0.29-0.68-0.78-0.68-1.27v-4.88c0-0.98,1.17-1.76,2.15-1.27l4.79,3.42
		c0.49,0.2,0.78,0.78,0.78,1.27v5.37C84.73,59.64,83.75,59.83,82.78,59.34z"/>
	<path class="st0" d="M95.38,66.67l-5.08-3.61c-0.49-0.29-0.68-0.78-0.68-1.27V56.9c0-0.98,1.17-1.76,2.15-1.27l4.79,3.42
		c0.49,0.2,0.78,0.78,0.78,1.27v5.37C97.33,67.06,96.35,67.35,95.38,66.67z"/>
	<path class="st0" d="M107.68,74.29l-5.08-3.61c-0.49-0.29-0.68-0.78-0.68-1.27v-4.88c0-0.98,1.17-1.76,2.15-1.27l4.79,3.42
		c0.49,0.2,0.78,0.78,0.78,1.27v5.37C109.74,74.39,108.66,74.78,107.68,74.29z"/>
	<path class="st0" d="M53.58,59.34l5.08-3.61c0.49-0.29,0.68-0.78,0.68-1.27v-4.88c0-0.98-1.17-1.76-2.15-1.27l-4.79,3.42
		c-0.49,0.2-0.78,0.78-0.78,1.27v5.37C51.62,59.64,52.6,59.83,53.58,59.34z"/>
	<path class="st0" d="M40.98,66.67l5.08-3.61c0.49-0.29,0.68-0.78,0.68-1.27V56.9c0-0.98-1.17-1.76-2.15-1.27l-4.79,3.42
		c-0.49,0.2-0.78,0.78-0.78,1.27v5.37C38.92,67.06,39.9,67.35,40.98,66.67z"/>
	<path class="st0" d="M28.67,74.29l5.08-3.61c0.49-0.29,0.68-0.78,0.68-1.27v-4.88c0-0.98-1.17-1.76-2.15-1.27l-4.79,3.42
		c-0.49,0.2-0.78,0.78-0.78,1.27v5.37C26.62,74.39,27.59,74.78,28.67,74.29z"/>
	<path class="st2" d="M23.69,143.54l-5.27-3.32c-0.49-0.2-0.78-0.68-0.78-1.17l-0.29-4.88c0-0.98,0.98-1.76,1.95-1.47l5.08,3.13
		c0.49,0.2,0.98,0.68,0.98,1.27l0.29,5.37C25.64,143.63,24.66,144.02,23.69,143.54z"/>
	<path class="st2" d="M36.87,150.08l-5.27-3.32c-0.49-0.2-0.78-0.68-0.78-1.17l-0.29-4.88c0-0.98,0.98-1.76,1.95-1.47l5.08,3.13
		c0.49,0.2,0.98,0.68,0.98,1.27l0.29,5.37C38.83,150.27,37.85,150.76,36.87,150.08z"/>
	<path class="st2" d="M49.67,157.99l-5.27-3.32c-0.49-0.2-0.78-0.68-0.78-1.17l-0.29-4.88c0-0.98,0.98-1.76,1.95-1.47l5.08,3.13
		c0.49,0.2,0.98,0.68,0.98,1.27l0.29,5.37C51.62,158.09,50.64,158.48,49.67,157.99z"/>
	<path class="st2" d="M62.95,164.63l-5.27-3.32c-0.49-0.2-0.78-0.68-0.78-1.17l-0.29-4.88c0-0.98,0.98-1.76,1.95-1.47l5.08,3.13
		c0.49,0.2,0.98,0.68,0.98,1.27l0.29,5.37C64.9,164.83,63.93,165.22,62.95,164.63z"/>
	<path class="st2" d="M113.15,97.04l5.27-3.32c0.49-0.2,0.78-0.68,0.78-1.17l0.29-4.88c0-0.98-0.98-1.76-1.95-1.47l-4.88,3.13
		c-0.49,0.2-0.98,0.68-0.98,1.27l-0.29,5.37C111.2,97.24,112.18,97.73,113.15,97.04z"/>
	<path class="st2" d="M100.16,103.78l5.27-3.32c0.49-0.2,0.78-0.68,0.78-1.17l0.29-4.88c0-0.98-0.98-1.76-1.95-1.47l-4.88,3.13
		c-0.49,0.2-0.98,0.68-0.98,1.27l-0.29,5.37C98.21,103.98,99.19,104.47,100.16,103.78z"/>
	<path class="st2" d="M87.37,110.52l5.27-3.32c0.49-0.2,0.78-0.68,0.78-1.17l0.29-4.88c0-0.98-0.98-1.76-1.95-1.47l-4.88,3.13
		c-0.49,0.2-0.98,0.68-0.98,1.27l-0.29,5.47C85.42,110.82,86.39,111.21,87.37,110.52z"/>
	<path class="st2" d="M74.09,117.46l5.27-3.32c0.49-0.2,0.78-0.68,0.78-1.17l0.29-4.88c0-0.98-0.98-1.76-1.95-1.47l-4.88,3.13
		c-0.49,0.2-0.98,0.68-0.98,1.27l-0.29,5.37C72.13,117.56,73.11,118.04,74.09,117.46z"/>
	<path class="st2" d="M113.25,143.15l5.27-3.32c0.49-0.2,0.78-0.68,0.78-1.17l0.29-4.88c0-0.98-0.98-1.76-1.95-1.47l-5.08,3.13
		c-0.49,0.2-0.98,0.68-0.98,1.27l-0.29,5.37C111.3,143.34,112.27,143.83,113.25,143.15z"/>
	<path class="st2" d="M100.36,149.88l5.27-3.32c0.49-0.2,0.78-0.68,0.78-1.17l0.29-4.88c0-0.98-0.98-1.76-1.95-1.47l-5.08,3.13
		c-0.49,0.2-0.98,0.68-0.98,1.27l-0.29,5.37C98.41,150.08,99.38,150.37,100.36,149.88z"/>
	<path class="st2" d="M87.56,157.6l5.27-3.32c0.49-0.2,0.78-0.68,0.78-1.17l0.29-4.88c0-0.98-0.98-1.76-1.95-1.47l-5.08,3.13
		c-0.49,0.2-0.98,0.68-0.98,1.27l-0.29,5.47C85.42,157.8,86.39,158.09,87.56,157.6z"/>
	<path class="st2" d="M74.09,164.34l5.27-3.32c0.49-0.2,0.78-0.68,0.78-1.17l0.29-4.88c0-0.98-0.98-1.76-1.95-1.47l-5.08,3.13
		c-0.49,0.2-0.98,0.68-0.98,1.27l-0.29,5.37C72.13,164.53,73.11,165.02,74.09,164.34z"/>
</g>
<g>
	<path class="st2" d="M147.14,126.64h-4.88V115.5h26.08c10.35,0,17.39,7.72,17.39,18.36c0,10.84-7.03,18.56-17.39,18.56h-7.72v16.6
		h-13.48V126.64z M165.6,141.09c4.3,0,6.45-3.13,6.45-7.42c0-4.3-2.15-7.23-6.25-7.23h-5.27v14.65H165.6z"/>
	<path class="st2" d="M192.07,126.64h-4.88V115.5h25.1c10.35,0,17.68,6.06,17.68,16.9c0,10.65-7.91,13.97-7.91,13.97v0.2
		c0,0,2.15,0.78,3.32,3.32l3.42,6.45c0.78,1.66,2.15,1.66,3.61,1.66h0.78v11.13h-7.42c-3.81,0-5.86-0.68-7.52-3.91l-6.25-12.11
		c-0.78-1.66-1.95-1.95-4.79-1.95h-1.76v18.07h-13.38V126.64L192.07,126.64z M210.14,139.53c3.91,0,6.06-2.34,6.06-6.54
		c0-4.2-2.15-6.45-5.86-6.45h-4.88v12.99H210.14z"/>
	<path class="st2" d="M261.81,114.43c16.21,0,28.03,12.01,28.03,27.45c0,15.72-11.82,28.03-28.03,28.03s-28.03-12.31-28.03-28.03
		C233.78,126.44,245.59,114.43,261.81,114.43z M261.81,157.5c7.72,0,14.06-6.74,14.06-15.63c0-8.5-6.25-14.94-14.06-14.94
		c-7.72,0-14.06,6.45-14.06,14.94C247.64,150.76,254.09,157.5,261.81,157.5z"/>
	<path class="st2" d="M296.77,126.64h-4.88V115.5h21.98c16.9,0,27.54,9.86,27.54,26.76s-10.84,26.96-27.54,26.96h-11.62
		c-3.81,0-5.37-1.66-5.37-5.37C296.77,163.66,296.77,126.64,296.77,126.64z M311.81,157.6h1.66c8.89,0,14.26-5.37,14.26-15.63
		c0-10.16-5.57-15.43-14.26-15.43h-3.22v29.4C310.25,157.11,310.74,157.6,311.81,157.6z"/>
	<path class="st2" d="M347.76,128.2c0-0.98-0.68-1.66-1.66-1.66h-3.32v-11.13h12.79c3.81,0,5.37,1.66,5.37,5.37v28.03
		c0,5.57,3.42,8.69,8.69,8.69s8.69-2.93,8.69-8.69v-28.03c0-3.81,1.66-5.37,5.37-5.37h12.79v11.13h-3.32
		c-0.98,0-1.66,0.68-1.66,1.66v21c0,12.11-8.69,20.71-21.98,20.71c-13.48,0-22.17-8.5-22.17-20.71L347.76,128.2L347.76,128.2z"/>
	<path class="st2" d="M415.05,126.64h-4.3c-0.98,0-1.66,0.68-1.66,1.66v2.93h-11.62v-10.65c0-3.81,1.27-5.08,5.08-5.08h38.19
		c3.81,0,5.08,1.27,5.08,5.08v10.65h-11.53v-2.93c0-0.98-0.68-1.66-1.66-1.66h-4.3v42.29h-13.48L415.05,126.64L415.05,126.64z"/>
	<path class="st2" d="M473.85,114.43c16.21,0,28.03,12.01,28.03,27.45c0,15.72-11.82,28.03-28.03,28.03s-28.03-12.31-28.03-28.03
		C445.72,126.44,457.54,114.43,473.85,114.43z M473.85,157.5c7.72,0,14.06-6.74,14.06-15.63c0-8.5-6.25-14.94-14.06-14.94
		s-14.16,6.45-14.16,14.94C459.68,150.76,465.94,157.5,473.85,157.5z"/>
	<path class="st2" d="M508.81,126.64h-4.88V115.5h25.1c10.35,0,17.68,6.06,17.68,16.9c0,10.65-7.91,13.97-7.91,13.97v0.2
		c0,0,2.15,0.78,3.32,3.32l3.42,6.45c0.78,1.66,2.15,1.66,3.61,1.66h0.78v11.13h-7.42c-3.81,0-5.86-0.68-7.52-3.91l-6.25-12.11
		c-0.78-1.66-1.95-1.95-4.79-1.95h-1.76v18.07h-13.48v-42.58H508.81z M526.78,139.53c3.91,0,6.06-2.34,6.06-6.54
		c0-4.2-2.15-6.45-5.86-6.45h-4.88v12.99H526.78z"/>
	<path class="st2" d="M550.32,157.6h1.47c1.17,0,1.66-0.29,1.95-1.66l14.65-40.73h13.97l14.65,40.73c0.49,1.27,0.78,1.66,1.95,1.66
		h1.47v11.13h-8.69c-3.81,0-5.27-1.17-6.25-4.3l-2.34-6.93h-15.63l-2.34,6.93c-0.98,3.32-2.64,4.3-6.25,4.3h-8.69L550.32,157.6
		L550.32,157.6z M580.31,146.76l-2.64-8.89c-0.98-3.42-2.15-8.89-2.15-8.89h-0.29c0,0-1.17,5.37-2.15,8.89l-2.64,8.89H580.31z"/>
</g>
<g>
	<path class="st2" d="M141.38,85.42h13.48v2.44c0,4.88,2.34,6.45,4.88,6.45c2.83,0,4.79-1.76,4.79-5.76V65.11
		c0-0.98-0.68-1.66-1.66-1.66h-12.79V52.31h22.27c3.81,0,5.37,1.66,5.37,5.37v31.55c0,11.82-9.18,17.39-18.17,17.39
		s-18.17-5.76-18.17-17.39C141.38,89.23,141.38,85.42,141.38,85.42z"/>
	<path class="st2" d="M187.77,63.45h-4.88V52.31h25.1c10.35,0,17.68,6.06,17.68,16.9c0,10.65-7.91,13.97-7.91,13.97v0.2
		c0,0,2.15,0.78,3.32,3.32l3.42,6.45c0.78,1.66,2.15,1.66,3.61,1.66h0.78v10.94h-7.42c-3.81,0-5.86-0.68-7.52-3.91l-6.25-12.11
		c-0.78-1.66-1.95-1.95-4.79-1.95h-1.95v17.97h-13.48L187.77,63.45L187.77,63.45z M205.84,76.44c3.91,0,6.06-2.34,6.06-6.54
		c0-4.3-2.15-6.45-5.86-6.45h-4.88v12.99H205.84z"/>
</g>
</svg>
