<?xml version="1.0" encoding="utf-8"?>
<!-- Generator: Adobe Illustrator 27.5.0, SVG Export Plug-In . SVG Version: 6.00 Build 0)  -->
<svg version="1.1" id="Camada_1" xmlns="http://www.w3.org/2000/svg" xmlns:xlink="http://www.w3.org/1999/xlink" x="0px" y="0px"
	 viewBox="0 0 304 208" style="enable-background:new 0 0 304 208;" xml:space="preserve">
<style type="text/css">
	.st0{fill:#FF0000;}
	.st1{fill:#FFFFFF;}
</style>
<path class="st0" d="M293.1,112.4c0,15.6,0,31.2,0,46.9c0,1.7-0.1,3.3-0.2,5c-0.2,3.1-1.4,4-4.4,2.4c-11.6-6.2-23.4-12.2-35.1-18.3
	c-8.2-4.3-16.4-8.5-24.6-12.8c-7.7-4-8.7-12.3-2.1-16.8c3.9-2.6,7.8-1.6,11.6,0.4c10.1,5.3,20.1,10.6,30.1,15.9
	c5,2.7,5.5,2.4,5.5-3.4c0-13.2,0-26.4,0-39.6c0-4.3-0.6-4.6-4.4-2.7c-10.2,5.3-20.4,10.6-30.7,16c-1.9,1-3.8,1.9-6,2.1
	c-6.2,0.6-10-2.5-10.1-8.7c-0.2-7.6,0-15.2-0.1-22.7c-0.1-5.1-0.4-10.3-0.6-15.4c-0.3-8.1-4.3-12.2-12.6-12.2c-10-0.1-20,0-30,0
	c-21.1,0-42.2,0-63.2,0.2c-3.4,0-4.8-1-4-4.6c0.7-3.3,0.6-6.6-0.2-9.9c-0.7-2.8-0.1-4.3,3.2-4.3c32.6,0.1,65.2-0.1,97.8,0.2
	c15.4,0.1,27.8,13,28.1,28.5c0.1,6.5,0.2,13,0,19.6c-0.1,4,1.2,4.4,4.5,2.6c12.7-6.7,25.5-13.4,38.3-20c1.6-0.8,3.2-1.7,4.9-2.5
	c2.5-1.2,3.8-0.2,4,2.4c0.2,1.7,0.2,3.3,0.2,5C293.1,81.1,293.1,96.8,293.1,112.4z"/>
<path class="st0" d="M19.2,78.7c0,6.1,0.1,12.1,0,18.2c-0.1,6.7-3.5,10.5-9.3,10.7c-6,0.1-9.6-3.2-9.6-10.1c-0.1-14-0.8-28,0.5-41.9
	c1.3-14.1,13.6-25.5,27.7-25.7c7.3-0.1,14.5,0.1,21.8-0.1c4-0.1,5.1,1.5,4.3,5.2c-0.7,3.1-0.9,6.3,0,9.4c0.8,2.9-0.6,3.9-3.3,3.9
	c-6.4,0-12.7-0.1-19.1,0c-9.1,0.1-13,4-13.1,13.1C19.1,67.2,19.2,72.9,19.2,78.7z"/>
<path class="st1" d="M167.2,111.9c0-9.6,0.1-19.1-0.1-28.7c-0.1-3.8,1-5.5,5.1-5.4c10,0.2,20,0.2,30,0c3.5-0.1,4.8,1.1,4.8,4.7
	c0,8.5,0.2,8.5-8.2,8.5c-4.1,0-8.2,0.1-12.3,0c-3-0.1-4.6,1-4.3,4.2c0.1,0.9,0.1,1.8,0,2.7c-0.5,4,1,5.8,5.4,5.6
	c5.4-0.3,10.9,0,16.4-0.1c2.1,0,3,0.5,3,2.8c-0.3,12.3,1.7,10.2-9.8,10.4c-3.8,0.1-7.6,0.1-11.4,0c-2.5,0-3.6,1-3.6,3.5
	c0.1,14.2-1.4,11.4,10.5,11.6c3.3,0.1,6.7,0.1,10,0c3-0.1,4.4,0.9,4.3,4.2c-0.3,10.6,1.3,8.9-8.8,9c-8.3,0.1-16.7,0-25,0
	c-6,0-6,0-6-5.8C167.2,130,167.2,121,167.2,111.9z"/>
<path class="st1" d="M129.1,127.5c3.9-15.2,9.2-28.9,13.1-43.1c1.4-4.9,3.5-6.8,8.8-6.6c10.8,0.5,10.8-0.9,6.7,10
	c-6.5,17.5-13.1,34.9-19.5,52.4c-1.3,3.5-3,5-6.9,4.9c-11-0.4-8.8,1.4-12.6-8.9c-6.5-17.8-13.2-35.5-19.8-53.3
	c-1.7-4.5-1.4-4.9,3.4-5c11.7-0.3,11.7-0.3,15.2,11C121.3,101.4,125.6,113.7,129.1,127.5z"/>
<path class="st0" d="M105.4,39C105,51.8,95,61.3,82.4,60.9c-11.5-0.4-21.2-10.6-21-22C61.6,26.2,71.9,16.8,85,17.2
	C95.8,17.6,105.7,28.2,105.4,39z"/>
<path class="st1" d="M44.9,104.9c0,7.3,0.2,14.6-0.1,21.8c-0.2,4.1,1.4,5.3,5.3,5.1c4.4-0.3,8.8,0,13.2-0.1c3-0.1,4.3,1.2,4.4,4.3
	c0.3,8.9,0.4,8.9-8.3,8.9c-8.3,0-16.7-0.1-25,0c-3.3,0.1-4.6-1-4.6-4.4c0.1-19.4,0.1-38.8,0-58.2c0-3.3,1.2-4.6,4.5-4.5
	C46.7,78,44.7,76.6,44.9,88C45,93.7,44.9,99.3,44.9,104.9z"/>
<path class="st1" d="M75.6,111c0-9.2,0.1-18.5-0.1-27.7c-0.1-3.7,1-5.5,5.1-5.4c11.7,0.3,10.5-1.5,10.5,10.4c0,16.8,0,33.7,0,50.5
	c0,6.1-0.1,6.3-6,6.2c-10.1-0.1-9.6,1.6-9.6-9.4C75.6,127.4,75.6,119.2,75.6,111z"/>
</svg>
