<?xml version="1.0" encoding="utf-8"?>
<!-- Generator: Adobe Illustrator 26.0.0, SVG Export Plug-In . SVG Version: 6.00 Build 0)  -->
<svg version="1.1" id="Camada_1" xmlns="http://www.w3.org/2000/svg" xmlns:xlink="http://www.w3.org/1999/xlink" x="0px" y="0px"
	 viewBox="0 0 16 16" style="enable-background:new 0 0 16 16;" xml:space="preserve">
<style type="text/css">
	.st0{fill:#7B170F;}
	.st1{fill:#E52421;}
	.st2{fill:#FFFFFF;}
	.st3{fill:#891812;}
</style>
<path class="st0" d="M0.97,12.05c-0.16-0.09-0.26-0.26-0.26-0.44V4.08c0-0.38,0.41-0.63,0.75-0.44l6.59,3.68c0,0,0.01,6,0,8.43
	c0,0-0.22,0-0.27,0c-0.14,0-0.28-0.02-0.39-0.08L0.97,12.05z"/>
<path class="st1" d="M15.14,12.05c0.16-0.09,0.26-0.26,0.26-0.44V4.08c0-0.38-0.41-0.63-0.75-0.44L8.06,7.32c0,0-0.01,6,0,8.43
	c0,0,0.22,0,0.27,0c0.14,0,0.28-0.02,0.39-0.08L15.14,12.05z"/>
<g>
	<path class="st2" d="M2.44,6.23L1.78,5.82c-0.06-0.03-0.1-0.09-0.1-0.15L1.65,5.06C1.64,4.93,1.77,4.83,1.9,4.88l0.63,0.39
		c0.07,0.03,0.11,0.09,0.12,0.16l0.04,0.68C2.69,6.25,2.56,6.3,2.44,6.23z"/>
	<path class="st2" d="M4.07,7.08L3.41,6.66c-0.06-0.03-0.1-0.09-0.1-0.15L3.28,5.9C3.27,5.77,3.4,5.67,3.53,5.72l0.63,0.39
		C4.22,6.13,4.27,6.2,4.27,6.27l0.04,0.68C4.32,7.1,4.19,7.14,4.07,7.08z"/>
	<path class="st2" d="M5.66,7.92L5.01,7.51c-0.06-0.03-0.1-0.09-0.1-0.15L4.88,6.75C4.87,6.61,5,6.52,5.12,6.56l0.63,0.39
		c0.07,0.03,0.11,0.09,0.12,0.16L5.91,7.8C5.92,7.94,5.79,7.99,5.66,7.92z"/>
	<path class="st2" d="M7.33,8.78L6.67,8.37c-0.06-0.03-0.1-0.09-0.1-0.15L6.54,7.61C6.53,7.47,6.67,7.38,6.79,7.42l0.63,0.39
		C7.48,7.84,7.53,7.9,7.53,7.97l0.04,0.68C7.58,8.8,7.46,8.85,7.33,8.78z"/>
	<path class="st3" d="M9.81,2.13L9.18,1.69C9.12,1.65,9.09,1.59,9.09,1.53V0.92c0-0.13,0.14-0.22,0.26-0.17l0.6,0.42
		c0.07,0.03,0.11,0.1,0.11,0.17v0.69C10.06,2.17,9.93,2.21,9.81,2.13z"/>
	<path class="st3" d="M11.39,3.07l-0.63-0.45c-0.06-0.03-0.09-0.09-0.09-0.16V1.85c0-0.13,0.14-0.22,0.26-0.17l0.6,0.42
		c0.07,0.03,0.11,0.1,0.11,0.17v0.69C11.64,3.1,11.52,3.14,11.39,3.07z"/>
	<path class="st3" d="M12.94,4l-0.63-0.45c-0.06-0.03-0.09-0.09-0.09-0.16V2.78c0-0.13,0.14-0.22,0.26-0.17l0.6,0.42
		c0.07,0.03,0.11,0.1,0.11,0.17v0.69C13.19,4.03,13.06,4.07,12.94,4z"/>
	<path class="st3" d="M6.16,2.14l0.63-0.45c0.06-0.03,0.09-0.09,0.09-0.16V0.92c0-0.13-0.14-0.22-0.26-0.17l-0.6,0.42
		C5.95,1.2,5.91,1.27,5.91,1.34v0.69C5.91,2.17,6.04,2.21,6.16,2.14z"/>
	<path class="st3" d="M4.58,3.07l0.63-0.45C5.27,2.59,5.3,2.53,5.3,2.46V1.85c0-0.13-0.14-0.22-0.26-0.17L4.44,2.1
		C4.37,2.13,4.33,2.2,4.33,2.27v0.69C4.33,3.1,4.46,3.14,4.58,3.07z"/>
	<path class="st3" d="M3.03,4l0.63-0.45c0.06-0.03,0.09-0.09,0.09-0.16V2.78c0-0.13-0.14-0.22-0.26-0.17l-0.6,0.42
		c-0.07,0.03-0.11,0.1-0.11,0.17v0.69C2.78,4.04,2.91,4.07,3.03,4z"/>
	<path class="st2" d="M2.41,12.01L1.76,11.6c-0.06-0.03-0.1-0.09-0.1-0.15l-0.04-0.61c-0.01-0.13,0.12-0.23,0.25-0.18l0.63,0.38
		c0.07,0.03,0.12,0.09,0.12,0.16l0.04,0.68C2.67,12.03,2.54,12.07,2.41,12.01z"/>
	<path class="st2" d="M4.05,12.84l-0.66-0.41c-0.06-0.03-0.1-0.09-0.1-0.15l-0.04-0.61c-0.01-0.13,0.12-0.23,0.25-0.18l0.63,0.38
		c0.07,0.03,0.12,0.09,0.12,0.16l0.04,0.68C4.3,12.86,4.18,12.91,4.05,12.84z"/>
	<path class="st2" d="M5.66,13.81L5,13.4c-0.06-0.03-0.1-0.09-0.1-0.15l-0.04-0.61c-0.01-0.13,0.12-0.23,0.25-0.18l0.63,0.38
		c0.07,0.03,0.12,0.09,0.12,0.16l0.04,0.68C5.91,13.83,5.79,13.88,5.66,13.81z"/>
	<path class="st2" d="M7.33,14.66l-0.66-0.41c-0.06-0.03-0.1-0.09-0.1-0.15l-0.04-0.61c-0.01-0.13,0.12-0.23,0.25-0.18l0.63,0.38
		c0.07,0.03,0.12,0.09,0.12,0.16l0.04,0.68C7.58,14.68,7.46,14.73,7.33,14.66z"/>
	<path class="st2" d="M13.62,6.2l0.65-0.41c0.06-0.03,0.1-0.09,0.1-0.15l0.03-0.61c0.01-0.13-0.12-0.23-0.25-0.18l-0.63,0.39
		c-0.07,0.03-0.11,0.09-0.12,0.16l-0.04,0.68C13.37,6.22,13.5,6.27,13.62,6.2z"/>
	<path class="st2" d="M11.99,7.04l0.65-0.41c0.06-0.03,0.1-0.09,0.1-0.15l0.03-0.61c0.01-0.13-0.12-0.23-0.25-0.18l-0.63,0.39
		c-0.07,0.03-0.11,0.09-0.12,0.16l-0.04,0.68C11.74,7.07,11.87,7.11,11.99,7.04z"/>
	<path class="st2" d="M10.4,7.89l0.65-0.41c0.06-0.03,0.1-0.09,0.1-0.15l0.03-0.61c0.01-0.13-0.12-0.23-0.25-0.18l-0.63,0.39
		c-0.07,0.03-0.11,0.09-0.12,0.16l-0.04,0.68C10.14,7.91,10.27,7.96,10.4,7.89z"/>
	<path class="st2" d="M8.73,8.75l0.65-0.41c0.06-0.03,0.1-0.09,0.1-0.15l0.03-0.61c0.01-0.13-0.12-0.23-0.25-0.18L8.64,7.78
		C8.58,7.81,8.53,7.87,8.53,7.94L8.49,8.63C8.48,8.77,8.6,8.82,8.73,8.75z"/>
	<path class="st2" d="M13.65,11.98l0.66-0.41c0.06-0.03,0.1-0.09,0.1-0.15l0.04-0.61c0.01-0.13-0.12-0.23-0.25-0.18l-0.63,0.38
		c-0.07,0.03-0.12,0.09-0.12,0.16l-0.04,0.68C13.39,12,13.52,12.04,13.65,11.98z"/>
	<path class="st2" d="M12.01,12.81l0.66-0.41c0.06-0.03,0.1-0.09,0.1-0.15l0.04-0.61c0.01-0.13-0.12-0.23-0.25-0.18l-0.63,0.38
		c-0.07,0.03-0.12,0.09-0.12,0.16l-0.04,0.68C11.76,12.83,11.88,12.88,12.01,12.81z"/>
	<path class="st2" d="M10.4,13.78l0.66-0.41c0.06-0.03,0.1-0.09,0.1-0.15l0.04-0.61c0.01-0.13-0.12-0.23-0.25-0.18l-0.63,0.38
		c-0.07,0.03-0.12,0.09-0.12,0.16l-0.04,0.68C10.15,13.8,10.27,13.85,10.4,13.78z"/>
	<path class="st2" d="M8.73,14.63l0.66-0.41c0.06-0.03,0.1-0.09,0.1-0.15l0.04-0.61c0.01-0.13-0.12-0.23-0.25-0.18l-0.63,0.38
		c-0.07,0.03-0.12,0.09-0.12,0.16l-0.04,0.68C8.48,14.65,8.6,14.69,8.73,14.63z"/>
</g>
</svg>
