<?xml version="1.0" encoding="UTF-8"?>
<svg id="Camada_1" data-name="Camada 1" xmlns="http://www.w3.org/2000/svg" viewBox="0 0 78.88 78.78">
  <defs>
    <style>
      .cls-1 {
        fill: #fff;
      }

      .cls-2 {
        fill: #e41a19;
      }
    </style>
  </defs>
  <path class="cls-1" d="m39.42,55.63c-1.51.19-3.13-.19-4.64-.8-1.78-.7-3.45-1.64-4.89-2.96-2.17-2-3.74-4.35-4.6-7.17-.27-.89-.42-1.81-.45-2.73-.04-1.32-.2-2.64-.05-3.97.07-.65.03-1.32-.04-1.98-.09-.83.09-1.68.04-2.51-.13-2.04.1-4.08-.05-6.11-.05-.74.1-1.5.05-2.24-.14-2.04.07-4.07-.05-6.11-.07-1.14.1-2.3.04-3.45-.07-1.3.06-2.57.24-3.85.31-2.24,1.27-4.2,2.62-5.96C30.84,1.62,35.09-.29,40.31.03c2.03.12,4.01.61,5.79,1.64,2.13,1.23,3.95,2.82,5.38,4.87,1.41,2.02,2.28,4.22,2.51,6.67.07.76.17,1.52.1,2.29-.07.67-.05,1.36.02,2.04.08.82-.07,1.64-.03,2.45.11,2.07-.09,4.15.04,6.22.05.76-.1,1.54-.05,2.3.13,2.04-.09,4.08.05,6.11.05.76.03,1.53-.05,2.3-.06.59.04,1.18.04,1.77.02,1.78.04,3.56-.28,5.32-.45,2.44-1.56,4.57-3.11,6.49-.83,1.03-1.85,1.84-2.88,2.64-.71.55-1.56.85-2.35,1.25-1.86.94-3.84,1.32-6.09,1.23Zm.02-28.7c3.42,0,6.84,0,10.26.01.53,0,.69-.17.69-.69-.02-4.03.01-8.06-.02-12.09-.02-2.68-.93-5.08-2.74-7.06-1.92-2.1-4.38-3.14-7.21-3.35-3.17-.23-5.94.78-8.26,2.87-2.37,2.12-3.62,4.84-3.64,8.05-.03,3.84,0,7.68,0,11.52,0,.73,0,.74.72.74,3.4,0,6.81,0,10.21,0Zm-10.93,10.28c.15,1.67-.2,3.87.19,6.06.39,2.13,1.26,4,2.77,5.52,2.07,2.09,4.65,3.11,7.57,3.16,2.02.03,3.9-.46,5.69-1.48,3.52-2.02,5.39-5.09,5.61-9.05.19-3.36.03-6.73.04-10.1,0-.5-.2-.61-.65-.62-1.2-.04-2.4-.03-3.6-.02-1.55.02-3.1,0-4.64,0-1.27,0-2.54,0-3.81,0-1.51,0-3.03,0-4.54.02-1.27.02-2.54-.13-3.81,0-.81.08-.82.02-.82.81,0,1.73,0,3.45,0,5.7Z"/>
  <path class="cls-1" d="m39.69,78.77c-3.46,0-6.91,0-10.37,0-.71,0-1.32-.17-1.82-.73-.4-.44-.61-.91-.6-1.5.02-2.39,1.01-4.27,2.81-5.82,1.28-1.1,2.76-1.59,4.38-1.75.47-.05.6-.25.56-.67-.2-2.02.1-4.04-.07-6.06-.04-.41-.19-.58-.57-.67-2.8-.66-5.28-2-7.52-3.76-1.73-1.36-3.23-2.95-4.53-4.75-1.62-2.23-2.62-4.72-3.37-7.32-.44-1.52-.57-3.12-.58-4.71,0-.75.2-1.4.95-1.71.73-.3,1.36-.13,1.98.38.67.55.85,1.25.84,2.04-.01,2.07.4,4.07,1.17,5.97,1.16,2.86,2.9,5.32,5.35,7.23,2.07,1.61,4.39,2.65,6.95,3.26,2.32.56,4.64.65,6.95.22,2.13-.4,4.22-1.04,6.07-2.2,2.98-1.86,5.37-4.28,6.95-7.48,1.21-2.44,1.86-4.98,1.86-7.7,0-.74.19-1.44.99-1.74.77-.29,1.37-.02,2.01.48.86.69.82,1.56.76,2.46-.04.63-.12,1.25-.2,1.87-.39,3.19-1.58,6.1-3.31,8.79-1.07,1.66-2.4,3.11-3.9,4.41-2.02,1.74-4.3,3.02-6.79,3.91-.54.19-1.1.33-1.67.45-.51.11-.67.36-.7.9-.08,1.43-.02,2.86.01,4.29.01.54-.04,1.08-.07,1.62-.02.36.11.53.5.56,1.7.16,3.21.78,4.4,2.04.49.52,1.12.9,1.5,1.52.86,1.38,1.39,2.84,1.35,4.49-.03,1.04-.55,1.62-1.6,1.67-.66.03-1.33.02-1.99.02-2.9,0-5.79,0-8.69,0h0Zm-.09-6.07c-1.55,0-3.11-.05-4.65.02-1.39.06-2.63.52-3.43,1.77-.08.13-.27.23-.2.4.08.19.3.12.47.14,1.39.18,2.78.02,4.17.04,3.83.04,7.67.07,11.5-.01.31,0,.45-.11.29-.41-.31-.62-.69-1.16-1.38-1.43-.77-.31-1.54-.52-2.38-.52-1.46.01-2.93,0-4.39,0Zm1.02-8.18c.04-.54-.08-1.08-.08-1.62,0-.33-.16-.47-.48-.47-.44,0-.88,0-1.3-.06-.39-.06-.51.1-.49.45.06.84.14,1.67.06,2.51-.1,1.01-.04,2.02,0,3.03.02.39.16.59.56.57.33-.01.66,0,.99,0,.68,0,.77-.05.71-.7-.11-1.24-.05-2.47.02-3.71Z"/>
  <path class="cls-2" d="m78.86,23.02c0,4.15,0,8.3,0,12.45,0,1.04-.52,1.69-1.45,1.8-.45.06-.84-.09-1.21-.36-.97-.73-1.31-1.66-1.05-2.84.06-.28.06-.59.03-.89-.22-1.93.15-3.86-.07-5.79-.08-.71.08-1.43.06-2.14-.03-1.72.06-3.45-.02-5.17-.09-1.76.2-3.52-.04-5.27-.1-.74.07-1.5.07-2.24,0-.85-.06-1.71-.08-2.56-.02-.84.46-1.38,1.17-1.7.69-.31,1.26-.02,1.79.47.58.54.82,1.15.82,1.95-.02,4.1-.01,8.2-.01,12.3Z"/>
  <path class="cls-2" d="m.01,34.78c.2-1.93.02-3.86.03-5.79,0-1.93.03-3.86,0-5.8-.02-2.03-.1-4.07.02-6.11.04-.75-.04-1.5-.05-2.25-.02-1.62.09-3.24,0-4.86-.05-.78.45-1.49,1.07-1.7.68-.24,1.29.01,1.92.6.7.66.9,1.41.72,2.32-.04.22-.05.45-.03.68.21,2-.13,4,.07,6,.07.73-.08,1.46-.06,2.19.04,1.72-.07,3.45.02,5.17.09,1.76-.17,3.51.03,5.27.09.79-.06,1.6-.06,2.4,0,.87.07,1.74.08,2.61,0,.71-.46,1.4-1.08,1.65-.67.27-1.31.08-1.9-.47-.57-.53-.87-1.13-.78-1.9Z"/>
  <path class="cls-2" d="m12.25,24.62c0-3.4,0-6.81,0-10.21,0-1.37,1.23-2.12,2.43-1.51.93.47,1.36,1.43,1.3,2.47-.08,1.46-.05,2.93-.05,4.39,0,4.68,0,9.35,0,14.03,0,.47.1.94.08,1.41-.06,1.27-1,2.03-2.12,1.76-.85-.21-1.64-1.22-1.64-2.13,0-3,0-6,0-9,0-.4,0-.8,0-1.2,0,0,0,0,0,0Z"/>
  <path class="cls-2" d="m6.08,23.25c0-2.42,0-4.85,0-7.27,0-1.21,1.2-2.09,2.25-1.69.73.28,1.52,1.41,1.53,2.21,0,3.09,0,6.17,0,9.26,0,1.74,0,3.49-.01,5.23-.02,1.25-.97,2.08-2.02,1.77-.79-.24-1.76-1.08-1.75-2.23.03-2.42,0-4.85,0-7.27h-.01Z"/>
  <path class="cls-2" d="m72.79,23.75c0,2.43,0,4.85,0,7.28,0,.76-.28,1.35-1.03,1.65-.73.3-1.32.05-1.88-.42-.6-.51-.85-1.15-.85-1.94,0-4.73,0-9.46,0-14.19,0-.55.14-1.03.55-1.42.73-.69,1.46-.68,2.24-.03.71.6,1.05,1.29,1.02,2.27-.07,2.27-.02,4.54-.02,6.8,0,0,0,0-.01,0Z"/>
  <path class="cls-2" d="m62.93,21.34c0-2.35,0-4.71,0-7.06,0-.75.44-1.22,1.06-1.47.64-.27,1.26-.12,1.79.37.54.5.86,1.05.86,1.82-.02,4.52-.01,9.04-.02,13.55,0,.19,0,.39-.02.57-.17,1.25-1.53,1.83-2.53,1.07-.7-.54-1.17-1.17-1.15-2.15.06-2.23.02-4.47.02-6.7h0Z"/>
  <path class="cls-2" d="m56.75,24.69c.21-1.48.05-2.95.01-4.43,0-.41.05-.8.19-1.18.42-1.12,1.68-1.38,2.6-.62.99.81,1.2,1.82,1.05,2.99-.11.89-.09,1.77,0,2.66.11,1.22-.03,2.44-.12,3.65-.09,1.12-1.49,1.64-2.47.99-.77-.52-1.26-1.18-1.16-2.17.06-.63-.16-1.25-.1-1.88Z"/>
  <path class="cls-2" d="m22.1,20.8c-.19,2.19.08,4.39-.07,6.58-.05.68-.26,1.17-.89,1.46-.66.31-1.27.2-1.81-.23-.64-.51-1.02-1.14-1.01-2.02.04-1.76.01-3.52,0-5.29,0-.59-.13-1.17,0-1.77.16-.7.51-1.22,1.22-1.43.69-.21,1.24.03,1.75.52.63.61.87,1.33.81,2.17Z"/>
  <path class="cls-2" d="m39.23,11.23c1.2,0,2.41.06,3.61-.02.95-.06,2.21,1.31,2.18,2.24-.02.71-.66,1.42-1.39,1.46-1.06.06-2.11.15-3.18.04-.67-.07-1.35-.04-2.03.03-.94.1-1.91.13-2.81-.11-1.3-.35-2.37-1.72-1.2-3.17.29-.35.68-.47,1.12-.47,1.24,0,2.47,0,3.71,0,0,0,0,0,0,0Z"/>
  <path class="cls-2" d="m39.22,16.98c1.19,0,2.37,0,3.56,0,.9,0,1.99.85,2.21,1.71.27,1.07-.77,2.12-1.98,2.04-2.19-.14-4.39-.08-6.59-.03-1.07.03-2.07-.55-2.44-1.54-.4-1.06.31-2.14,1.46-2.17,1.25-.03,2.51,0,3.77,0h0Z"/>
</svg>