<?xml version="1.0" encoding="utf-8"?>
<!-- Generator: Adobe Illustrator 27.5.0, SVG Export Plug-In . SVG Version: 6.00 Build 0)  -->
<svg version="1.1" id="Camada_1" xmlns="http://www.w3.org/2000/svg" xmlns:xlink="http://www.w3.org/1999/xlink" x="0px" y="0px"
	 viewBox="0 0 304 208" style="enable-background:new 0 0 304 208;" xml:space="preserve">
<style type="text/css">
	.st0{fill:#FFFFFF;}
	.st1{fill:#FF0000;}
</style>
<path class="st0" d="M124.7,117.9c0-3.5,0-6.9,0-10.4c0-1,0.2-1.4,1.3-1.3c1.7,0.1,3.5,0.1,5.2,0c1.8,0,3.3-1.5,3.2-3.2
	s-1.5-2.9-3.3-2.9c-1.7,0-3.4,0-5.1,0c-1,0-1.3-0.4-1.3-1.3c0.1-4.6-0.6-3.8,3.6-3.8c1,0,2.1,0,3.1,0c1.7-0.1,3-1.4,3-2.9
	c0.1-1.5-1.3-3.1-2.9-3.2c-1.8-0.1-3.6-0.1-5.4,0c-1.1,0-1.5-0.3-1.5-1.4c0-3.5,0-3.5,3.5-3.5c0.9,0,1.8,0,2.7,0
	c1.9,0,3.4-1.4,3.5-3.1s-1.4-3.2-3.3-3.2c-1.7-0.1-3.4-0.1-5.1,0c-1.1,0.1-1.4-0.3-1.3-1.4c0.1-0.8,0-1.6,0-2.4
	c0-0.9,0.3-1.2,1.2-1.2c1.8,0,3.6,0,5.4,0c1.5,0,2.5-0.8,3-2.2c0.4-1.1,0-2.5-1-3.4c-0.5-0.5-1.2-0.6-1.8-0.6c-1.8,0-3.6,0-5.4,0
	c-1,0-1.3-0.4-1.3-1.3c-0.1-3.7-0.1-3.7,3.6-3.7c1,0,2,0,3,0c1.8,0,3.2-1.4,3.2-3c0-1.7-1.4-3.1-3.1-3.1c-1.7,0-3.5-0.1-5.2,0
	c-1.2,0.1-1.4-0.5-1.3-1.5c1-12.1,10.1-22.3,22-24.6c15-3,29.6,7.1,32.1,22.2c0.1,0.8,0.2,1.7,0.3,2.5c0.2,1.1-0.3,1.4-1.3,1.4
	c-1.7,0-3.4,0-5.1,0c-1.8,0.1-3.1,1.3-3.2,2.9c-0.1,1.6,0.9,3,2.7,3.3c1.9,0.3,3.8,0.2,5.7,0.1c1,0,1.3,0.3,1.3,1.3
	c0,0.8,0,1.6,0,2.4c0,0.9-0.3,1.4-1.3,1.3c-1.7-0.1-3.4,0-5.1,0c-2,0-3.3,1.3-3.3,3.1c0,1.7,1.4,3,3.3,3c1.7,0,3.5,0,5.2,0
	c0.8,0,1.2,0.3,1.2,1.2c0,0.9,0,1.8,0,2.6c0,0.9-0.4,1.1-1.2,1.1c-1.6-0.1-3.2,0-4.9,0c-1,0-2,0.3-2.8,1c-0.9,0.8-1.1,1.8-0.8,2.8
	c0.4,1.3,1.3,2.3,2.7,2.4c1.7,0.1,3.5,0.1,5.2,0.1s1.7,0,1.7,1.7c0,3.8,0.4,3.2-3.3,3.2c-1.1,0-2.3,0-3.4,0
	c-1.8,0.1-3.1,1.4-3.1,3.1s1.4,3,3.1,3.1c1.7,0,3.5,0,5.2-0.1c1.1-0.1,1.4,0.4,1.4,1.4c-0.1,0.9,0,1.7,0,2.6c0,0.8-0.3,1.2-1.2,1.2
	c-1.8,0-3.6,0-5.4,0c-1.7,0-3.1,1.3-3.1,2.9c-0.1,1.7,1.1,3,2.9,3.1c1.9,0.1,3.7,0.1,5.6,0c0.9,0,1.3,0.2,1.3,1.2
	c0,6.7,0.1,13.3-0.1,20c-0.3,14-10.8,25.5-24.6,26.9c-11.1,1.1-22-5.1-27-15c-2-4-2.9-8.1-3-12.5
	C124.7,123.8,124.7,120.9,124.7,117.9L124.7,117.9z"/>
<path class="st0" d="M152,179.3c-7,0-14.1,0-21.1,0c-2,0-2.2-0.3-1.4-2.1c0.9-2.2,2.7-2.9,4.8-2.9c3,0,5.9,0,8.9,0
	c1.1,0,2.1-0.2,3.1-0.7c1.8-0.8,2.8-2,2.7-4.1c-0.1-1.2,0-2.4,0-3.6c0-2.7-1.1-3.9-3.7-4.3c-13.2-2.3-24.3-13.2-26.8-26.4
	c-0.8-4.2-0.7-8.5-0.7-12.7c0-1.7,0-3.4,0-5.1c0-1.2-0.1-2.3-0.8-3.3c-0.8-1.2-0.2-2.1,1.2-2.2c0.9-0.1,1.8,0,2.7,0
	c1.6,0.1,2.2,1.2,1.3,2.4c-0.6,0.9-0.7,1.7-0.7,2.7c0,3.7,0,7.5,0,11.2c0,15.1,11.4,27.9,26.4,29.9c15.7,2,30.2-7.9,33.8-23.2
	c0.5-2.1,0.7-4.3,0.7-6.4c0-4.2,0-8.3,0-12.5c0-0.6-0.3-1.1-0.6-1.6c-1-1.3-0.4-2.5,1.2-2.6c1-0.1,1.9,0,2.9,0
	c1.2,0.1,1.8,0.8,1.2,1.8c-1.3,2.5-0.8,5-0.7,7.6c0.2,6.9,0.2,13.7-2.7,20.1c-4.8,11-13.2,17.7-25,20.2c-2.7,0.6-3.5,1.4-3.5,4.2
	c0,1.5,0,3.1,0,4.6c0,1.1,0.5,1.8,1.3,2.4c1.3,0.8,2.6,1.4,4.2,1.4c3.2,0,6.3,0,9.5,0c2.4,0,3.8,1,4.6,3.2c0.6,1.5,0.3,1.9-1.3,1.9
	C166.4,179.3,159.2,179.3,152,179.3L152,179.3z"/>
<path class="st1" d="M208.9,106.7c0-14,0-27.9,0-41.9c0-3.1,2.3-5,5.3-4.3c1.9,0.4,3.1,2,3.1,4.1c0,1.6,0,3.2,0,4.9
	c0,26.2,0,52.4,0,78.6c0,1.8-0.5,3.2-2.1,4.3c-2.7,1.8-6.1-0.4-6.3-3.2c0-0.5,0-1,0-1.5C208.9,134,208.9,120.3,208.9,106.7z"/>
<path class="st1" d="M95.1,106.8c0,13.9,0,27.7,0,41.6c0,1.8-0.6,3.2-2.2,4.1c-2.4,1.4-5.2,0.1-6-2.6c-0.2-0.7-0.2-1.5-0.2-2.2
	c0-27.3,0-54.7,0-82c0-1.1,0.1-2.2,0.7-3.3c0.9-1.6,2.6-2.3,4.5-1.9c1.8,0.4,3.1,1.9,3.2,3.7c0,1,0,1.9,0,2.9
	C95.1,80.3,95.1,93.5,95.1,106.8z"/>
<path class="st1" d="M202.6,106.8c0,10.7,0,21.5,0,32.2c0,2.5-1.2,4.1-3.3,4.5c-2.6,0.5-4.8-1.3-4.8-4c-0.1-7.5-0.1-15-0.1-22.5
	c-0.1-11.8,0-23.6-0.1-35.5c0-2.7,0.1-5.3,0.2-8c0.1-2.2,1.6-3.7,3.7-3.9c2.2-0.2,4,1.2,4.4,3.4c0.1,0.7,0.1,1.5,0.1,2.2
	C202.6,85.8,202.6,96.3,202.6,106.8z"/>
<path class="st1" d="M109.6,106.8c0,10.9,0,21.8,0,32.7c0,1.9-1,3.4-2.7,3.9c-1.8,0.6-3.6,0-4.7-1.5c-0.7-1-0.8-2.1-0.8-3.2
	c0-8.9,0-17.7,0-26.6c0-12.3,0-24.6,0-36.8c0-0.7,0-1.4,0.1-2.1c0.4-2.2,2.2-3.6,4.5-3.4c2,0.2,3.5,1.8,3.5,4
	C109.6,84.7,109.6,95.8,109.6,106.8L109.6,106.8z"/>
<path class="st1" d="M80.6,106.6c0,6.4,0,12.8,0,19.2c0,2.3-1.5,4.1-3.8,4.4c-2,0.2-4-1.4-4.5-3.5c-0.1-0.5-0.2-1.1-0.2-1.6
	c0-12.4,0-24.7,0-37.1c0-2.7,1.2-4.3,3.3-4.8c2.7-0.6,5.1,1.2,5.1,4C80.6,93.7,80.6,100.2,80.6,106.6L80.6,106.6z"/>
<path class="st1" d="M223.4,106.5c0-6.4,0-12.8,0-19.1c0-2,1-3.4,2.6-4s3.5-0.2,4.7,1.1c0.9,1.1,1.1,2.4,1.1,3.7
	c0,10.7,0,21.4,0,32.1c0,1.8,0.1,3.7,0,5.5c-0.2,3.1-2.8,5.1-5.4,4.1c-1.7-0.6-2.9-2.3-2.9-4.3C223.4,119.4,223.4,112.9,223.4,106.5
	z"/>
<path class="st1" d="M66.5,106.3c-0.1,1-0.1,2.3-0.2,3.7c-0.1,1.9-1.4,3.4-3.3,3.7c-2.3,0.3-4.1-0.7-4.6-2.7c-0.6-2.8-0.6-5.6,0-8.4
	c0.4-1.8,2.2-3,4-2.9c1.9,0.1,3.4,1.4,3.9,3.3C66.6,103.8,66.5,104.9,66.5,106.3z"/>
<path class="st1" d="M237.7,106.6c0-1,0-1.9,0-2.9c0.1-2.4,1.6-4,3.9-4.2c2-0.1,3.9,1.4,4.1,3.6c0.3,2.4,0.3,4.8,0,7.2
	c-0.2,2.2-2,3.4-4.4,3.2c-2.1-0.1-3.5-1.6-3.6-3.8C237.7,108.8,237.7,107.7,237.7,106.6L237.7,106.6z"/>
</svg>
