<?xml version="1.0" encoding="utf-8"?>
<!-- Generator: Adobe Illustrator 27.5.0, SVG Export Plug-In . SVG Version: 6.00 Build 0)  -->
<svg version="1.1" id="Camada_1" xmlns="http://www.w3.org/2000/svg" xmlns:xlink="http://www.w3.org/1999/xlink" x="0px" y="0px"
	 viewBox="0 0 304 208" style="enable-background:new 0 0 304 208;" xml:space="preserve">
<style type="text/css">
	.st0{fill:#FFFFFF;}
	.st1{fill:#FF0000;}
</style>
<path class="st0" d="M189,88.7c0,17.8,0,35.6,0,53.4c0,0.2,0,0.5,0,0.7c-0.1,3.7-1.5,5.1-5.2,5.1c-32.6,0.3-65.1,0.1-97.7,0.2
	c-2,0-4.1-0.1-6.1-0.2c-2.4-0.1-3.6-1.2-4-3.6c-0.1-0.7-0.2-1.5-0.2-2.2c0-35.4,0-70.8,0-106.3c0-0.6,0-1.2,0-1.9
	c0.2-2.9,1.8-4.4,4.8-4.4c34.4,0,68.8,0,103.2,0c3.4,0,5,1.6,5,5C189,52.7,189,70.7,189,88.7L189,88.7z M138,130.5L138,130.5
	c-0.1,2.3-0.1,4.6,0,7c0,2.3,0.1,2.4,2.4,2.4c4.7,0,9.4,0,14.1,0c1.9,0,2.1-0.2,2.1-2.2c0-4.9,0-9.7,0-14.6c0-1.8-0.3-2-2-2
	c-4.5,0-9,0-13.6,0c-0.5,0-0.9,0-1.4,0.1c-1.1,0.1-1.7,0.6-1.6,1.8C138.1,125.5,138,128,138,130.5z M84.3,130.4c0,2.6,0,5.2,0,7.8
	c0,1.1,0.4,1.6,1.5,1.6c5.2,0,10.4,0,15.5,0c1.1,0,1.5-0.5,1.5-1.6c0-5,0-10,0-15c0-1.9-0.2-2.1-2.1-2.1c-4.7,0-9.4,0-14,0
	c-0.4,0-0.8,0.1-1.2,0.1c-0.9,0.1-1.2,0.5-1.2,1.4C84.3,125.2,84.3,127.8,84.3,130.4z M84.3,103.5c0,2.7,0,5.4,0,8.1
	c0,0.9,0.2,1.4,1.3,1.4c5.3,0,10.6,0,15.9,0c0.8,0,1.2-0.4,1.3-1.1c0.1-0.6,0.1-1.2,0.1-1.9c0-4.4,0-8.9,0-13.3
	c0-2.4-0.2-2.6-2.7-2.5c-0.2,0-0.3,0-0.5,0c-2.2,0.2-4.5,0.1-6.7,0c-2.3-0.1-4.6-0.1-7,0c-1.1,0-1.7,0.4-1.7,1.7
	C84.3,98.5,84.3,101,84.3,103.5z M129.7,130.6L129.7,130.6c0-2.5,0-5,0-7.5c0-1.7-0.3-2-2-2c-4.8,0-9.7,0-14.5,0c-1.6,0-2,0.3-2,2
	c0,4.9,0,9.8,0,14.7c0,1.9,0.2,2.1,2.1,2.2c4.8,0,9.7,0,14.5,0c1.5,0,1.8-0.3,1.9-1.8C129.7,135.6,129.7,133.1,129.7,130.6z
	 M93.4,67.6c-2.7,0-5.3,0-8,0c-0.8,0-1.2,0.3-1.2,1.2c0,5.3,0,10.6,0,15.9c0,1,0.4,1.4,1.4,1.4c5.2,0,10.5,0,15.7,0
	c0.8,0,1.2-0.4,1.5-1.2c0.3-1.1,0-2.1,0-3.2c0-4,0-8,0-11.9c0-2.1-0.1-2.1-2.1-2.1C98.3,67.6,95.8,67.6,93.4,67.6z M138,76.7
	L138,76.7c-0.1,2.4-0.1,4.7,0,7.1c0,2.2,0.1,2.2,2.2,2.3c0.5,0,0.9,0,1.4,0c4.3,0,8.5,0,12.8,0c2,0,2.2-0.2,2.2-2.2
	c0-4.8,0-9.6,0-14.4c0-1.5-0.3-1.9-1.8-1.9c-5.1,0-10.3,0-15.4,0c-1,0-1.4,0.4-1.4,1.4C138.1,71.5,138,74.1,138,76.7z M111.1,103.5
	c0,2.4,0,4.7,0,7.1c0,2.2,0.1,2.4,2.4,2.4c4.6,0,9.2,0,13.8,0c2.1,0,2.3-0.2,2.3-2.4c0-4.8,0-9.5,0-14.3c0-1.9-0.2-2.1-2.1-2.1
	c-4.7,0.1-9.4,0.2-14,0c-0.4,0-0.7,0-1.1,0c-0.9,0.1-1.3,0.5-1.3,1.4C111.2,98.3,111.1,100.9,111.1,103.5z M138,103.8L138,103.8
	c0,2.4,0,4.9,0,7.3c0,1.6,0.2,1.9,1.9,1.9c5,0,9.9,0,14.9,0c1.2,0,1.8-0.5,1.8-1.7c0-5.1,0-10.2,0-15.3c0-1.3-0.6-1.6-1.8-1.6
	c-5,0-10,0-15,0c-1.4,0-1.7,0.3-1.7,1.8C138,98.7,138,101.2,138,103.8z M120.5,67.6L120.5,67.6c-2.6,0-5.2,0-7.8,0
	c-1.1,0-1.5,0.4-1.5,1.5c0,5,0,10,0,15.1c0,1.8,0.2,2,2,2c4.9,0,9.8,0,14.7,0c1.5,0,1.8-0.2,1.8-1.8c0-5.1,0-10.2,0-15.3
	c0-1.1-0.5-1.4-1.5-1.4C125.6,67.6,123,67.6,120.5,67.6z M88.2,36.5c-3,0-5.5,2.4-5.5,5.3c0,3,2.5,5.6,5.5,5.5
	c2.8,0,5.3-2.6,5.3-5.5C93.6,39,91,36.5,88.2,36.5z M155.3,47.2L155.3,47.2c-2.2,0-4.5,0-6.7,0c-1.1,0-1.5,0.4-1.4,1.5
	c0.1,0.7,0,1.5,0,2.2c0,1.5,0.1,1.6,1.6,1.6c4.4,0,8.8,0,13.2,0c1.2,0,1.5-0.3,1.4-1.5c-0.1-0.9-0.1-1.8,0-2.7
	c0-0.9-0.3-1.2-1.2-1.1C159.8,47.2,157.6,47.2,155.3,47.2z M133.8,52.5c2.2,0,4.4-0.1,6.6,0c1.2,0.1,1.6-0.4,1.5-1.6
	c-0.1-0.8-0.1-1.6,0-2.4c0.1-1.1-0.3-1.4-1.4-1.4c-3.6,0.1-7.1,0-10.7,0c-4.1,0-4.1,0-4,4.1c0,0.9,0.4,1.2,1.3,1.2
	C129.3,52.5,131.5,52.5,133.8,52.5z M155.3,36.5L155.3,36.5c-1.4,0-2.8,0-4.2,0c-4.1,0-4.1,0-3.9,4.1v0.1c0,0.7,0.3,1.1,1,1.1
	c4.7,0,9.4,0,14,0c0.8,0,1-0.4,1-1.1c0-1,0-2,0-3c0.1-1-0.4-1.3-1.3-1.3C159.7,36.5,157.5,36.5,155.3,36.5z M134,36.5
	c-2.3,0-4.6,0-7,0c-0.8,0-1.2,0.3-1.2,1.1c0,1,0,2,0,3c0,0.8,0.3,1.2,1.2,1.2c4.6,0,9.1,0,13.7,0c0.8,0,1.2-0.3,1.2-1.2
	c0-1-0.1-1.9,0-2.9c0.1-1.1-0.4-1.4-1.4-1.3C138.3,36.5,136.1,36.5,134,36.5z M112.1,52.5c1.8,0,3.6,0,5.3,0c3.1,0,2.8,0.4,2.8-2.7
	c0-0.4,0-0.7,0-1.1c0.1-1.1-0.4-1.5-1.5-1.5c-1.4,0-2.7,0-4.1,0c-3.1,0-6.2,0-9.3,0c-0.5,0-1.2-0.1-1.1,0.8c0.1,1.1,0,2.2-0.1,3.3
	c-0.1,0.9,0.3,1.2,1.2,1.2C107.6,52.4,109.8,52.5,112.1,52.5z M112.2,36.5L112.2,36.5c-2.2,0-4.5,0-6.7,0c-1,0-1.4,0.3-1.3,1.3
	c0.1,1,0,2.1,0,3.1c0,0.8,0.5,1,1.2,1c0.6,0,1.2-0.1,1.9-0.1c4,0.2,7.9,0,11.9,0.1c0.9,0,1.2-0.5,1.2-1.3c-0.1-0.9-0.1-1.8-0.1-2.7
	c0-1-0.4-1.3-1.3-1.3C116.7,36.5,114.5,36.5,112.2,36.5z M176.8,124.9c0,3-0.4,2.8,2.7,2.8c3.2,0,2.6,0.1,2.6-2.6
	c0-3.3,0.2-2.8-2.8-2.8C176.5,122.4,176.9,122,176.8,124.9z M182.2,114.3c0-3,0.2-2.7-2.6-2.7c-3,0-2.7-0.3-2.7,2.7
	c0,2.8-0.4,2.6,2.6,2.6C182.6,117,182.1,117.3,182.2,114.3z M179.5,133.3c-3.1,0-2.6-0.4-2.6,2.6v0.1c0,2.8-0.2,2.6,2.6,2.6
	c3.2,0,2.7-0.1,2.7-2.7C182.2,133,182.5,133.3,179.5,133.3z M166.1,135.7c0,0.5,0,1.1,0,1.6c-0.1,1,0.3,1.4,1.3,1.3
	c0.9-0.1,1.7,0,2.6,0c0.8,0,1.4-0.2,1.3-1.1c0-0.3,0.1-0.7,0.1-1c0.1-3.7,0.3-3.1-3-3.2C166,133.3,166,133.3,166.1,135.7z
	 M168.7,106.2c3.1,0,2.7,0.4,2.7-2.7c0-0.1,0-0.2,0-0.2c0-2.3-0.1-2.3-2.4-2.4c-0.1,0-0.2,0-0.4,0c-2.6,0-2.6,0-2.6,2.6
	C166.1,106.7,165.8,106.2,168.7,106.2z M179.5,106.2c3,0,2.7,0.4,2.7-2.3c0-2.8,0-2.8-2.7-2.8h-0.1c-2.5-0.1-2.5-0.1-2.5,2.5
	C176.9,106.7,176.4,106.2,179.5,106.2z M168.7,122.6c-2.6,0-2.6,0-2.6,2c0,3.2,0,3.2,3.3,3.1c1.9-0.1,1.9-0.1,2-2c0-0.1,0-0.2,0-0.2
	C171.5,121.9,171.6,122.6,168.7,122.6z M168.8,117c2.8-0.1,2.5,0.3,2.5-2.4c0-2.6,0-2.5-2.5-2.8c-3.3-0.4-2.7,0.1-2.7,2.6
	C166.1,117.3,165.8,116.9,168.8,117z"/>
<path class="st1" d="M147.2,137.3c-1.8,0-3.6,0-5.5,0c-0.9,0-1.2-0.3-1.2-1.3c0-3.7,0.2-7.4-0.1-11c-0.1-0.9,0.4-1.3,1.3-1.3
	c3.6,0,7.3,0,10.9,0c0.9,0,1.3,0.4,1.3,1.3c0,3.7,0,7.4,0,11c0,0.9-0.3,1.2-1.2,1.2C150.9,137.3,149.1,137.3,147.2,137.3
	L147.2,137.3z"/>
<path class="st1" d="M93.5,137.3c-1.8,0-3.6,0-5.5,0c-1,0-1.4-0.4-1.4-1.4c0-3.6,0-7.2,0-10.8c0-0.9,0.3-1.4,1.3-1.4
	c3.6,0,7.3,0,10.9,0c1,0,1.4,0.4,1.4,1.4c0,3.5-0.1,7,0.1,10.6c0.1,1.1-0.3,1.7-1.6,1.6C97,137.2,95.3,137.3,93.5,137.3L93.5,137.3z
	"/>
<path class="st1" d="M100.2,103.7c0,1.8,0,3.6,0,5.5c0,0.9-0.3,1.2-1.2,1.2c-3.3,0-6.5,0-9.8,0c-2.5,0-2.5,0-2.5-2.5
	c0-3.3,0.1-6.6,0.1-9.9c0-0.8,0.3-1.1,1.1-1.1c3.7,0,7.4,0,11.1,0c0.9,0,1.3,0.4,1.2,1.3C100.2,100,100.2,101.9,100.2,103.7z"/>
<path class="st1" d="M120.3,123.7c1.9,0,3.8,0,5.7,0c0.9,0,1.3,0.4,1.2,1.3c-0.1,3.8-0.1,7.5-0.2,11.3c0,0.7-0.3,1-1,1
	c-3.8,0-7.5,0-11.3,0c-1.1,0-1.3-0.8-1.3-1.6c0-3.1,0-6.1,0-9.2c0-2.8,0-2.8,2.8-2.8C117.6,123.7,119,123.7,120.3,123.7L120.3,123.7
	z"/>
<path class="st1" d="M93.4,70c1.9,0,3.7,0,5.6,0c0.9,0,1.3,0.3,1.3,1.2c0,3.7,0,7.5,0,11.2c0,0.9-0.3,1.1-1.2,1.1
	c-3.7,0-7.4,0-11.1,0c-0.7,0-1.2-0.2-1.2-1c0.1-3.8-0.3-7.5-0.2-11.3c0-0.9,0.2-1.3,1.3-1.3C89.7,70,91.5,69.9,93.4,70
	C93.4,69.9,93.4,70,93.4,70z"/>
<path class="st1" d="M147.1,83.5c-1.9,0-3.7,0-5.6,0c-0.8,0-1.1-0.2-1.1-1.1c0.3-3.8,0.2-7.5,0.1-11.3c0-0.8,0.2-1.2,1-1.2
	c3.8,0,7.7,0,11.5,0c0.7,0,1,0.4,1,1.1c-0.1,3.9-0.1,7.8-0.2,11.7c0,0.8-0.5,0.8-1.1,0.8C150.9,83.5,149,83.5,147.1,83.5z"/>
<path class="st1" d="M120.3,110.4c-1.8,0-3.6,0-5.5,0c-0.7,0-1.2-0.2-1.1-1c0.2-3.9-0.4-7.8,0-11.7c0.1-0.7,0.2-1,1-1
	c3.7,0,7.4,0.1,11.1,0c1.1,0,1.6,0.4,1.6,1.5c-0.1,3.6-0.1,7.3-0.1,10.9c0,0.9-0.3,1.2-1.2,1.1C124.1,110.4,122.2,110.4,120.3,110.4
	z"/>
<path class="st1" d="M147.3,110.4c-1.8,0-3.6,0-5.3,0c-0.9,0-1.3-0.3-1.3-1.3c0-3.5-0.1-7-0.2-10.5c0-1.5,0.3-1.7,1.7-1.7
	c3.4,0,6.7,0,10.1,0c1.6,0,1.7,0.2,1.8,1.8c0.2,3.4,0.1,6.9,0,10.3c0,1.2-0.4,1.5-1.5,1.5C150.7,110.4,149,110.4,147.3,110.4z"/>
<path class="st1" d="M120.3,70c1.8,0,3.6,0,5.5,0c1.1,0,1.5,0.4,1.5,1.5c0,3.7,0,7.4-0.2,11.2c0,0.7-0.3,0.9-1,0.9
	c-3.8,0-7.6,0-11.4,0c-0.8,0-1.1-0.4-1.1-1.2c0-3.8,0-7.6,0-11.4c0-0.9,0.5-1,1.2-1C116.6,70,118.5,69.9,120.3,70
	C120.3,69.9,120.3,70,120.3,70z"/>
</svg>
