<?xml version="1.0" encoding="UTF-8"?>
<svg id="Camada_1" data-name="Camada 1" xmlns="http://www.w3.org/2000/svg" viewBox="0 0 91.22 95.34">
  <defs>
    <style>
      .cls-1 {
        fill: #e52421;
      }

      .cls-2 {
        fill: #fff;
      }
    </style>
  </defs>
  <path class="cls-2" d="m11.57,95.33h-.76c-.26-.09-.53-.17-.79-.28-1.7-.71-3.11-1.71-3.55-3.66-.14-.6-.04-1.05.42-1.5,2.83-2.8,5.64-5.62,8.46-8.43,1.36-1.36,1.33-1.34.04-2.73-6.84-7.36-10.41-16.12-10.97-26.1-.33-5.79.65-11.42,2.77-16.84,3.25-8.33,8.66-14.92,16.13-19.77,6.51-4.23,13.72-6.38,21.48-6.56,5.46-.12,10.75.85,15.84,2.86,7.65,3.01,13.84,7.89,18.6,14.57,3.71,5.21,6.03,10.99,7.05,17.32,1.27,7.91.26,15.51-2.84,22.86-1.96,4.63-4.72,8.73-8.23,12.33-.52.53-.57.85,0,1.41,3.04,2.99,6.02,6.03,9.05,9.03.49.49.64.99.54,1.64-.26,1.81-1.09,3.2-2.89,3.86h-2.28c-.11-.14-.2-.29-.33-.42-3.15-3.16-6.3-6.32-9.46-9.47-.82-.82-.85-.83-1.82-.16-1.47,1.01-3.03,1.87-4.63,2.63-3.47,1.65-7.11,2.8-10.91,3.47-6.82,1.2-13.49.6-20.03-1.59-3.38-1.13-6.58-2.66-9.52-4.69-.52-.35-.89-.38-1.37.12-1.93,1.98-3.92,3.9-5.85,5.87-1.38,1.41-2.88,2.72-4.14,4.24h-.01Zm34.05-13.87c16.89-.12,30.7-13.42,30.7-30.72s-13.9-30.77-30.75-30.75c-16.79.02-30.7,13.44-30.7,30.72s13.74,30.66,30.74,30.75h0Z"/>
  <path class="cls-1" d="m91.22,19.8c-.41,2.02-.99,3.98-2.03,5.79-.48.84-1.06,1.61-1.66,2.36-.49.61-.66.59-1-.11-1.01-2.08-2.15-4.08-3.49-5.97-2.23-3.17-4.86-5.97-7.9-8.39-3.36-2.67-7.06-4.75-11.08-6.26-.79-.3-.83-.46-.25-1.02,3.66-3.56,8.06-5.11,13.12-4.61,7.08.7,12.78,6.03,14.13,13.06.05.25.1.49.16.74v4.42h0Z"/>
  <path class="cls-1" d="m18.12,0c2.77.46,5.33,1.42,7.57,3.15.54.42,1.07.86,1.56,1.33.73.7.7.86-.23,1.21-2.26.85-4.44,1.88-6.5,3.12-6.93,4.19-12.19,9.91-15.72,17.21-.49,1.01-.6,1.04-1.29.17-1.6-1.99-2.66-4.24-3.24-6.72-.09-.39-.18-.79-.27-1.18v-4.42c.04-.22.09-.44.13-.67C1.11,8.34,3.68,4.61,7.95,2.07c1.83-1.09,3.83-1.69,5.91-2.07h4.26Z"/>
  <path class="cls-1" d="m55.36,56.09h-13.09c-1.05,0-1.13-.08-1.13-1.12v-25.96c0-1.52.36-2.93,1.62-3.94,2.69-2.15,6.47-.73,7.09,2.68.08.47.1.96.1,1.44v16.9c0,1.23.02,1.24,1.22,1.24h17.36c1.96,0,3.42.83,4.28,2.61,1.18,2.42-.35,5.47-2.99,5.99-.57.11-1.15.15-1.74.15h-12.72Z"/>
</svg>