<?xml version="1.0" encoding="utf-8"?>
<!-- Generator: Adobe Illustrator 27.5.0, SVG Export Plug-In . SVG Version: 6.00 Build 0)  -->
<svg version="1.1" id="Camada_1" xmlns="http://www.w3.org/2000/svg" xmlns:xlink="http://www.w3.org/1999/xlink" x="0px" y="0px"
	 viewBox="0 0 98 42.5" style="enable-background:new 0 0 98 42.5;" xml:space="preserve">
<style type="text/css">
	.st0{fill:#FFFFFF;}
	.st1{fill:#E52521;}
</style>
<path class="st0" d="M47.1,38c-7.8,0-15.6,0-23.4,0c-0.7,0-1.1,0.2-1.5,0.8c-0.7,1.2-1.8,2.2-3.1,2.8c-0.6,0.3-1.3,0.4-1.8,0.6
	c-0.7,0.3-1.5,0.3-2.2,0.2c-1.4-0.1-2.8-0.6-4-1.5c-0.9-0.6-1.6-1.4-2.1-2.4c-0.2-0.4-0.5-0.6-1-0.6c-0.9,0-1.8,0.1-2.7,0
	c-1.7-0.2-2.7-1.4-3.5-2.8c-0.7-1.4-1-2.9-1-4.5c0-0.3,0.1-0.6,0.3-0.9c0.6-0.7,0.6-1.5,0.7-2.3c0.6-2.8,1.7-5.2,4.1-6.9
	c2.1-1.5,4.4-2.6,6.6-3.8c1.6-0.8,3.1-1.5,4.7-2.2c0.8-0.3,1.4-0.9,2-1.5c1.2-1.3,2.4-2.6,3.7-3.9c1.4-1.5,2.8-3,4.2-4.4
	c1.2-1.2,2.3-2.5,3.9-3.3c1.2-0.6,2.4-1,3.7-1.3c2.5-0.5,5-0.2,7.5-0.2c2.4-0.1,4.7,0.1,7.1,0C58.6,0,68,0,77.4,0c2,0,3.9-0.1,5.9,0
	c2.1,0.1,4.1-0.1,6.1,0c1.1,0.1,2.2-0.1,3.3,0.1c1.3,0.3,2,1.2,2.1,2.5c0.2,1.6,0.4,3.2,0.5,4.9c0.1,1,0.1,2.1,0.2,3.1
	c0.1,1.4,0.1,2.8,0.2,4.2c0.1,1.1,0,2.1,0.1,3.2c0.2,2.3,0.2,4.5,0.2,6.8c0,1.8,0,3.6,0.1,5.4c0,0.3,0.1,0.5,0.4,0.7
	c0.8,0.5,0.7,1.3,0.6,2.1c-0.1,0.6-0.2,1.3-0.3,1.9c-0.2,1.2-0.9,1.8-1.9,2.3C93.3,37.9,91.7,38,90,38c-1.4,0-2.8,0-4.2,0
	c-0.3,0-0.6,0-0.8,0.4c-0.6,1.3-1.7,2.3-2.9,3c-1.4,0.8-2.9,1.1-4.5,1c-1.8-0.1-3.2-0.9-4.6-1.9c-0.7-0.6-1.2-1.3-1.6-2.1
	C71.2,38,71,38,70.6,38C62.8,38,54.9,38,47.1,38z M63.1,2C63.1,2,63.1,2,63.1,2c-4.7,0-9.3-0.1-14,0C44.4,2,39.6,1.7,34.9,2.2
	C34,2.3,33.1,2.6,32.3,3c-1.5,0.7-2.6,1.9-3.8,3.1c-1.5,1.5-2.9,3.1-4.3,4.6c-1.3,1.4-2.6,2.7-3.9,4.1c-0.8,0.8-1.7,1.4-2.7,1.9
	c-1.1,0.5-2.2,1-3.2,1.5c-2.2,1.1-4.4,2.1-6.5,3.4C7.3,22,6.7,22.5,6.1,23c-0.1,0.1-0.3,0.3-0.2,0.4c0.1,0.1,0.3,0,0.4,0
	c0.5-0.1,1.1-0.1,1.6,0c0.7,0.1,1.2,0.9,1.1,1.7c0,0.7-0.4,1.3-0.6,2c-0.3,1.1-1.1,1.9-2.1,2.3c-0.9,0.4-1.8,0.7-2.6,1
	c-1.1,0.4-1.1,0.4-1,1.5c0,0,0,0.1,0,0.1c0.1,1.5,0.7,2.8,1.9,3.8c0.2,0.2,0.4,0.3,0.7,0.3c0.8,0,1.6,0,2.4,0c0.2,0,0.2-0.1,0.2-0.3
	c-0.1-1-0.1-1.9,0.1-2.9c0.4-1.7,1.3-3.1,2.6-4.2c1.3-1.1,2.8-1.7,4.4-1.8c1.4-0.1,2.7,0.2,4,0.8c1.1,0.5,2.1,1.3,2.8,2.2
	c1.3,1.7,1.8,3.6,1.5,5.7c0,0.4,0,0.5,0.5,0.5c15.4,0,30.7,0,46.1,0c0.5,0,0.6-0.2,0.5-0.6c-0.1-0.8-0.1-1.5,0-2.3
	c0.6-2.9,2.3-4.9,5.1-6c1.8-0.7,3.7-0.6,5.6,0.2c1.5,0.6,2.8,1.6,3.7,3c1,1.6,1.4,3.3,1.1,5.2c-0.1,0.3,0,0.4,0.3,0.4
	c1.9,0,3.8,0,5.7,0c0.9,0,1.7-0.4,2.5-0.8c0.3-0.1,0.4-0.4,0.5-0.7c0.1-0.6,0.2-1.3,0.3-1.9c0-0.2,0-0.3-0.2-0.4
	c-0.6-0.4-0.9-1-0.9-1.8c0-2.4,0-4.8-0.1-7.2c0-1.4-0.1-2.8-0.2-4.3c0-0.8-0.1-1.6-0.1-2.4c0-2-0.3-3.9-0.3-5.9
	c0-0.8-0.1-1.5-0.1-2.2c0-1-0.2-2.1-0.3-3.1c-0.1-0.8-0.1-1.7-0.2-2.5c-0.1-0.6-0.5-0.9-1.1-0.9c-0.7,0-1.4,0-2.1,0
	c-3.4,0-6.7,0-10.1,0C74.1,2,68.6,2,63.1,2z M21.5,34.6c0.2-2.8-2.3-6.3-6.8-5.8c-2.4,0.3-4.8,2.6-4.9,5.7c-0.1,3.3,2.7,6.1,5.9,6
	C18.9,40.4,21.6,37.9,21.5,34.6z M78.2,28.8c-3-0.3-6.2,2.7-5.8,6.4c0.3,2.6,2.5,5.2,5.6,5.2c3.6,0,6.1-2.6,6.1-5.9
	C84.2,31.5,81.6,28.6,78.2,28.8z"/>
<path class="st1" d="M60.1,25.7c-2,0-4-0.1-6.1,0c-1.2,0-2.4-1-2.4-2.4c0-3,0-6.1,0-9.1c0-1.2,0.9-2.3,2.2-2.3c4.2,0,8.4,0,12.7,0
	c1.3,0,2.2,1.1,2.2,2.3c0,3,0,5.9,0,8.9c0,1.4-1.1,2.4-2.4,2.4C64.2,25.7,62.1,25.7,60.1,25.7z M57.3,18.8c0.9,0,1.8,0,2.7,0
	c0.5,0,0.7-0.2,0.7-0.7c0-1,0-2.1,0-3.1c0-0.5-0.3-0.7-0.7-0.7c-1.8,0-3.6,0-5.4,0c-0.4,0-0.6,0.2-0.6,0.6c0,1.1,0,2.2,0,3.2
	c0,0.4,0.2,0.6,0.6,0.6C55.4,18.8,56.4,18.8,57.3,18.8z"/>
<path class="st0" d="M31.1,18.4c-2.1,0-4.1,0-6.2,0c-0.9,0-1.7-0.2-2.4-0.7c-1.1-0.8-1-1.9-0.3-2.7c1.1-1.2,2.3-2.4,3.5-3.6
	c1.7-1.7,3.3-3.5,4.9-5.3C31.3,5.4,32.1,5,33.1,5c2.4,0,4.8,0,7.2,0c1.3,0,2.1,0.8,2.1,2.1c0,2.2,0,4.4,0,6.6c0,1.5-0.7,2.7-2,3.4
	c-0.7,0.4-1.4,1-2.3,1.1c-0.6,0.1-1.3,0-1.9,0.1C34.5,18.4,32.8,18.4,31.1,18.4z M31,16.4C31,16.4,31,16.4,31,16.4
	c1.9,0,3.9,0,5.8,0c0.6,0,1.2,0,1.8-0.4c0.3-0.2,0.7-0.4,1-0.6c0.6-0.4,0.9-1,0.9-1.7c0-2.1,0-4.2,0-6.3c0-0.4-0.1-0.6-0.5-0.6
	c-2.3,0-4.6,0-6.9,0c-0.4,0-0.7,0.2-1,0.4c-1.3,1.4-2.7,2.9-4,4.3c-1.3,1.3-2.5,2.6-3.8,3.9c-0.2,0.2-0.5,0.5-0.4,0.6
	c0.1,0.2,0.5,0.2,0.7,0.2C26.7,16.4,28.9,16.4,31,16.4z"/>
<path class="st1" d="M74.4,24.6c-1.5-0.8-2.9-1.5-4.4-2.2c-0.2-0.1-0.2-0.2-0.2-0.4c0-2.1,0-4.1,0-6.2c0-0.3,0.1-0.4,0.4-0.5
	c1.3-0.6,2.5-1.2,3.8-1.9c0.4-0.2,0.4,0,0.5,0.2c0,0.1,0,0.1,0,0.2C74.4,17.4,74.4,20.9,74.4,24.6z"/>
<path class="st1" d="M56.6,10.9c0.7-0.9,1.2-1.8,1.9-2.6c0.5-0.5,1.1-0.8,1.8-0.8c1.2,0,2.4,0,3.6,0c1.7,0,2.9,1.6,2.4,3.2
	c-0.1,0.2-0.2,0.2-0.3,0.2c-0.6,0-1.2,0-1.8,0c-0.3,0-0.3-0.2-0.3-0.4c0-0.7,0-0.7-0.8-0.7c-0.8,0-1.6,0.1-2.4,0
	c-0.6-0.1-1,0.2-1.2,0.7c-0.2,0.4-0.5,0.5-0.9,0.5C58.1,10.9,57.4,10.9,56.6,10.9z"/>
<path class="st0" d="M15.7,30.6c2.5,0.1,4.1,1.9,4,4.2c-0.1,2.3-1.9,4-4.3,4c-1.9,0-4-1.9-3.8-4.5C11.7,32.5,13.5,30.4,15.7,30.6z
	 M15.7,32.6c-1.3,0-2.2,0.8-2.2,2c0,0.9,0.7,2.2,2,2.2c1,0,2.3-0.9,2.3-2.1C17.7,33.4,17,32.6,15.7,32.6z"/>
<path class="st0" d="M78.1,30.6c2.5-0.1,4.1,1.9,4.2,3.8c0.1,2.7-1.9,4.3-4.2,4.3c-2.2,0-4-1.9-4-4.1C74.1,32.4,76.1,30.4,78.1,30.6
	z M76.1,34.6c0,1.1,0.9,2.1,1.9,2.2c1.5,0.1,2.4-1,2.4-2.2c0-1-0.9-2-1.8-2C77,32.6,76.1,33.3,76.1,34.6z"/>
</svg>
