<?xml version="1.0" encoding="UTF-8"?>
<svg id="Camada_1" data-name="Camada 1" xmlns="http://www.w3.org/2000/svg" viewBox="0 0 504.77 104.74">
  <defs>
    <style>
      .cls-1 {
        fill: #1f201f;
      }

      .cls-2 {
        fill: #e42122;
      }

      .cls-3 {
        fill: #fcfbfb;
      }
    </style>
  </defs>
  <path class="cls-2" d="m24.8,104.74c-.23-.32-.56-.39-.93-.4-1.01-.03-2.07.19-3.01-.4-.88.18-1.67-.26-2.45-.51-.7-.22-1.49-.3-2.12-.76-.51-.38-1.18-.4-1.76-.64-1.82-.74-3.51-1.76-4.98-2.99-1.81-1.51-3.57-3.12-4.93-5.12-.44-.66-.77-1.42-1.41-1.96-.49-.41-.47-1.07-.71-1.59-.47-1.02-1.01-2-1.28-3.15-.3-1.24-.53-2.49-.83-3.72-.75-3.1-.15-6.2-.36-9.29-.02-.24.01-.52.13-.72.28-.49.3-1.01.3-1.54,0-.56.17-1.1.28-1.63.16-.79.61-1.5.57-2.32-.03-.55.33-.98.5-1.46.36-1.07.59-2.2,1.09-3.23.28-.57.11-1.24.36-1.85.36-.86.66-1.74.88-2.64.17-.68.58-1.28.59-1.99.01-.5.33-.91.48-1.35.46-1.26.64-2.58,1.11-3.84.4-1.09.72-2.24,1.05-3.37.19-.63.14-1.4.68-1.93.08-.08.09-.27.09-.4-.01-.95.51-1.75.74-2.62.16-.64.43-1.23.58-1.88.25-1.11.68-2.18,1.04-3.27.05-.17.17-.32.19-.49.26-2.06,1.19-3.88,2.01-5.74.28-.64.38-1.33.72-1.96,1.11-2.01,2.16-4.07,3.52-5.92,1.12-1.52,1.95-3.3,3.49-4.5,1.32-2.23,3.36-3.81,5.19-5.56,1.65-1.58,3.34-3.15,5.37-4.28.65-.36,1.16-.9,1.77-1.31,2.34-1.6,4.84-2.87,7.38-4.1,1.19-.58,2.37-1.23,3.63-1.6.61-.18,1.2-.55,1.88-.53.58.01,1.1-.31,1.58-.5.71-.29,1.56-.14,2.18-.7.13-.11.41-.06.62-.07.46-.02.93.07,1.3-.32.06-.07.2-.1.3-.09C53.26.63,54.81,0,56.46,0c49.78.04,99.55.03,149.33.03,91.34,0,182.67,0,274.01,0,.82,0,1.63-.06,2.4.33.24.12.56.08.84.1.48.03,1-.13,1.38.34.04.05.13.06.2.06,1.05,0,1.93.57,2.9.81,1.23.31,2.35.84,3.46,1.36,1.14.53,2.17,1.3,3.24,1.98,1.3.82,2.29,1.96,3.43,2.93.72.61,1.34,1.37,1.9,2.14.73,1,1.49,2.02,1.99,3.13.53,1.19,1.41,2.24,1.53,3.6.54.44.23,1.23.72,1.7.19.18.11.47.11.72,0,.28-.02.57.21.8.07.07.17.18.16.26-.12,1.12.46,2.13.48,3.22.02,1.99,0,3.97,0,5.96,0,.18.05.38-.02.53-.41.89-.2,1.92-.49,2.77-.28.82-.34,1.67-.63,2.49-.24.66-.46,1.38-.62,2.09-.14.64-.3,1.33-.66,1.92-.07.12-.14.26-.14.39,0,1.36-.7,2.53-1.07,3.78-.19.63-.29,1.28-.57,1.91-.37.83-.51,1.76-.88,2.62-.23.55.1,1.28-.47,1.77.19.68-.32,1.21-.51,1.78-.36,1.12-.7,2.27-1.05,3.4-.23.77-.69,1.51-.62,2.39.04.52-.31,1.01-.49,1.46-.42,1.04-.75,2.14-1.06,3.19-.36,1.23-1,2.4-1.04,3.74-.02.58-.36,1.12-.52,1.7-.27.98-.62,1.94-1.03,2.87-.58,1.34-1.03,2.74-1.71,4.04-.58,1.11-1.18,2.22-1.71,3.36-.34.75-.83,1.39-1.28,2.07-.56.82-1.2,1.57-1.67,2.47-.29.57-.73,1.12-1.17,1.63-1.18,1.36-2.21,2.85-3.55,4.08-1.17,1.08-2.18,2.38-3.44,3.33-1.27.95-2.37,2.08-3.69,2.98-1.24.85-2.52,1.67-3.69,2.64-.68.56-1.59.82-2.34,1.33-1.4.96-3,1.55-4.51,2.28-1.27.61-2.6,1.06-3.89,1.61-.58.24-1.3.27-1.88.56-.82.42-1.81.18-2.57.78-.11.09-.34.04-.52.05-.4.04-.87-.15-1.14.34-.03.05-.13.08-.19.07-1.32-.15-2.52.7-3.86.45-.57-.11-1.13.06-1.62.38H24.8Zm211.79-2.1c68.15,0,136.3,0,204.45-.03,3.17,0,6.37.41,9.54-.36,1.04-.25,2.14-.15,3.23-.38,1.48-.31,2.9-.78,4.33-1.2,1.43-.42,2.82-.97,4.21-1.52.98-.39,1.9-.89,2.85-1.31.63-.28,1.31-.53,1.87-.92,1.24-.86,2.56-1.58,3.84-2.37.62-.38,1.18-.83,1.73-1.3,1.21-1.01,2.65-1.72,3.73-2.9.49-.54,1.02-1.03,1.69-1.39.47-.26.92-.66,1.13-1.23.08-.22.26-.48.46-.56.78-.31,1.11-1.03,1.61-1.61.97-1.12,2.01-2.18,2.87-3.4.83-1.18,1.86-2.24,2.54-3.5.7-1.29,1.55-2.49,2.2-3.82.93-1.92,1.78-3.88,2.41-5.91.26-.84.62-1.66.82-2.55.28-1.27.79-2.51,1.17-3.77.17-.55.29-1.15.56-1.65.37-.69.4-1.45.62-2.16.23-.71.47-1.44.61-2.2.17-.9.63-1.75.81-2.69.07-.36.06-.8.27-1.09.86-1.24.82-2.76,1.37-4.09.26-.62.34-1.28.56-1.89.44-1.19.73-2.42,1.14-3.61.23-.67.27-1.4.52-2.02.6-1.52,1.08-3.08,1.53-4.63.44-1.53,1.08-3.06.94-4.72,0-.1,0-.23.06-.31.44-.63.34-1.35.35-2.06,0-.89.07-1.78.01-2.66-.12-1.86.31-3.76-.42-5.58-.05-.12-.04-.28-.02-.42.11-.95-.26-1.86-.57-2.67-.73-1.89-1.42-3.82-2.65-5.49-.85-1.16-1.56-2.41-2.63-3.41-.93-.86-1.83-1.71-2.93-2.4-1.05-.66-2-1.48-3.19-1.91-.23-.08-.48-.07-.68-.27-1.01-.99-2.46-1.04-3.66-1.62-1.24-.59-2.73-.72-4.09-.84-1.76-.15-3.52-.39-5.3-.38-5.58.03-11.16,0-16.74,0-34.09,0-68.19,0-102.28,0-34.16,0-68.33,0-102.49,0-32.92,0-65.84,0-98.76,0-18.52,0-37.04-.07-55.57.02-15.07.07-30.14-.36-45.2.23-1.57.06-3.08.39-4.62.57-1.39.16-2.8.63-4.15,1.13-1.52.56-3.14.92-4.59,1.62-2.22,1.07-4.51,2.03-6.56,3.45-1.42.98-3,1.73-4.33,2.81-1.15.93-2.32,1.84-3.42,2.85-1.09,1-2.12,2.04-3.19,3.06-.18.17-.39.31-.6.44-.19.12-.39.24-.43.45-.13.61-.58.98-1.01,1.34-1.12.91-1.87,2.14-2.72,3.25-.84,1.1-1.57,2.31-2.31,3.5-1.34,2.13-2.33,4.43-3.43,6.68-.76,1.56-1.08,3.27-1.65,4.89-.46,1.32-.89,2.67-1.27,4.02-.51,1.78-1.05,3.56-1.58,5.33-.43,1.45-1.1,2.86-1.37,4.34-.24,1.36-.8,2.6-1.15,3.91-.53,1.99-1.34,3.91-1.84,5.92-.31,1.27-.76,2.48-1.14,3.72-.61,1.97-1.18,3.95-1.5,5.99-.03.21-.08.43-.19.6-.23.35-.26.74-.22,1.12.06.65-.08,1.28-.26,1.88-.13.42-.17.83-.17,1.25,0,1.28,0,2.55,0,3.83,0,.32-.05.68.08.94.57,1.17.27,2.49.72,3.7.3.8.45,1.69.69,2.53.38,1.33,1.11,2.51,1.72,3.74.75,1.5,1.83,2.77,2.92,4.01.86.98,1.84,1.83,2.91,2.61,1.29.94,2.59,1.84,4.05,2.49,2.55,1.14,5.12,2.2,8,2.17.17,0,.36.05.51.14.52.28,1.09.27,1.66.27,70.53,0,141.07,0,211.6,0Z"/>
  <path class="cls-1" d="m236.4,102.43c-70.53,0-141.07,0-211.6,0-.57,0-1.13,0-1.66-.27-.15-.08-.34-.14-.51-.14-2.87.03-5.44-1.03-8-2.17-1.46-.65-2.76-1.55-4.05-2.49-1.07-.78-2.06-1.63-2.91-2.61-1.09-1.24-2.16-2.51-2.92-4.01-.61-1.23-1.34-2.41-1.72-3.74-.24-.84-.39-1.73-.69-2.53-.45-1.21-.15-2.53-.72-3.7-.13-.27-.08-.63-.08-.94,0-1.28,0-2.55,0-3.83,0-.42.05-.83.17-1.25.18-.6.32-1.23.26-1.88-.03-.39,0-.77.22-1.12.11-.17.16-.4.19-.6.32-2.04.9-4.02,1.5-5.99.38-1.24.83-2.45,1.14-3.72.49-2,1.3-3.92,1.84-5.92.35-1.31.91-2.55,1.15-3.91.27-1.48.94-2.88,1.37-4.34.53-1.78,1.07-3.55,1.58-5.33.38-1.35.81-2.69,1.27-4.02.57-1.63.89-3.34,1.65-4.89,1.09-2.25,2.09-4.55,3.43-6.68.75-1.18,1.47-2.4,2.31-3.5.85-1.11,1.6-2.34,2.72-3.25.43-.35.88-.73,1.01-1.34.04-.21.24-.33.43-.45.21-.13.42-.27.6-.44,1.07-1.01,2.1-2.06,3.19-3.06,1.1-1.01,2.27-1.92,3.42-2.85,1.33-1.08,2.91-1.83,4.33-2.81,2.05-1.42,4.34-2.37,6.56-3.45,1.45-.7,3.07-1.06,4.59-1.62,1.35-.5,2.76-.97,4.15-1.13,1.54-.17,3.05-.51,4.62-.57,15.07-.59,30.14-.16,45.2-.23,18.52-.09,37.04-.02,55.57-.02,32.92,0,65.84,0,98.76,0,34.16,0,68.33,0,102.49,0,34.09,0,68.19,0,102.28,0,5.58,0,11.16.02,16.74,0,1.78,0,3.54.23,5.3.38,1.36.12,2.85.24,4.09.84,1.21.58,2.65.63,3.66,1.62.2.19.45.18.68.27,1.19.43,2.14,1.26,3.19,1.91,1.1.69,2.01,1.53,2.93,2.4,1.07.99,1.78,2.25,2.63,3.41,1.23,1.67,1.92,3.6,2.65,5.49.31.81.68,1.71.57,2.67-.02.14-.03.3.02.42.73,1.82.3,3.72.42,5.58.06.88,0,1.77-.01,2.66,0,.7.09,1.43-.35,2.06-.06.08-.07.21-.06.31.14,1.66-.5,3.19-.94,4.72-.45,1.55-.94,3.11-1.53,4.63-.24.62-.28,1.36-.52,2.02-.42,1.19-.71,2.42-1.14,3.61-.22.61-.31,1.27-.56,1.89-.55,1.33-.51,2.85-1.37,4.09-.2.29-.2.73-.27,1.09-.18.93-.64,1.79-.81,2.69-.14.76-.39,1.49-.61,2.2-.23.71-.25,1.47-.62,2.16-.27.5-.39,1.09-.56,1.65-.38,1.26-.89,2.5-1.17,3.77-.19.89-.55,1.71-.82,2.55-.63,2.02-1.48,3.99-2.41,5.91-.64,1.33-1.5,2.52-2.2,3.82-.68,1.26-1.71,2.32-2.54,3.5-.86,1.22-1.9,2.27-2.87,3.4-.5.58-.83,1.3-1.61,1.61-.2.08-.38.34-.46.56-.22.57-.66.97-1.13,1.23-.67.36-1.2.86-1.69,1.39-1.08,1.18-2.52,1.89-3.73,2.9-.55.46-1.11.91-1.73,1.3-1.28.79-2.6,1.51-3.84,2.37-.57.39-1.25.65-1.87.92-.96.42-1.87.93-2.85,1.31-1.39.55-2.78,1.1-4.21,1.52-1.43.42-2.85.89-4.33,1.2-1.09.23-2.2.13-3.23.38-3.17.77-6.36.36-9.54.36-68.15.03-136.3.03-204.45.03Z"/>
  <path class="cls-2" d="m195.01,53.55c0-.82-.05-1.64,0-2.45.14-1.95-.01-3.91-.49-5.77-.58-2.27-1.36-4.54-3.2-6.19-1.05-.94-2.23-1.65-3.57-2.18-1.51-.6-3.09-.76-4.63-1.09-1.07-.23-2.26-.25-3.36.19-.19.08-.41.14-.62.14-2.53.07-4.56,1.37-6.6,2.65-.24.15-.45.35-.55.63-.08.24-.21.45-.38.63-1.28,1.35-1.8,3.02-2.28,4.79-.38,1.42-.12,2.91-.72,4.26-.08.18-.05.42-.05.63,0,2.52,0,5.04,0,7.56,0,.43.06.84.22,1.25.13.33.2.67.21,1.03.11,2.54,1.11,4.72,2.88,6.53,1.37,1.4,3.14,2.15,4.95,2.79.38.14.87-.04,1.27.07,2.97.83,6,.22,9,.4.32.02.64.01.96,0,.41-.01.57.17.57.57-.01,1.03-.02,2.06,0,3.09,0,.47-.22.61-.65.6-1.07-.01-2.13,0-3.2,0-1.24,0-2.49,0-3.73,0-.57,0-1.13-.04-1.67-.26-.23-.09-.48-.16-.72-.16-2.75.06-5.16-1-7.55-2.18-.39-.19-.7-.48-1.02-.76-.97-.82-2-1.58-2.76-2.61-.75-1.02-1.25-2.19-1.71-3.36-.32-.81-.66-1.66-.75-2.51-.13-1.3-.54-2.56-.55-3.87-.03-2.84-.01-5.68,0-8.51,0-.28-.04-.59.05-.85.34-1.03.25-2.11.43-3.13.22-1.21.41-2.48,1-3.6.25-.48.38-.99.57-1.47.93-2.35,2.47-4.15,4.6-5.51.75-.47,1.45-1.01,2.27-1.35.74-.31,1.54-.46,2.27-.76,1.06-.43,2.25-.2,3.27-.72.29-.15.63-.09.95-.09,1.1,0,2.2,0,3.31,0,.82,0,1.63-.05,2.4.34.18.09.42.09.63.08,1.08,0,2.03.5,3.05.71,2.06.42,3.59,1.76,5.21,2.91.81.57,1.27,1.51,1.86,2.3,1.22,1.61,1.78,3.5,2.29,5.42.62,2.3.88,4.62.83,7-.05,2.45,0,4.9-.02,7.34-.02,1.62-.45,3.17-1.29,4.53-1.01,1.64-2.62,2.41-4.53,2.57-.39.03-.78,0-1.17,0-1.71,0-3.14-.67-4.41-1.76-.19-.16-.36-.35-.49-.55-.45-.75-.49-.79-1.02-.17-.95,1.1-2.09,1.9-3.5,2.25-1.42.36-2.84.35-4.29-.01-1.35-.35-2.51-.96-3.44-1.97-.95-1.03-1.48-2.26-1.92-3.6-.45-1.37-.35-2.72-.37-4.09-.03-1.84.05-3.69-.02-5.53-.06-1.63.49-3.07,1.05-4.56.71-1.9,2.17-2.93,3.87-3.68.84-.37,1.74-.72,2.74-.61.7.08,1.42.04,2.13.01,2.6-.09,4.64,1.04,6.4,2.83.29.29.44.65.58,1.01.58,1.47,1.09,2.93,1.23,4.57.23,2.73.12,5.46.17,8.18.01.75.16,1.48.25,2.21.11.79.69,1.27,1.39,1.58.23.1.47.04.71-.06,1.1-.46,1.67-1.25,1.67-2.45,0-1.74,0-3.48,0-5.22Zm-8.53-.31c-.04-1.71.1-3.5-.39-5.28-.43-1.55-2.02-2.98-3.5-2.82-.6.06-1.21-.05-1.81.02-1.08.13-1.99.66-2.61,1.55-.79,1.13-1.12,2.4-1.08,3.79.04,1.35,0,2.69,0,4.04,0,1.09.02,2.15.38,3.23.61,1.89,2.06,3.13,4.01,3.13.32,0,.64,0,.96,0,1.31-.01,3.12-1.16,3.51-2.38.28-.88.67-1.76.55-2.76-.1-.8-.02-1.63-.02-2.53Z"/>
  <path class="cls-2" d="m243.65,62.91c0,2.61,0,5.2,0,7.78,0,1.06-.01,2.13,0,3.19,0,.43-.12.66-.6.65-1.24-.02-2.49-.02-3.73,0-.47,0-.62-.22-.6-.65.02-.42,0-.85,0-1.28,0-9.82,0-19.64,0-29.46,0-.46.03-.92,0-1.38-.03-.57.24-.74.77-.72,1.14.02,2.27.03,3.41,0,.56-.01.77.21.74.75-.03.55,0,1.11,0,1.71.22-.06.35-.05.41-.12.41-.49,1-.75,1.46-1.15,1.16-1.02,2.47-1.45,3.99-1.34.42.03.85,0,1.28,0,1.12.01,2.12.35,3.02,1.02.28.21.61.35.89.57.86.67,1.47,1.52,1.78,2.58.14.5.25,1.01.62,1.41.09.1.18.26.17.38-.05,1.28.55,2.47.49,3.77-.08,1.7-.01,3.4-.02,5.1,0,.56.06,1.11-.28,1.64-.16.24-.1.62-.14.93-.13,1.19-.67,2.25-1.23,3.24-.45.79-1.16,1.47-1.92,2.07-1.27,1.01-2.65,1.56-4.25,1.52-.8-.02-1.6.07-2.42-.14-1.31-.34-2.3-1.15-3.33-1.92-.11-.08-.19-.2-.5-.18Zm0-10.01c0,1.45.02,2.91,0,4.36-.01.59.11,1.13.43,1.61.85,1.23,1.78,2.31,3.51,2.05.49-.07.99,0,1.49-.01.25,0,.48-.02.73-.11,2.14-.85,3.02-2.62,3.2-4.72.16-1.9.09-3.83.02-5.74-.06-1.67-.61-3.18-2.02-4.22-.49-.36-1.03-.87-1.57-.91-1.39-.11-2.82-.23-4.12.6-1.04.66-1.65,1.48-1.65,2.73,0,1.45,0,2.91,0,4.36Z"/>
  <path class="cls-2" d="m322.38,43.7c.28-.48.19-.84.19-1.18,0-3.33,0-6.67,0-10,0-.98.01-.98,1.01-.99.99,0,1.99.01,2.98,0,.48-.01.75.13.7.66-.02.21,0,.43,0,.64,0,10.21,0,20.42,0,30.63,0,1.42.14,1.28-1.34,1.29-.89,0-1.78-.02-2.66,0-.49.01-.72-.15-.69-.67.03-.59,0-1.18,0-1.67-.16-.16-.26-.18-.29-.11-.84,1.61-2.39,2.41-3.96,2.75-1.73.38-3.61.37-5.27-.59-.73-.42-1.55-.7-2.14-1.36-.94-1.04-1.46-2.3-1.99-3.57-.53-1.29-.42-2.63-.42-3.97,0-2.34-.14-4.69.03-7.02.23-3,1.38-5.54,4.29-7.01.92-.47,1.81-.71,2.82-.64.64.04,1.28,0,1.92,0,1.03,0,1.94.37,2.72,1.03.67.57,1.43,1.03,2.1,1.77Zm.2,9.56c0-1.1-.02-2.2,0-3.29.02-.9-.2-1.74-.43-2.59-.12-.43-.38-.75-.74-1q-1.75-1.21-3.96-1.21c-.18,0-.35,0-.53,0-1.16,0-2.02.69-2.73,1.43-.69.72-1.02,1.73-1.01,2.8.02,2.41,0,4.82,0,7.22,0,.28-.02.58.06.84.44,1.47,1.41,2.55,2.76,3.19,1.16.55,2.49.45,3.64.12,1.8-.52,2.92-2.31,2.92-4.12,0-1.13,0-2.27,0-3.4Z"/>
  <path class="cls-2" d="m434.16,63.5c-1.09.72-2.27,1.17-3.49,1.54-.42.13-.84.12-1.26.13-.71,0-1.42,0-2.13,0-.53,0-1.05,0-1.55-.28-.55-.32-1.22-.19-1.84-.39-1.75-.58-2.96-1.76-3.48-3.41-.41-1.31-.87-2.75-.52-4.16.25-1.01.28-2.1.86-3,.48-.75,1.15-1.37,1.87-1.87.77-.54,1.64-.98,2.65-.94.25,0,.54.04.73-.06.87-.47,1.8-.35,2.71-.35,1.63-.01,3.27-.02,4.9,0,.53,0,.74-.15.76-.72.04-.98-.12-1.9-.49-2.79-.19-.45-.53-.75-.91-1.02-.86-.61-1.74-1.13-2.87-1.07-1.27.07-2.54-.03-3.77.46-.43.17-.83.39-1.23.61-.56.3-1.12.2-1.48-.08-.64-.5-1.35-.88-2.01-1.34-.53-.37-.51-.52-.1-1,.65-.74,1.49-1.19,2.35-1.62.85-.42,1.73-.75,2.6-1.11.31-.13.62-.13.94-.13,1.03,0,2.07.07,3.09-.02,1.83-.15,3.46.52,4.86,1.47,1.2.82,2.26,1.89,2.76,3.49.64,2.06.9,4.1.9,6.22,0,3.93,0,7.87,0,11.8,0,.86,0,.86-.89.87-.99,0-1.99,0-2.98,0-.65,0-.84,0-.79-.77,0-.14.02-.28-.2-.47Zm-3.53-8.98c-1.03,0-2.07-.07-3.09.02-1.79.15-2.92.86-3.06,2.59-.04.54,0,1.05.04,1.57.03.58.26.99.65,1.39.83.87,1.83,1.29,3.03,1.25.78-.02,1.57-.06,2.34.01.97.09,1.82-.21,2.65-.6.57-.27,1.17-.59,1.17-1.37,0-1.42,0-2.84,0-4.25,0-.47-.21-.62-.64-.61-1.03.02-2.06,0-3.09,0Z"/>
  <path class="cls-2" d="m375.06,52.92c0-1.14.04-2.27-.01-3.41-.07-1.35.32-2.58.93-3.74.5-.96.84-2.06,1.84-2.67,1.07-.66,2.03-1.45,3.3-1.84.95-.29,1.85-.35,2.8-.36.68,0,1.35,0,2.03,0,3.54-.07,6.97,2.81,7.91,5.96.28.93.26,1.89.52,2.77.49,1.72.21,3.44.32,5.16.03.47-.02.94-.21,1.36-.2.44-.16.9-.22,1.35-.21,1.36-.63,2.65-1.52,3.74-.24.3-.54.55-.65.95-.06.22-.26.43-.45.58-1.17.91-2.44,1.58-3.89,2.03-1.34.42-2.66.45-3.98.36-3.64-.25-6.74-1.99-8.18-5.83-.38-1.02-.62-2.08-.53-3.2.08-1.06.02-2.13.02-3.19Zm14.51.08c0-1.28,0-2.55,0-3.83,0-.4-.1-.75-.27-1.12-.92-2.04-2.71-2.63-4.71-2.9-.28-.04-.56.02-.83.12-.43.16-.86.33-1.3.45-1.49.41-2.51,2.07-2.69,3.38-.24,1.83-.22,3.68-.15,5.51.05,1.25.03,2.52.7,3.69.96,1.67,2.51,2.26,4.26,2.6,1.13-.37,2.41-.34,3.34-1.19,1-.91,1.76-1.94,1.66-3.42-.07-1.09-.01-2.2-.02-3.29Z"/>
  <path class="cls-2" d="m302.53,52.82c0,.89-.05,1.78,0,2.66.12,1.97-.36,3.82-1.37,5.46-1.2,1.94-2.92,3.25-5.23,3.84-1.34.34-2.65.37-3.99.39-1.15.02-2.19-.4-3.25-.76-2.87-.96-4.32-3.16-5.25-5.85-.08-.24-.11-.48-.12-.73,0-.25.02-.51-.06-.74-.67-2.19-.38-4.44-.31-6.65.03-1.08.2-2.23.69-3.27.13-.28.11-.62.19-.93.42-1.66,1.62-2.7,2.92-3.67,1-.75,2.15-1.16,3.28-1.63.06-.03.14-.04.21-.04,1.7,0,3.46-.25,5.1.08,2.52.51,4.67,1.79,5.91,4.24.81,1.59,1.41,3.21,1.29,5.04-.06.85,0,1.7,0,2.55Zm-4.69.24c-.06-1.17.14-2.56-.17-3.92-.22-.96-.44-1.93-1.26-2.6-1-.81-2.17-1.25-3.43-1.37-1.16-.11-2.18.44-3.13,1.02-.56.35-1.21.79-1.46,1.35-.4.91-.81,1.9-.76,2.91.09,2.13-.25,4.26.34,6.41.41,1.52,1.1,2.58,2.44,3.35.52.3,1.12.17,1.6.49.46.3.94.25,1.42.05.26-.11.53-.21.81-.25,1.17-.16,2.02-.81,2.66-1.74.61-.88.94-1.88.94-2.97,0-.85,0-1.7,0-2.75Z"/>
  <path class="cls-2" d="m348.61,62.21c-.57.15-.77.46-1.01.71-1.41,1.55-3.13,2.31-5.26,2.26-2.57-.06-4.64-1.09-6.25-3.03-.55-.66-.79-1.56-1.17-2.34-.57-1.2-.28-2.51-.7-3.72-.12-.34.08-.81.08-1.23,0-4.19,0-8.37,0-12.56,0-.25,0-.5,0-.74,0-.36.19-.51.53-.51,1.17,0,2.35,0,3.52,0,.35,0,.52.18.52.52,0,.18,0,.35,0,.53,0,3.76,0,7.52-.02,11.28,0,1.39.07,2.79.42,4.11.39,1.47,1.35,2.63,2.97,3.01.31.07.61.18.91.29.24.09.49.17.73.11,1.43-.39,2.93-.64,3.89-1.96.54-.73.83-1.53.83-2.45-.01-4.68,0-9.36,0-14.05,0-1.59-.13-1.39,1.45-1.4.85,0,1.71.01,2.56-.01.51-.02.71.21.68.7-.01.18,0,.35,0,.53,0,7.09,0,14.19,0,21.28,0,.21-.01.43,0,.64.02.42-.19.56-.59.55-1.17,0-2.35-.02-3.52,0-.49,0-.6-.23-.59-.66.02-.59,0-1.18,0-1.88Z"/>
  <path class="cls-2" d="m360.98,53.14c0-2.13,0-4.26,0-6.38,0-.25.02-.5-.02-.74-.05-.31-.22-.57-.57-.47-.4.11-.76-.03-1.14-.04-.77-.01-.8-.05-.82-.77-.02-.99.02-1.99-.01-2.98-.02-.57.23-.76.76-.72.35.03.71,0,1.07,0,.55.02.75-.23.75-.77-.02-1.63,0-3.26,0-4.89,0-.25,0-.5,0-.74-.01-.41.2-.56.59-.55,1.17,0,2.35.01,3.52,0,.49,0,.59.25.58.67,0,1.67,0,3.33,0,5,0,.25,0,.5,0,.74,0,.41.21.56.6.56.71-.01,1.42,0,2.13-.01.42,0,.68.11.68.59,0,1.1,0,2.2,0,3.3,0,.48-.25.6-.68.59-.57-.02-1.14,0-1.71,0-1.02,0-1.03.01-1.03,1.07,0,1.63,0,3.26,0,4.89,0,2.31,0,4.61,0,6.92,0,.28-.02.57.03.85.15.84.6,1.2,1.44,1.23.6.02,1.34-.25,1.76.13.47.43.15,1.21.18,1.83.03.6,0,1.21,0,1.81.01.44-.15.62-.62.64-1.32.04-2.63-.05-3.93-.19-1.31-.14-2.76-1.87-3.17-3.12-.45-1.4-.37-2.78-.38-4.18-.02-1.42,0-2.84,0-4.26Z"/>
  <path class="cls-2" d="m211.65,55.88c0,4.18-.07,8.37.04,12.55.04,1.53-.51,2.75-1.24,3.94-.6.98-1.46,1.52-2.67,1.84-1.35.35-2.67.24-4,.32-.41.03-.68-.08-.67-.57.02-1.17.02-2.34,0-3.51,0-.48.23-.62.66-.6.46.02.93-.03,1.39,0,1.44.11,1.83-.39,1.82-1.76-.05-4.86-.02-9.72-.02-14.58,0-3.72,0-7.45,0-11.17,0-.25,0-.5,0-.74,0-.33.11-.55.48-.55,1.24,0,2.49,0,3.73,0,.3,0,.45.18.46.47.01.28.01.57.01.85,0,4.5,0,9.01,0,13.51Z"/>
  <path class="cls-2" d="m405.96,44.01c1.84-2.79,4.55-3.36,7.59-3.12.99.08,2.79,1.01,3.71,2.04-1.26.84-1.9,2.18-2.75,3.36-.45.62-.55.54-1.15.04-1.16-.96-2.47-1.54-4-.98-.47.17-.98.17-1.41.44-1.34.84-2.17,1.97-2.17,3.61,0,4.72,0,9.43,0,14.15,0,1.21.11,1.18-1.14,1.17-.96,0-1.92-.02-2.88,0-.5.01-.73-.17-.68-.68.02-.21,0-.43,0-.64,0-6.99,0-13.97,0-20.96,0-.25.02-.5,0-.74-.04-.49.15-.7.67-.69,1.1.02,2.2.03,3.3,0,.58-.01.74.25.73.77-.02.69,0,1.38,0,2.07.06.04.12.08.18.12Z"/>
  <path class="cls-2" d="m277,46.85c-.02-.92-.77-1-1.27-1.17-.52-.18-1.07-.34-1.61-.48-1.46-.35-4.02.75-4.67,2.11-.35.73-.66,1.52-.65,2.4.04,4.57.02,9.15.02,13.72,0,.25-.01.5,0,.74.02.41-.17.57-.57.57-1.17,0-2.34-.02-3.52,0-.47,0-.64-.2-.61-.64.01-.18,0-.35,0-.53,0-7.09,0-14.18,0-21.27,0-.11,0-.21,0-.32.02-.93.02-.93.95-.93.96,0,1.92-.01,2.88,0,.81,0,.85.04.86.83.02.77,0,1.53.1,2.34.64-1.13,1.65-1.79,2.66-2.45.85-.56,1.73-.95,2.78-.87.35.03.72.05,1.06,0,1.39-.23,2.55.41,3.75.93.19.08.34.25.5.39.67.63.64.6.06,1.27-.6.69-1.15,1.43-1.7,2.17-.27.37-.49.78-1.02,1.19Z"/>
  <path class="cls-2" d="m223.59,43.73c.41.08.5-.17.63-.31.95-1.02,2.09-1.79,3.35-2.37.1-.04.19-.12.29-.12,2.24-.13,4.48-.24,6.42,1.22.45.34.6.77.17,1.15-.81.71-1.1,1.82-1.99,2.44-.44.31-.21.9-.63,1.22-.84-1.32-2.26-1.76-3.59-1.74-2.04.02-3.77.66-4.53,2.81-.14.39-.13.76-.13,1.15,0,4.75,0,9.51,0,14.26,0,.25-.01.5,0,.74.02.41-.18.57-.58.56-1.17,0-2.35-.02-3.52,0-.48,0-.63-.22-.6-.65.01-.21,0-.43,0-.64,0-7.02,0-14.05,0-21.07,0-.21.01-.43,0-.64-.04-.48.12-.72.65-.71,1.1.03,2.2.03,3.31,0,.56-.01.76.22.74.76-.03.65,0,1.31,0,1.94Z"/>
  <path class="cls-3" d="m111.17,74.53c.38-.25.66-.43.94-.62,1.48-.99,2.87-.47,3.37,1.27.09.3.19.6.19.92,0,1.95.07,3.9,0,5.85-.03.93-.27,1.83-1.21,2.42-.83.52-1.57.5-2.36.03-.33-.19-.65-.4-1.01-.62-.27.18-.08.7-.45.74-.52.06-1.06.03-1.59,0-.16,0-.21-.16-.22-.31,0-.21,0-.43,0-.64,0-4.57,0-9.15,0-13.72,0-.85,0-.87.86-.86,1.78.01,1.45-.19,1.47,1.44.02,1.33,0,2.66,0,4.08Zm.03,4.65h0c0,.46,0,.92,0,1.38,0,.5-.02.99,0,1.49.03.59.32.93.77.97.5.04.73-.22.96-.8.21-.54.31-1.08.34-1.64.09-1.49.04-2.97-.15-4.45-.06-.43-.12-.87-.64-.99-.4-.1-.93.27-1.16.77-.12.27-.12.55-.13.83,0,.81,0,1.63,0,2.44Z"/>
  <path class="cls-3" d="m79.41,79.06c0-.64.02-1.27,0-1.91-.04-.83.23-1.59.51-2.33.33-.87,1.18-1.16,1.99-1.35.54-.13,1.14-.1,1.69,0,1.33.24,2.24.98,2.45,2.38.36,2.41.46,4.83-.28,7.19-.23.73-.74,1.23-1.53,1.49-.97.31-1.94.33-2.89.07-1.44-.39-1.83-1.58-1.91-2.89-.06-.88-.01-1.77-.01-2.65,0,0,0,0-.01,0Zm2.56.02s-.02,0-.03,0c0,.81,0,1.63,0,2.44,0,.39.06.76.18,1.14.12.38.37.35.65.36.31.02.66-.02.66-.35,0-.51.29-.92.28-1.43-.03-1.52,0-3.04,0-4.56,0-.39-.02-.77-.23-1.12-.32-.55-.84-.58-1.28-.12-.24.24-.21.51-.22.78-.02.95,0,1.91,0,2.86Z"/>
  <path class="cls-3" d="m107.31,79.07c0,1.56,0,3.12,0,4.67,0,.8-.01.8-.84.82-.11,0-.21,0-.32,0-.48.04-.85-.05-.84-.65,0-.16.03-.37-.19-.44-.23-.07-.27.12-.38.27-.72.97-1.74,1.12-2.84.97-.57-.08-1.29-1.02-1.34-1.72-.05-.6-.06-1.2-.06-1.8,0-2.27,0-4.53,0-6.8,0-.76.01-.76.74-.78,1.67-.05,1.68-.05,1.68,1.64,0,2.02,0,4.04,0,6.06,0,.32-.02.64.04.95.07.38.14.78.67.82.55.04,1.03-.24,1.14-.75.06-.27.04-.56.04-.85,0-2.37,0-4.75,0-7.12,0-.74.02-.76.77-.75,2.09.03,1.69-.26,1.72,1.63.02,1.27,0,2.55,0,3.82h0Z"/>
  <path class="cls-3" d="m92.26,83.37c-.56.47-.97.93-1.57,1.16-1.02.4-2,.27-2.68-.56-.44-.53-.47-1.22-.48-1.88-.01-1.35,0-2.69,0-4.04,0-1.28.03-2.55,0-3.83,0-.47.16-.6.61-.62,1.91-.1,1.91-.11,1.91,1.78,0,1.98,0,3.97,0,5.95,0,.25,0,.5,0,.74.05.75.22.99.68,1.01.57.03,1.13-.41,1.21-.97.04-.28.02-.57.02-.85,0-2.3,0-4.61,0-6.91,0-.74.02-.76.77-.75,1.93.03,1.58-.26,1.59,1.53.02,2.83,0,5.67.01,8.5,0,1.07-.03.94-.9.91-.94-.03-.94-.02-1.19-1.2Z"/>
  <path class="cls-3" d="m79.83,69.41c-.18,1.35-.5,2.51-.86,3.65-.44,1.4-.8,2.82-1.24,4.22-.42,1.32-.66,2.66-.64,4.05.02.92-.02,1.84-.01,2.76,0,.36-.14.47-.5.49-1.9.13-1.95.14-1.89-1.76.07-1.96-.24-3.83-.81-5.71-.76-2.5-1.59-4.99-2.12-7.68.74-.09,1.5-.01,2.25,0,.21,0,.25.19.28.37.21,1.12.42,2.24.65,3.36.25,1.17.52,2.34.96,3.52.18-.86.32-1.72.56-2.56.38-1.35.53-2.74.81-4.1.09-.46.28-.6.68-.61.6,0,1.2,0,1.87,0Z"/>
  <path class="cls-3" d="m121.35,79.89c-.28,0-.57,0-.85,0-1.19-.02-1.14-.11-1.09,1.17.02.46.08.92.12,1.38.04.48.39.68.79.72.38.04.68-.15.72-.6.01-.13.14-.24.2-.36.13-.27-.06-.73.35-.8.56-.1,1.13-.03,1.68.16.07.02.12.17.14.26.23,1.06-.37,2.19-1.38,2.6-1.04.42-2.13.54-3.17.13-1.2-.47-1.71-1.57-1.83-2.75-.18-1.73-.12-3.47,0-5.2.04-.51.15-1.06.37-1.58.87-2.03,3.79-1.97,5.2-.85.43.34.66.82.75,1.36.23,1.26.19,2.54.19,3.82,0,.43-.21.55-.59.55-.53-.01-1.07,0-1.6,0h0Zm-.13-2.7s.02,0,.02,0c-.04-.45-.04-.92-.13-1.36-.09-.45-.35-.73-.89-.69-.52.03-.67.37-.71.76-.07.7-.08,1.4-.11,2.11-.01.33.11.5.48.54,1.27.14,1.37.07,1.34-1.25,0-.04,0-.07,0-.11Z"/>
  <path class="cls-3" d="m98.73,78.88c0,1.95-.02,3.9.01,5.85,0,.55-.16.74-.72.72-2.03-.08-1.68.29-1.69-1.68-.02-3.51,0-7.01,0-10.52,0-.87,0-.87-.85-.89-.14,0-.28,0-.43,0-1.28-.02-1.14.13-1.13-1.13,0-.93,0-.93.9-.94,1.88,0,3.76.01,5.64-.01.53,0,.74.14.75.71,0,1.38.04,1.38-1.32,1.38q-1.18,0-1.18,1.2c0,1.77,0,3.54,0,5.31h0Z"/>
  <path class="cls-2" d="m211.65,33.85c0,.6,0,1.2,0,1.8,0,.41-.18.57-.57.56-1.2-.01-2.41,0-3.61,0-.36,0-.51-.16-.51-.51,0-1.2,0-2.4,0-3.6,0-.4.18-.57.58-.57,1.2,0,2.41,0,3.61,0,.36,0,.51.17.51.52,0,.6,0,1.2,0,1.8h0Z"/>
  <path class="cls-1" d="m186.48,53.24c0,.9-.08,1.72.02,2.53.12,1-.27,1.88-.55,2.76-.39,1.22-2.21,2.36-3.51,2.38-.32,0-.64,0-.96,0-1.95,0-3.39-1.24-4.01-3.13-.35-1.08-.37-2.14-.38-3.23,0-1.35.03-2.69,0-4.04-.04-1.39.29-2.66,1.08-3.79.62-.89,1.53-1.42,2.61-1.55.6-.07,1.21.04,1.81-.02,1.48-.16,3.07,1.27,3.5,2.82.49,1.78.35,3.57.39,5.28Z"/>
  <rect class="cls-3" x="68.41" y="17.31" width="62.6" height="44" rx="13.52" ry="13.52"/>
  <path class="cls-2" d="m108.29,39.36c-4.91,2.83-9.68,5.57-14.58,8.4v-16.73c4.91,2.64,9.56,5.61,14.58,8.33Z"/>
  <path class="cls-1" d="m243.65,52.9c0-1.45,0-2.91,0-4.36,0-1.25.61-2.07,1.65-2.73,1.31-.84,2.73-.72,4.12-.6.55.04,1.08.55,1.57.91,1.41,1.04,1.96,2.55,2.02,4.22.07,1.91.14,3.84-.02,5.74-.17,2.1-1.05,3.87-3.2,4.72-.24.1-.48.11-.73.11-.5,0-1-.06-1.49.01-1.73.25-2.67-.83-3.51-2.05-.33-.48-.45-1.02-.43-1.61.03-1.45,0-2.91,0-4.36Z"/>
  <path class="cls-1" d="m322.58,53.25c0,1.13,0,2.27,0,3.4,0,1.81-1.12,3.59-2.92,4.12-1.15.34-2.48.43-3.64-.12-1.36-.65-2.32-1.72-2.76-3.19-.08-.26-.06-.56-.06-.84,0-2.41.01-4.82,0-7.22,0-1.07.32-2.08,1.01-2.8.7-.74,1.57-1.44,2.73-1.43.18,0,.35,0,.53,0q2.21,0,3.96,1.21c.36.25.62.56.74,1,.23.85.46,1.69.43,2.59-.03,1.1,0,2.2,0,3.29Z"/>
  <path class="cls-1" d="m430.63,54.53c1.03,0,2.06.01,3.09,0,.44,0,.65.14.64.61-.02,1.42,0,2.83,0,4.25,0,.78-.61,1.1-1.17,1.37-.83.39-1.68.7-2.65.6-.77-.08-1.56-.03-2.34-.01-1.21.04-2.2-.38-3.03-1.25-.39-.4-.62-.81-.65-1.39-.03-.53-.08-1.03-.04-1.57.14-1.73,1.27-2.44,3.06-2.59,1.02-.09,2.06-.02,3.09-.01Z"/>
  <path class="cls-1" d="m389.56,53c0,1.1-.06,2.2.01,3.29.09,1.48-.67,2.51-1.66,3.42-.94.85-2.22.83-3.34,1.19-1.74-.34-3.3-.93-4.26-2.6-.67-1.17-.65-2.44-.7-3.69-.07-1.84-.09-3.69.15-5.51.17-1.31,1.19-2.97,2.69-3.38.44-.12.87-.28,1.3-.45.27-.1.55-.16.83-.12,2,.27,3.79.86,4.71,2.9.17.37.27.72.27,1.12,0,1.28,0,2.55,0,3.83Z"/>
  <path class="cls-1" d="m297.83,53.06c0,1.05,0,1.9,0,2.75,0,1.09-.33,2.08-.94,2.97-.64.93-1.49,1.58-2.66,1.74-.28.04-.55.14-.81.25-.49.2-.96.25-1.42-.05-.48-.32-1.08-.19-1.6-.49-1.35-.76-2.03-1.82-2.44-3.35-.58-2.15-.24-4.28-.34-6.41-.04-1.01.36-2,.76-2.91.25-.56.9-1,1.46-1.35.95-.58,1.97-1.13,3.13-1.02,1.26.12,2.43.56,3.43,1.37.82.67,1.04,1.64,1.26,2.6.31,1.36.11,2.74.17,3.92Z"/>
  <path class="cls-1" d="m111.2,79.18c0-.81,0-1.63,0-2.44,0-.28,0-.56.13-.83.23-.5.75-.87,1.16-.77.52.12.58.56.64.99.19,1.48.25,2.96.15,4.45-.04.56-.14,1.1-.34,1.64-.22.58-.46.84-.96.8-.45-.04-.74-.38-.77-.97-.03-.49,0-.99,0-1.49,0-.46,0-.92,0-1.38h0Z"/>
  <path class="cls-1" d="m81.97,79.08c0-.95,0-1.91,0-2.86,0-.27-.02-.53.22-.78.45-.46.96-.42,1.28.12.21.35.23.73.23,1.12,0,1.52-.03,3.04,0,4.56,0,.5-.28.92-.28,1.43,0,.33-.36.37-.66.35-.28-.02-.53.02-.65-.36-.12-.38-.18-.75-.18-1.14,0-.81,0-1.63,0-2.44,0,0,.02,0,.03,0Z"/>
  <path class="cls-1" d="m121.22,77.19s0,.07,0,.11c.03,1.31-.07,1.39-1.34,1.25-.37-.04-.49-.21-.48-.54.03-.7.04-1.41.11-2.11.04-.39.19-.73.71-.76.54-.03.8.24.89.69.09.44.09.91.13,1.36,0,0-.02,0-.02,0Z"/>
</svg>